<svg id="Layer_1" data-name="Layer 1" xmlns="http://www.w3.org/2000/svg" xmlns:xlink="http://www.w3.org/1999/xlink" viewBox="0 0 126.98 109.88"><defs><style>.cls-1{fill:#083c7b;}.cls-2{clip-path:url(#clip-path);}.cls-3{fill:#fff;}.cls-4{fill:#f4f4f4;}.cls-5{fill:#14477d;}.cls-10,.cls-6,.cls-8,.cls-9{fill:#0c8838;}.cls-7{fill:#0b772f;}.cls-10,.cls-8,.cls-9{stroke:#0b772f;stroke-miterlimit:10;}.cls-8{stroke-width:0.27px;}.cls-9{stroke-width:0.24px;}.cls-10{stroke-width:0.15px;}</style><clipPath id="clip-path" transform="translate(-0.01 -4.56)"><path id="_Clipping_Path_" data-name="&lt;Clipping Path&gt;" class="cls-1" d="M92.13,38.79l-3,2.79V76.91H85.67v3.68H82v3.85s-5.74-1.08-9.42,6.1H54.43c-3.68-7.18-9.42-6.1-9.42-6.1V80.59H41.33V76.91h-3.4V41.58l-3.06-2.79,3.42-6.2H88.71Z"/></clipPath></defs><title>logobajosdehaina</title><path id="_Clipping_Path_2" data-name="&lt;Clipping Path&gt;" class="cls-1" d="M92.13,38.79l-3,2.79V76.91H85.67v3.68H82v3.85s-5.74-1.08-9.42,6.1H54.43c-3.68-7.18-9.42-6.1-9.42-6.1V80.59H41.33V76.91h-3.4V41.58l-3.06-2.79,3.42-6.2H88.71Z" transform="translate(-0.01 -4.56)"/><g class="cls-2"><path class="cls-3" d="M88,62.77v.82c-.32-.12-.61-.25-.89-.37a8,8,0,0,0-7,0,11.08,11.08,0,0,1-9.2,0,8,8,0,0,0-7,0,10,10,0,0,1-4.61,1,9.89,9.89,0,0,1-4.59-1,8,8,0,0,0-7,0,10,10,0,0,1-4.6,1,9.79,9.79,0,0,1-4-.74v-.84l.49.21a7.35,7.35,0,0,0,3.51.81,7.49,7.49,0,0,0,3.52-.81,11,11,0,0,1,9.2,0,8.05,8.05,0,0,0,7,0,11,11,0,0,1,9.2,0,8.08,8.08,0,0,0,7,0,9.79,9.79,0,0,1,4.6-1A9.53,9.53,0,0,1,88,62.77Z" transform="translate(-0.01 -4.56)"/><path class="cls-3" d="M88,64.47v.82a9.16,9.16,0,0,1-.89-.37,8.05,8.05,0,0,0-7,0,11,11,0,0,1-9.2,0,8.05,8.05,0,0,0-7,0,9.87,9.87,0,0,1-4.61,1,9.74,9.74,0,0,1-4.59-1,8.08,8.08,0,0,0-7,0,9.82,9.82,0,0,1-4.6,1,9.6,9.6,0,0,1-4-.75v-.83l.49.2a7.22,7.22,0,0,0,3.51.82,7.36,7.36,0,0,0,3.52-.82,9.84,9.84,0,0,1,4.6-1,9.84,9.84,0,0,1,4.6,1,8,8,0,0,0,7,0,11.08,11.08,0,0,1,9.2,0,8,8,0,0,0,7,0,9.81,9.81,0,0,1,4.6-1A9.55,9.55,0,0,1,88,64.47Z" transform="translate(-0.01 -4.56)"/><path class="cls-3" d="M88,66.18V67c-.32-.12-.61-.25-.89-.38a8,8,0,0,0-7,0,11.08,11.08,0,0,1-9.2,0,8,8,0,0,0-7,0,9.89,9.89,0,0,1-4.61,1,9.76,9.76,0,0,1-4.59-1,8,8,0,0,0-7,0,9.84,9.84,0,0,1-4.6,1,9.79,9.79,0,0,1-4-.74v-.84l.49.21a7.35,7.35,0,0,0,3.51.81,7.49,7.49,0,0,0,3.52-.81,9.84,9.84,0,0,1,4.6-1,9.84,9.84,0,0,1,4.6,1,8.05,8.05,0,0,0,7,0,11.08,11.08,0,0,1,9.2,0,8.08,8.08,0,0,0,7,0,9.81,9.81,0,0,1,4.6-1A9.55,9.55,0,0,1,88,66.18Z" transform="translate(-0.01 -4.56)"/><path class="cls-3" d="M88,67.77v.86l-.66-.29a8,8,0,0,0-7,0,9.89,9.89,0,0,1-4.59,1,10,10,0,0,1-4.61-1,7.94,7.94,0,0,0-7,0,11.1,11.1,0,0,1-9.21,0,8,8,0,0,0-7,0,9.94,9.94,0,0,1-4.6,1A9.57,9.57,0,0,1,39,68.49v-.84l.72.31a8,8,0,0,0,7,0A11.08,11.08,0,0,1,56,68a8,8,0,0,0,7,0,11.08,11.08,0,0,1,9.2,0,8,8,0,0,0,7,0A11.11,11.11,0,0,1,88,67.77Z" transform="translate(-0.01 -4.56)"/><path class="cls-3" d="M88,69.8v.83a9.16,9.16,0,0,1-.89-.36,8,8,0,0,0-7,0,11.08,11.08,0,0,1-9.2,0,8,8,0,0,0-7,0,10,10,0,0,1-4.61,1,9.89,9.89,0,0,1-4.59-1,8,8,0,0,0-7,0,10,10,0,0,1-4.6,1,9.6,9.6,0,0,1-4-.75v-.83l.49.2a7.22,7.22,0,0,0,3.51.82,7.36,7.36,0,0,0,3.52-.82,11.08,11.08,0,0,1,9.2,0,8,8,0,0,0,7,0,11.08,11.08,0,0,1,9.2,0,8,8,0,0,0,7,0,11.11,11.11,0,0,1,9-.09Z" transform="translate(-0.01 -4.56)"/><path class="cls-3" d="M88,71.51v.83c-.32-.12-.61-.24-.89-.37a8.05,8.05,0,0,0-7,0,11.08,11.08,0,0,1-9.2,0,8.05,8.05,0,0,0-7,0,9.89,9.89,0,0,1-4.61,1,9.76,9.76,0,0,1-4.59-1,8.08,8.08,0,0,0-7,0A9.84,9.84,0,0,1,43,73a9.6,9.6,0,0,1-4-.75V71.4l.49.2a7.23,7.23,0,0,0,3.51.81,7.37,7.37,0,0,0,3.52-.81,9.84,9.84,0,0,1,4.6-1,9.84,9.84,0,0,1,4.6,1,8.05,8.05,0,0,0,7,0,11.08,11.08,0,0,1,9.2,0,8.08,8.08,0,0,0,7,0,9.81,9.81,0,0,1,4.6-1A9.71,9.71,0,0,1,88,71.51Z" transform="translate(-0.01 -4.56)"/><path class="cls-3" d="M88,73.23v.82c-.32-.12-.61-.25-.89-.37a8,8,0,0,0-7,0,11.08,11.08,0,0,1-9.2,0,8,8,0,0,0-7,0,10,10,0,0,1-4.61,1,9.89,9.89,0,0,1-4.59-1,8,8,0,0,0-7,0,10,10,0,0,1-4.6,1,9.79,9.79,0,0,1-4-.74V73.1l.49.21a7.35,7.35,0,0,0,3.51.81,7.49,7.49,0,0,0,3.52-.81,11,11,0,0,1,9.2,0,8.05,8.05,0,0,0,7,0,11,11,0,0,1,9.2,0,8.08,8.08,0,0,0,7,0,9.79,9.79,0,0,1,4.6-1A9.53,9.53,0,0,1,88,73.23Z" transform="translate(-0.01 -4.56)"/><path class="cls-3" d="M88,74.83v.84l-.66-.29a8.05,8.05,0,0,0-7,0,9.74,9.74,0,0,1-4.59,1,9.87,9.87,0,0,1-4.61-1,8,8,0,0,0-7,0,11,11,0,0,1-9.21,0,8.05,8.05,0,0,0-7,0,9.79,9.79,0,0,1-4.6,1A9.57,9.57,0,0,1,39,75.54V74.7l.72.31a8,8,0,0,0,7,0A11.08,11.08,0,0,1,56,75a8,8,0,0,0,7,0,11.08,11.08,0,0,1,9.2,0,8,8,0,0,0,7,0,9.92,9.92,0,0,1,4.59-1A9.7,9.7,0,0,1,88,74.83Z" transform="translate(-0.01 -4.56)"/><path class="cls-3" d="M87.69,76.44H85.54a7.4,7.4,0,0,0-1.94-.22,7.21,7.21,0,0,0-3.52.82,11.08,11.08,0,0,1-9.2,0,8,8,0,0,0-7,0,9.89,9.89,0,0,1-4.61,1,9.76,9.76,0,0,1-4.59-1,8,8,0,0,0-7,0A9.84,9.84,0,0,1,43,78c-.25,0-.5,0-.74,0v-.57a5.8,5.8,0,0,0,.74,0,7.49,7.49,0,0,0,3.52-.81,11,11,0,0,1,9.2,0,8.05,8.05,0,0,0,7,0,11,11,0,0,1,9.2,0,8.08,8.08,0,0,0,7,0,9.79,9.79,0,0,1,4.6-1A9.54,9.54,0,0,1,87.69,76.44Z" transform="translate(-0.01 -4.56)"/><path class="cls-3" d="M84.74,77.41V78a9.82,9.82,0,0,0-1.14-.06,7.34,7.34,0,0,0-3.52.81,11,11,0,0,1-9.2,0,8.05,8.05,0,0,0-7,0,9.87,9.87,0,0,1-4.61,1,9.74,9.74,0,0,1-4.59-1,8.08,8.08,0,0,0-7,0,9.82,9.82,0,0,1-4.6,1l-.74,0v-.57c.23,0,.48,0,.74,0a7.36,7.36,0,0,0,3.52-.82,11.08,11.08,0,0,1,9.2,0,8,8,0,0,0,7,0,11.08,11.08,0,0,1,9.2,0,8,8,0,0,0,7,0,9.94,9.94,0,0,1,4.6-1C84,77.37,84.39,77.38,84.74,77.41Z" transform="translate(-0.01 -4.56)"/><path class="cls-3" d="M84.74,79.12v.58a9.82,9.82,0,0,0-1.14-.06,7.3,7.3,0,0,0-2.33.33l-.06,0a8.62,8.62,0,0,0-1.13.46,11.08,11.08,0,0,1-9.2,0,8.05,8.05,0,0,0-7,0,9.89,9.89,0,0,1-4.61,1,9.76,9.76,0,0,1-4.59-1,8.08,8.08,0,0,0-7,0,12,12,0,0,1-1.81.67v-.73c.25-.09.49-.2.73-.31a9.84,9.84,0,0,1,4.6-1,9.84,9.84,0,0,1,4.6,1,8.05,8.05,0,0,0,7,0,11.08,11.08,0,0,1,9.2,0,8.08,8.08,0,0,0,7,0,9.81,9.81,0,0,1,4.6-1C84,79.08,84.39,79.09,84.74,79.12Z" transform="translate(-0.01 -4.56)"/><path class="cls-3" d="M81.21,81.08v.7c-.3.11-.59.24-.9.38a9.89,9.89,0,0,1-4.59,1,10,10,0,0,1-4.61-1,7.94,7.94,0,0,0-7,0,11.1,11.1,0,0,1-9.21,0,8,8,0,0,0-7,0,10.51,10.51,0,0,1-2,.73v-.7c.33-.12.65-.26,1-.4a9.84,9.84,0,0,1,4.61-1,9.77,9.77,0,0,1,4.59,1,8.05,8.05,0,0,0,7,0,11,11,0,0,1,9.2,0,8.08,8.08,0,0,0,7,0A9.52,9.52,0,0,1,81.21,81.08Z" transform="translate(-0.01 -4.56)"/><path class="cls-3" d="M75.47,84.53a8.77,8.77,0,0,0,1.59-.14,10.42,10.42,0,0,0-1.18.68h-.41a9.79,9.79,0,0,1-4.59-1,8.05,8.05,0,0,0-7,0,9.89,9.89,0,0,1-4.61,1,9.76,9.76,0,0,1-4.59-1,7.38,7.38,0,0,0-3.53-.81,7,7,0,0,0-2.89.53,6.86,6.86,0,0,0-1.48-.18,9.51,9.51,0,0,1,4.37-.91,9.7,9.7,0,0,1,4.6,1,8.05,8.05,0,0,0,7,0,11,11,0,0,1,9.2,0A7.49,7.49,0,0,0,75.47,84.53Z" transform="translate(-0.01 -4.56)"/><path class="cls-3" d="M81.21,82.94v.68a.47.47,0,0,0-.09,0,6.69,6.69,0,0,0-2.28.13l.16-.06A10.21,10.21,0,0,1,81.21,82.94Z" transform="translate(-0.01 -4.56)"/><path class="cls-3" d="M74.55,86.19a6.26,6.26,0,0,0-.5.53,9.36,9.36,0,0,1-3.17-.94,8.14,8.14,0,0,0-7,0,9.72,9.72,0,0,1-4.61,1,9.6,9.6,0,0,1-4.59-1,7.51,7.51,0,0,0-3.53-.8H51c-.31-.2-.62-.37-.91-.52.33,0,.67,0,1,0a9.72,9.72,0,0,1,4.6,1,8,8,0,0,0,7,0,11.08,11.08,0,0,1,9.2,0A7.38,7.38,0,0,0,74.55,86.19Z" transform="translate(-0.01 -4.56)"/><path class="cls-3" d="M73.31,87.66q-.19.27-.39.57a11.57,11.57,0,0,1-2-.73,8,8,0,0,0-7,0,9.89,9.89,0,0,1-4.61,1,9.76,9.76,0,0,1-4.59-1,8.61,8.61,0,0,0-1.54-.59c-.22-.25-.43-.49-.66-.72a9.22,9.22,0,0,1,3.27.94,8.05,8.05,0,0,0,7,0,11.08,11.08,0,0,1,9.2,0A12.37,12.37,0,0,0,73.31,87.66Z" transform="translate(-0.01 -4.56)"/><path class="cls-3" d="M56,88.83a8.19,8.19,0,0,0,1.92.68H55.6l-.73-.31-.31-.14c-.18-.34-.37-.65-.56-.94A10.6,10.6,0,0,1,56,88.83Z" transform="translate(-0.01 -4.56)"/><path class="cls-3" d="M72.48,89c-.1.17-.19.35-.29.55h-.36l-.72-.31a8,8,0,0,0-7,0l-.73.31H61.08A8,8,0,0,0,63,88.83a11.08,11.08,0,0,1,9.2,0Z" transform="translate(-0.01 -4.56)"/><path class="cls-3" d="M55.8,39.67a.83.83,0,0,0-.48-.75,1.34,1.34,0,0,0,0-.35,1.1,1.1,0,0,0-2-.63,1,1,0,0,0-2,.1h-.14A1.14,1.14,0,0,0,51,40.28a1,1,0,0,0-.27.71,1,1,0,0,0,1,1h0a1.06,1.06,0,0,0,.09.25.74.74,0,0,0-.64.69.73.73,0,0,0,.2,1.34v0a.61.61,0,0,0,.2.44.36.36,0,0,0,0,.11.44.44,0,0,0,.26.39.06.06,0,0,0,0,0,.33.33,0,0,0,.32.32.32.32,0,0,0,.32-.32.29.29,0,0,0-.09-.22.37.37,0,0,0,.06-.21.37.37,0,0,0,0-.11.64.64,0,0,0,.18-.32.62.62,0,0,0,.38-.29.69.69,0,0,0,.24,0,.61.61,0,0,0,.61-.61.28.28,0,0,0,0-.09.72.72,0,0,0,.3-.3,1.07,1.07,0,0,0,.76-1,1,1,0,0,0-.15-.54.62.62,0,0,0,.27-.51.58.58,0,0,0-.08-.3.65.65,0,0,0,.08-.31v0A.85.85,0,0,0,55.8,39.67Z" transform="translate(-0.01 -4.56)"/><path class="cls-4" d="M54.17,41.11a.83.83,0,0,0,.24-.59.85.85,0,0,0-.85-.86.88.88,0,0,0-.55.2.73.73,0,0,0-.31-1v-.1a.87.87,0,0,0-.87-.87.81.81,0,0,0-.47.13h-.1A1.14,1.14,0,0,0,51,40.28a1,1,0,0,0-.27.71,1,1,0,0,0,1,1h0a1.06,1.06,0,0,0,.09.25.74.74,0,0,0-.64.69.73.73,0,0,0,.2,1.34v0a.61.61,0,0,0,.2.44.36.36,0,0,0,0,.11.44.44,0,0,0,.26.39.06.06,0,0,0,0,0,.33.33,0,0,0,.32.32.32.32,0,0,0,.32-.32.29.29,0,0,0-.09-.22.37.37,0,0,0,.06-.21.37.37,0,0,0,0-.11.64.64,0,0,0,.18-.32.62.62,0,0,0,.38-.29l-.18-.68.18,0a.57.57,0,0,0,.58-.57.6.6,0,0,0-.07-.27h.15a.85.85,0,0,0,.85-.85A.89.89,0,0,0,54.17,41.11Zm-1.93,0Z" transform="translate(-0.01 -4.56)"/><path class="cls-3" d="M70.39,38.33a.54.54,0,0,0-.16-.55.72.72,0,0,0,.09-.2.71.71,0,0,0-.48-.87.72.72,0,0,0-.64.13A.66.66,0,0,0,68,36.56l-.08,0a.72.72,0,0,0-.9.5.72.72,0,0,0,.35.83.69.69,0,0,0-.3.39.68.68,0,0,0,.47.83h0a.47.47,0,0,0,0,.17.68.68,0,0,0-.62,1.17h0a.38.38,0,0,0,0,.3l0,.07a.26.26,0,0,0,.09.28v0a.2.2,0,0,0,.14.25.2.2,0,0,0,.25-.14.19.19,0,0,0,0-.15.24.24,0,0,0,.07-.12.17.17,0,0,0,0-.07.7.7,0,0,1,.46-.27l.13.07a.39.39,0,0,0,.48-.27.11.11,0,0,0,0,0,.45.45,0,0,0,.24-.14.68.68,0,0,0,.65-.49.73.73,0,0,0,0-.36.36.36,0,0,0,.25-.26.46.46,0,0,0,0-.2.52.52,0,0,0,.1-.18h0A.56.56,0,0,0,70.39,38.33Z" transform="translate(-0.01 -4.56)"/><path class="cls-4" d="M69.13,38.93a.54.54,0,0,0,.26-.33.54.54,0,0,0-.37-.67.52.52,0,0,0-.37,0,.69.69,0,0,0,.1-.19.47.47,0,0,0-.12-.47s0,0,0-.06a.56.56,0,0,0-.39-.69.55.55,0,0,0-.31,0l0,0a.72.72,0,0,0-.9.5.72.72,0,0,0,.35.83.69.69,0,0,0-.3.39.68.68,0,0,0,.47.83h0a.47.47,0,0,0,0,.17.68.68,0,0,0-.62,1.17h0a.38.38,0,0,0,0,.3l0,.07a.26.26,0,0,0,.09.28v0a.2.2,0,0,0,.14.25.2.2,0,0,0,.25-.14.19.19,0,0,0,0-.15.24.24,0,0,0,.07-.12.17.17,0,0,0,0-.07.7.7,0,0,1,.46-.27v-.45l.11.05a.37.37,0,0,0,.46-.43l.09,0a.53.53,0,0,0,.67-.37A.54.54,0,0,0,69.13,38.93ZM68,38.61Z" transform="translate(-0.01 -4.56)"/><path class="cls-3" d="M65.34,38.86a.86.86,0,0,0,.1-.94,1,1,0,0,0,.28-.23A1.2,1.2,0,0,0,65.51,36a1.32,1.32,0,0,0-1.1-.33,1.23,1.23,0,0,0-1.77-1.42l-.11-.11a1.24,1.24,0,0,0-1.75,0,1.21,1.21,0,0,0,0,1.53,1,1,0,0,0-.72.34,1.15,1.15,0,0,0,.2,1.61l0,0a.82.82,0,0,0-.1.26.78.78,0,0,0-1,0,.74.74,0,0,0-.75.21.77.77,0,0,0,0,1h0a.63.63,0,0,0-.14.49l-.08.08a.44.44,0,0,0-.05.49l0,0a.35.35,0,0,0,.06.49.35.35,0,0,0,.49,0,.31.31,0,0,0,.08-.23.39.39,0,0,0,.19-.12.47.47,0,0,0,.06-.09.7.7,0,0,0,.38-.11.71.71,0,0,0,.53.07.56.56,0,0,0,.17.21.66.66,0,0,0,.94,0l0-.08a.83.83,0,0,0,.47,0,1.11,1.11,0,0,0,1.34-.21.92.92,0,0,0,.24-.54.62.62,0,0,0,.58-.18.58.58,0,0,0,.13-.3.51.51,0,0,0,.28-.17l0,0A.91.91,0,0,0,65.34,38.86Z" transform="translate(-0.01 -4.56)"/><path class="cls-4" d="M63,38.74a.86.86,0,0,0,.62-.28.94.94,0,0,0-.16-1.31,1.07,1.07,0,0,0-.61-.26.63.63,0,0,0,.29-.2.77.77,0,0,0,.11-.8l.07-.06a1,1,0,0,0-.17-1.35,1.15,1.15,0,0,0-.49-.25l-.08-.08a1.24,1.24,0,0,0-1.75,0,1.21,1.21,0,0,0,0,1.53,1,1,0,0,0-.72.34,1.15,1.15,0,0,0,.2,1.61l0,0a.82.82,0,0,0-.1.26.78.78,0,0,0-1,0,.74.74,0,0,0-.75.21.77.77,0,0,0,0,1h0a.63.63,0,0,0-.14.49l-.08.08a.44.44,0,0,0-.05.49l0,0a.35.35,0,0,0,.06.49.35.35,0,0,0,.49,0,.31.31,0,0,0,.08-.23.39.39,0,0,0,.19-.12.47.47,0,0,0,.06-.09.7.7,0,0,0,.38-.11.71.71,0,0,0,.53.07l.3-.67a.55.55,0,0,0,.14.17.63.63,0,0,0,.88,0,.48.48,0,0,0,.12-.26l.13.12a.92.92,0,0,0,1.31,0A.85.85,0,0,0,63,38.74ZM61.26,37.3Z" transform="translate(-0.01 -4.56)"/><path class="cls-3" d="M87,56V50.09L82.45,47.4l0,4.15-7-4.91H74.3v2.13h1v3.61l-3.15-5.48V43.33H69.6v3.46H67.67V41.26h-.81v5.53H61.42v2h.8v5.3H59.84V40.49H57.2V54.05H54V52.32h1.18l-2.37-2.07V45.48h-1.3v3.64l-3.45-3-7.6,6.22h1.19V56H37.87v3.5H89.13V56ZM49.72,56H46.25V52.85h3.47Zm2.83-1.58H51.08v-1.6h1.47Zm14.12-.32h-2V51.49h2ZM78,52.77H76.25V50.41H78Zm8,1.13H84.3V51.53h1.76Z" transform="translate(-0.01 -4.56)"/><path class="cls-3" d="M74.07,43.32l.36.63.36.62,1-.22c.13.14.25.27.39.4l-.21,1,1.24.71.8-.7a4.58,4.58,0,0,0,.53.14l.34,1h1.44l.33-1a3.58,3.58,0,0,0,.54-.14l.8.71,1.24-.72-.22-1s.28-.26.39-.39l1,.21.72-1.24-.71-.8a4.58,4.58,0,0,0,.14-.53l1-.34V40.22l-1-.34a4.58,4.58,0,0,0-.14-.53l.71-.8-.68-1.18-1.08.15a4.89,4.89,0,0,0-.4-.39l.22-1.05L82,35.37l-.8.71a4.61,4.61,0,0,0-.53-.15l-.34-1H78.92l-.34,1a4.61,4.61,0,0,0-.53.15l-.8-.71-.62.36-.62.35.22,1.05a3,3,0,0,0-.4.39l-1-.21-.71,1.24.71.8a4.61,4.61,0,0,0-.15.53l-1,.34v1.43l1,.34a5.44,5.44,0,0,0,.15.54Zm3.27-1.06a2.65,2.65,0,1,1,3.63,1A2.65,2.65,0,0,1,77.34,42.26Z" transform="translate(-0.01 -4.56)"/><path class="cls-3" d="M56,80.61s-.72,7.26-.45,9.41,8.91,1.87,8.91,1.87,6.06,1.67,6.33-.7c.54-4.71.88-9.51-.87-10.48.25.15,4.65-.46,5.09-9,.42-8.2,1.21-9.59-.49-11.16s-3.19.4-3.19.4.14-2.6-1.79-3.22a2.56,2.56,0,0,0-3,1.12,2.84,2.84,0,0,0-2.29-2.69C62.07,55.59,61.17,58,61.17,58a2.09,2.09,0,0,0-2.06-2.37c-2.29-.27-3.64,1.34-3.64,5,0,0-3.18.45-4.26,2.29s-.47,2.45-1,3.88a7.55,7.55,0,0,0-.65,3.7,10.64,10.64,0,0,0,3.32,6.73A10.13,10.13,0,0,1,56,80.61Z" transform="translate(-0.01 -4.56)"/><path class="cls-1" d="M68.26,92.73a16.54,16.54,0,0,1-3.86-.57c-1.08,0-8.86.19-9.15-2.1-.26-2.06.36-8.53.44-9.39l-.1-.17a9.76,9.76,0,0,0-2.84-3.14,11,11,0,0,1-3.42-6.91,7.12,7.12,0,0,1,.57-3.52l.1-.29a4.46,4.46,0,0,0,.22-1.36A4.89,4.89,0,0,1,51,62.72c1-1.66,3.45-2.24,4.23-2.38,0-2.07.51-3.52,1.42-4.33a3,3,0,0,1,2.51-.69,2.61,2.61,0,0,1,1.84.93,2.28,2.28,0,0,1,.39.8,2.74,2.74,0,0,1,3-1.19,3.08,3.08,0,0,1,2.39,2.31,2.71,2.71,0,0,1,2.87-.73,3.15,3.15,0,0,1,2,2.85,2.54,2.54,0,0,1,1.39-.64,2.22,2.22,0,0,1,1.73.67c1.34,1.24,1.25,2.36.94,6.1-.11,1.37-.25,3.07-.36,5.28-.32,6.12-2.62,8.21-4,8.91a3.2,3.2,0,0,1-.74.3c1.2,1.46,1.07,5.21.49,10.31a1.38,1.38,0,0,1-.64,1A3.91,3.91,0,0,1,68.26,92.73Zm-3.83-1.1h.07c1.16.32,4.42,1,5.59.18a.86.86,0,0,0,.41-.65c.34-3,1-9.22-.74-10.22h0a.26.26,0,0,1-.09-.37.27.27,0,0,1,.36-.1h0a3.5,3.5,0,0,0,1.7-.8c1.22-1,2.73-3.16,3-8,.11-2.22.25-3.92.37-5.3.29-3.62.37-4.59-.78-5.65A1.71,1.71,0,0,0,73,60.19a2.38,2.38,0,0,0-1.47.9.28.28,0,0,1-.31.09.28.28,0,0,1-.18-.27s.1-2.4-1.6-3a2.29,2.29,0,0,0-2.65,1,.25.25,0,0,1-.3.12.26.26,0,0,1-.2-.26,2.56,2.56,0,0,0-2.08-2.42c-1.94-.48-2.75,1.58-2.78,1.67a.26.26,0,0,1-.32.16.26.26,0,0,1-.2-.29,2,2,0,0,0-.35-1.36,2.12,2.12,0,0,0-1.48-.72,2.57,2.57,0,0,0-2.09.56c-.82.73-1.24,2.13-1.24,4.15a.27.27,0,0,1-.23.27s-3.07.45-4.06,2.16a4.38,4.38,0,0,0-.69,2.32,4.88,4.88,0,0,1-.26,1.51l-.09.29a6.6,6.6,0,0,0-.54,3.3A10.38,10.38,0,0,0,53.09,77a10.41,10.41,0,0,1,3,3.28l.14.24a.23.23,0,0,1,0,.16c0,.08-.71,7.26-.44,9.36.17,1.39,5.38,1.74,8.63,1.64Z" transform="translate(-0.01 -4.56)"/><path class="cls-1" d="M58.27,81.33c-2.15,0-2.55-.63-2.61-.76a.26.26,0,0,1,.48-.22h0s.35.44,2.13.44a3,3,0,0,0,2.66-1.68.27.27,0,0,1,.35-.13.26.26,0,0,1,.14.35A3.54,3.54,0,0,1,58.27,81.33Z" transform="translate(-0.01 -4.56)"/><path class="cls-1" d="M56,65.44a14.64,14.64,0,0,1-.5,2.23,6.35,6.35,0,0,1-.94,2.14s4.37-1.71,7.33-.27c0,0,.14-1.24,1.25-1.17a26.49,26.49,0,0,1,4.72.53c1.79.43,1.84.74,2.87.74s1.7-1.45,1.59-2.13a1.77,1.77,0,0,1-2-.11c-1.14-.74-1-1.45-1-1.45a2.62,2.62,0,0,1-2.11.06,2.48,2.48,0,0,1-1.36-1.68,2.5,2.5,0,0,1-2.94,1.82c-2.33-.47-2.57-1.77-2.57-1.77s-.28.38-2,1A3.13,3.13,0,0,1,56,65.44Z" transform="translate(-0.01 -4.56)"/><path class="cls-1" d="M54.53,70.08a.26.26,0,0,1-.21-.11.27.27,0,0,1,0-.33,6.13,6.13,0,0,0,.9-2,18,18,0,0,0,.48-2.14v-.09a.26.26,0,0,1,.15-.17.3.3,0,0,1,.23,0,2.88,2.88,0,0,0,2.1-.07,5.89,5.89,0,0,0,1.89-.92.25.25,0,0,1,.27-.08.26.26,0,0,1,.2.2s.26,1.13,2.35,1.55a2.21,2.21,0,0,0,2.63-1.62.25.25,0,0,1,.26-.2.28.28,0,0,1,.26.22,2.23,2.23,0,0,0,1.21,1.48,2.33,2.33,0,0,0,1.87-.05.27.27,0,0,1,.4.28s0,.57.91,1.19a1.51,1.51,0,0,0,1.69.12.25.25,0,0,1,.26,0,.24.24,0,0,1,.16.2,2.51,2.51,0,0,1-.62,1.8,1.6,1.6,0,0,1-1.23.64,3.46,3.46,0,0,1-1.38-.27,11.39,11.39,0,0,0-1.55-.47,22.91,22.91,0,0,0-4.19-.51l-.49,0H63c-.77,0-.89.85-.9.94a.26.26,0,0,1-.14.21.29.29,0,0,1-.24,0c-2.82-1.38-7.08.26-7.12.27A.16.16,0,0,1,54.53,70.08Zm8.49-2h.1l.49,0a25.08,25.08,0,0,1,4.28.52,13.52,13.52,0,0,1,1.61.49,2.86,2.86,0,0,0,1.2.25,1.12,1.12,0,0,0,.82-.46,2.14,2.14,0,0,0,.48-1,2.1,2.1,0,0,1-1.85-.31A2.45,2.45,0,0,1,69,66.33a2.86,2.86,0,0,1-2-.07A2.59,2.59,0,0,1,65.77,65a2.59,2.59,0,0,1-3,1.37,3.49,3.49,0,0,1-2.63-1.6,9.06,9.06,0,0,1-1.79.82,3.72,3.72,0,0,1-2.19.17,17.81,17.81,0,0,1-.46,2,8.64,8.64,0,0,1-.59,1.57c1.32-.41,4.23-1.1,6.53-.16A1.4,1.4,0,0,1,63,68.09ZM56,65.44h0Zm0,0h0Z" transform="translate(-0.01 -4.56)"/><path class="cls-1" d="M65.46,78.46l-.08,0a.27.27,0,0,1-.18-.33s.84-2.86.18-4.5a6.82,6.82,0,0,0-3.73-3.91.27.27,0,0,1-.18-.34.27.27,0,0,1,.34-.17,7.21,7.21,0,0,1,4.07,4.22c.73,1.82-.12,4.73-.16,4.85A.28.28,0,0,1,65.46,78.46Z" transform="translate(-0.01 -4.56)"/><path class="cls-1" d="M68.29,76.39h0a.26.26,0,0,1-.24-.3c.28-2.57-3.9-4.7-3.94-4.72A.27.27,0,0,1,64,71a.26.26,0,0,1,.36-.12c.19.09,4.55,2.32,4.23,5.26A.26.26,0,0,1,68.29,76.39Z" transform="translate(-0.01 -4.56)"/><path class="cls-1" d="M72.36,67.76a.23.23,0,0,1-.14,0,.27.27,0,0,1-.09-.37,26.74,26.74,0,0,0,1.7-2.95.28.28,0,0,1,.36-.13.27.27,0,0,1,.13.36,31.27,31.27,0,0,1-1.73,3A.27.27,0,0,1,72.36,67.76Z" transform="translate(-0.01 -4.56)"/><path class="cls-1" d="M69.18,66.52l-.1,0a.26.26,0,0,1-.15-.35l2.12-5.33a.29.29,0,0,1,.35-.15.27.27,0,0,1,.15.35l-2.12,5.33A.28.28,0,0,1,69.18,66.52Z" transform="translate(-0.01 -4.56)"/><path class="cls-1" d="M65.73,65h0a.27.27,0,0,1-.23-.31l.88-6a.26.26,0,0,1,.3-.23.27.27,0,0,1,.23.31l-.87,6A.28.28,0,0,1,65.73,65Z" transform="translate(-0.01 -4.56)"/><path class="cls-5" d="M61,59.85h0a.29.29,0,0,1-.24-.3l.16-1.61a.26.26,0,0,1,.29-.24.27.27,0,0,1,.25.29l-.16,1.62A.27.27,0,0,1,61,59.85Z" transform="translate(-0.01 -4.56)"/><path class="cls-1" d="M60.28,64.65a.26.26,0,0,1-.22-.12.27.27,0,0,1,.07-.37A4.88,4.88,0,0,0,61.88,62a2,2,0,0,0-.29-1.65,1.47,1.47,0,0,0-.62-.63h0c-.4,0-3.57.68-5.49,1.12a.29.29,0,0,1-.33-.2.28.28,0,0,1,.21-.33c1.22-.27,5.27-1.21,5.69-1.13A1.85,1.85,0,0,1,62,60a2.64,2.64,0,0,1,.4,2.16,5.31,5.31,0,0,1-2,2.48A.2.2,0,0,1,60.28,64.65Z" transform="translate(-0.01 -4.56)"/><path class="cls-1" d="M58.38,62.61a2.73,2.73,0,0,1-.41,0c-1.21-.22-1.6-2.12-1.62-2.2a.28.28,0,0,1,.21-.31l2-.47L61,59.16a.24.24,0,0,1,.2,0,.27.27,0,0,1,.11.18c0,.27.23,1.63-.23,2.15A4.16,4.16,0,0,1,58.38,62.61Zm-1.44-2.08c.16.54.52,1.41,1.12,1.52a3.54,3.54,0,0,0,2.58-.87,2.66,2.66,0,0,0,.14-1.44l-2.06.38Z" transform="translate(-0.01 -4.56)"/></g><path class="cls-6" d="M91.92,71.38c1-5.29-.66-16-1-18.36,2.29,2.37,9.81,6.39,10.15,6.57l.22.12,0-.26c-.87-8.8-4.4-29.63-18.54-33C64.58,22.11,65.57,8,66,5.12,69,14,73.84,18.56,77.36,20.82a17.76,17.76,0,0,0,7.14,2.81l.44,0-.34-.28c-4.66-3.85-6.1-9.59-6.45-11.48,3.27,4.84,9.09,9.71,13.26,12.27,3.92,2.4,7.78,8.92,7.82,9l.2.34,0-.39c.9-6.68-13.69-18.06-16-19.84l.53,0c6.36,0,11.76,5.95,15.77,11.13C104.3,30.27,107,39.89,107,40l.12.45.14-.44c1.68-5.21,5.69-9.81,6.6-10.81,4.71,26.08,10.4,32.6,12.38,34.13C117,60.73,111.55,42.17,111.5,42l-.22-.78,0,.81a93.51,93.51,0,0,1-4.73,24.14l-4.82.36c-3.15-5.87-6.92-8.15-7-8.18l-.22-.12v.25C94.88,67.45,92.71,70.55,91.92,71.38Z" transform="translate(-0.01 -4.56)"/><path class="cls-7" d="M66,5.71c3.08,8.57,7.78,13,11.24,15.22a17.43,17.43,0,0,0,7.21,2.83l.88.08-.68-.56a19.8,19.8,0,0,1-6.27-10.74A48.72,48.72,0,0,0,91.34,24.29c3.89,2.39,7.73,8.88,7.77,8.94l.4.68.1-.78c.88-6.51-12.69-17.36-15.78-19.74H84c6.3,0,11.67,5.92,15.66,11.07,4.53,5.87,7.2,15.46,7.23,15.56l.24.88.28-.87a32.51,32.51,0,0,1,6.39-10.55c4.34,23.89,9.53,31.29,11.87,33.5-4.37-1.58-7.79-6.7-10-10.94a62,62,0,0,1-4.06-10.1l-.44-1.55-.1,1.61a93,93,0,0,1-4.69,24l-4.64.35c-3.16-5.84-6.81-8.06-7-8.15L94.36,58l0,.5c.32,7.95-1.34,11.26-2.25,12.46.77-5.23-.59-14.58-1-17.51,2.59,2.41,9.55,6.13,9.87,6.3l.45.24-.05-.51c-2.6-26.5-13.9-32-18.64-33.13C74.44,24.33,69,20,66.87,13.66A19.49,19.49,0,0,1,66,5.71m-.1-1.15s-3.78,17.11,16.71,22c12.54,3,17.19,20.25,18.43,32.9,0,0-8.64-4.6-10.42-6.9,0,0,2.32,13.39,1,19.18,0,0,3.4-2.12,3-13.3,0,0,3.78,2.24,6.95,8.2l5-.37A92.25,92.25,0,0,0,111.37,42S117,61.87,127,63.62c0,0-7.31-2.75-13-34.73,0,0-4.9,5.09-6.82,11.06,0,0-2.65-9.68-7.28-15.66C95.44,18.59,90.14,13.12,84,13.12c-.3,0-.6,0-.9,0,0,0,17.22,12.82,16.26,19.94,0,0-3.87-6.59-7.86-9C87,21.33,81,16.17,77.91,11.3c0,0,.87,7.46,6.61,12.19,0,0-12.7-1.12-18.58-18.93Z" transform="translate(-0.01 -4.56)"/><path class="cls-8" d="M102.19,67.88s2.67-.91,4.06-.14c0,0,.14,5.86-2.06,9a3.92,3.92,0,0,0-3.28-1.35A17.12,17.12,0,0,1,102.19,67.88Z" transform="translate(-0.01 -4.56)"/><path class="cls-8" d="M100.72,76.4a4.3,4.3,0,0,1,3.25,1s-.86,5.27-3.35,7.7A5.72,5.72,0,0,0,97.5,83.6,20,20,0,0,1,100.72,76.4Z" transform="translate(-0.01 -4.56)"/><path class="cls-8" d="M96.8,84.58a5.2,5.2,0,0,1,3.07,1.82s-2.8,5.2-6.11,6.63A6.78,6.78,0,0,0,91,90.41,22.68,22.68,0,0,1,96.8,84.58Z" transform="translate(-0.01 -4.56)"/><path class="cls-8" d="M90.28,91.52s2.09.1,2.55,2.8c0,0-3,4.27-5.91,4.81a5.64,5.64,0,0,0-2-3A12.19,12.19,0,0,1,90.28,91.52Z" transform="translate(-0.01 -4.56)"/><path class="cls-8" d="M83.64,96.68s2.43.47,2,3.61c0,0-4.92,4.19-8.42,4A6,6,0,0,0,76,100.45,15.72,15.72,0,0,1,83.64,96.68Z" transform="translate(-0.01 -4.56)"/><path class="cls-8" d="M72.93,101.21s3.24-.2,2.83,3.65a16,16,0,0,1-7.91,3.46s-3-1.84-3.65-3.85A20.14,20.14,0,0,1,72.93,101.21Z" transform="translate(-0.01 -4.56)"/><path class="cls-8" d="M60.55,105.9c1.5-.37,3.8-.68,5.83,2.89,0,0-10.42,6.62-9.2,3.83.66-1.52-.31-4.14-5.72-2.41A34.35,34.35,0,0,1,60.55,105.9Z" transform="translate(-0.01 -4.56)"/><ellipse class="cls-9" cx="54.59" cy="111.5" rx="0.8" ry="2.25" transform="translate(-69.55 105.52) rotate(-63.26)"/><path class="cls-6" d="M35,71.33c-.78-.84-2.89-4-2.38-13v-.25l-.22.12s-3.85,2.25-7.09,8.06l-4.82-.44a93.42,93.42,0,0,1-4.32-24.22l0-.8-.24.77C15.8,41.79,10.1,60.26.77,62.68c2-1.49,7.8-7.92,12.94-33.91.89,1,4.83,5.67,6.42,10.91l.13.44.13-.44c0-.1,2.86-9.67,7.52-15.48,4-5.06,9.49-10.86,15.77-10.86l.71,0C42,15.1,27.24,26.24,28,32.94l0,.39.21-.34c0-.06,4-6.51,8-8.85,4.2-2.49,10.11-7.26,13.46-12-.39,1.88-1.92,7.59-6.65,11.36l-.34.27.44,0c.13,0,12.62-1.09,18.83-18.19.36,2.92,1.11,17-17.05,21-14.2,3.15-18.08,23.92-19.09,32.7l0,.26.22-.12C26.38,59.21,34,55.32,36.3,53,35.87,55.35,34.07,66,35,71.33Z" transform="translate(-0.01 -4.56)"/><path class="cls-7" d="M61.91,6.1c.33,3.83.06,16.52-17,20.31-4.76,1.06-16.15,6.37-19.2,32.82l-.06.5.46-.23c.32-.16,7.34-3.76,10-6.13-.52,2.92-2,12.27-1.35,17.51-.89-1.2-2.49-4.51-2-12.51l0-.5-.43.25c-.16.08-3.86,2.24-7.1,8l-4.65-.42a94.23,94.23,0,0,1-4.29-24.1L16.2,40l-.47,1.54a61.62,61.62,0,0,1-4.23,10c-2.24,4.2-5.75,9.26-10.14,10.77,2.37-2.17,7.69-9.48,12.43-33.3A32.62,32.62,0,0,1,20,39.72l.27.88.25-.88c0-.1,2.86-9.65,7.49-15.44,4-5,9.45-10.81,15.67-10.81H44c-3.13,2.33-16.88,13-16.11,19.47l.09.79.42-.68c0-.06,4-6.48,7.92-8.8A49,49,0,0,0,49.43,12.72,19.86,19.86,0,0,1,43,23.35l-.69.55.88-.06a17.48,17.48,0,0,0,7.25-2.71c3.5-2.16,8.27-6.51,11.49-15M62,5C55.86,22.66,43.15,23.57,43.15,23.57,49,18.93,50,11.49,50,11.49,46.78,16.3,40.67,21.36,36.18,24c-4,2.39-8,8.9-8,8.9-.84-7.13,16.6-19.66,16.6-19.66a9.77,9.77,0,0,0-1.08-.06c-6.09,0-11.42,5.34-15.88,10.91C23.08,30,20.26,39.64,20.26,39.64c-1.82-6-6.63-11.17-6.63-11.17C7.36,60.35,0,63,0,63c10-1.59,16-21.34,16-21.34A92.7,92.7,0,0,0,20.35,66l5,.45c3.27-5.9,7.08-8.08,7.08-8.08C31.8,69.52,35.16,71.7,35.16,71.7,34,65.89,36.52,52.54,36.52,52.54,34.7,54.81,26,59.26,26,59.26c1.46-12.62,6.4-29.79,19-32.58C65.54,22.11,62,5,62,5Z" transform="translate(-0.01 -4.56)"/><path class="cls-8" d="M24.73,67.65s-2.65-1-4.05-.2c0,0-.24,5.85,1.91,9a3.88,3.88,0,0,1,3.3-1.29A17.3,17.3,0,0,0,24.73,67.65Z" transform="translate(-0.01 -4.56)"/><path class="cls-8" d="M26.06,76.2a4.26,4.26,0,0,0-3.26,1s.77,5.28,3.22,7.75a5.66,5.66,0,0,1,3.14-1.49A19.92,19.92,0,0,0,26.06,76.2Z" transform="translate(-0.01 -4.56)"/><path class="cls-8" d="M29.84,84.44a5.22,5.22,0,0,0-3.1,1.77s2.72,5.25,6,6.73a6.78,6.78,0,0,1,2.85-2.57A22.49,22.49,0,0,0,29.84,84.44Z" transform="translate(-0.01 -4.56)"/><path class="cls-8" d="M36.25,91.49s-2.09.06-2.59,2.76c0,0,2.89,4.32,5.82,4.9a5.65,5.65,0,0,1,2-3A12.1,12.1,0,0,0,36.25,91.49Z" transform="translate(-0.01 -4.56)"/><path class="cls-8" d="M42.8,96.76s-2.43.43-2.06,3.57c0,0,4.85,4.28,8.35,4.19a6,6,0,0,1,1.25-3.86A15.7,15.7,0,0,0,42.8,96.76Z" transform="translate(-0.01 -4.56)"/><path class="cls-8" d="M53.43,101.47s-3.23-.26-2.89,3.6c0,0,1.15,1.39,4.37,2.12a14.06,14.06,0,0,1,7.2-2.31A20.11,20.11,0,0,0,53.43,101.47Z" transform="translate(-0.01 -4.56)"/><path class="cls-8" d="M70.18,109.09s-4.21-.79-6.3,2.76a15.42,15.42,0,0,0,6.9,2.4s1.14-3.31,5.7-.44C76.48,113.81,74.63,109.63,70.18,109.09Z" transform="translate(-0.01 -4.56)"/><ellipse class="cls-10" cx="73.07" cy="113.84" rx="1.41" ry="0.51" transform="translate(-9.91 2.44) rotate(-5.14)"/><path class="cls-1" d="M31.46,80.91l-.36-1.09,1.12-.58-.43-1.33-1.25.2-.32-1,6.88-1,.52,1.59Zm1.26-3.16.34,1,3.13-1.6Z" transform="translate(-0.01 -4.56)"/><path class="cls-1" d="M38.46,79.79l.53,1-5.2,2.74.87,1.66-.86.46L32.39,83Z" transform="translate(-0.01 -4.56)"/><path class="cls-1" d="M39.13,88.58l-.71.57a1.71,1.71,0,1,1-2.14-2.67l2.78-2.23a1.71,1.71,0,1,1,2.14,2.67l-.52.41L40,86.49l.57-.46c.38-.31.39-.6.16-.89s-.52-.34-.9,0l-2.89,2.32c-.38.31-.37.6-.14.88s.5.35.89,0l.76-.62Z" transform="translate(-0.01 -4.56)"/><path class="cls-1" d="M41.9,94.34l-.9-.72.62-1.09-1.1-.88-.93.86-.82-.66L44,87.21l1.31,1ZM41.22,91l.86.68,1.73-3Z" transform="translate(-0.01 -4.56)"/><path class="cls-1" d="M47.06,89.46l1,.51-2.64,5.25,1.68.85-.44.87L44,95.58Z" transform="translate(-0.01 -4.56)"/><path class="cls-1" d="M50.74,91.2l1.73.53a1.51,1.51,0,0,1,1.15,2.11l-1,3.32a1.52,1.52,0,0,1-2.13,1.13l-1.73-.52Zm.81,1.27-1.41,4.69.62.18c.35.11.61,0,.75-.46l1-3.42c.14-.46,0-.7-.37-.8Z" transform="translate(-0.01 -4.56)"/><path class="cls-1" d="M55.51,92.46l1.12.2-1.18,6.76-1.13-.2Z" transform="translate(-0.01 -4.56)"/><path class="cls-1" d="M61.37,100l-1.15-.09-.1-1.26-1.4-.1-.29,1.23-1-.08L59.05,93l1.67.13Zm-2.44-2.37,1.1.08-.29-3.5Z" transform="translate(-0.01 -4.56)"/><path class="cls-1" d="M65.67,93.15l1.8-.15a1.52,1.52,0,0,1,1.84,1.55L69.59,98A1.51,1.51,0,0,1,68,99.83l-1.8.15Zm1.22.88.39,4.88.64,0c.37,0,.57-.22.53-.71l-.29-3.55c0-.49-.27-.65-.63-.62Z" transform="translate(-0.01 -4.56)"/><path class="cls-1" d="M72.29,95.25l1.53-.32.2,1-1.53.32.4,2,1.94-.4.2,1L72,99.37l-1.39-6.72,3-.63.2,1-1.93.4Z" transform="translate(-0.01 -4.56)"/><path class="cls-1" d="M81.21,96.53l-1,.51-3-6.14,1-.51L79.47,93l1.16-.58-1.31-2.63,1.05-.52,3,6.14-1,.52-1.31-2.63-1.16.58Z" transform="translate(-0.01 -4.56)"/><path class="cls-1" d="M88.62,91.63l-.9.73-.94-.85-1.09.88.63,1.09-.82.66-3.39-6.07,1.3-1Zm-3.4,0,.86-.7-2.6-2.35Z" transform="translate(-0.01 -4.56)"/><path class="cls-1" d="M85,85.45l.75-.86,5.18,4.5-.75.86Z" transform="translate(-0.01 -4.56)"/><path class="cls-1" d="M88.79,83.64,93,86.21l-.53.88-5.87-3.55.74-1.22,4.12,1.11L88,81.31l.53-.87L94.38,84l-.6,1Z" transform="translate(-0.01 -4.56)"/><path class="cls-1" d="M96.78,78.13l-.4,1.09L95.15,79l-.49,1.32,1.1.62-.37,1-6-3.47.58-1.57Zm-2.94,1.7.38-1-3.45-.69Z" transform="translate(-0.01 -4.56)"/><polygon class="cls-1" points="84.14 54.95 76.35 54.95 72.83 54.95 72.55 54.24 84.7 54.24 84.14 54.95"/><path class="cls-1" d="M72.12,57.7l.42,1H84.75l.65-.82-3.72,0-.19.26h-5.7L75.61,58l-.27-.25Zm11.53.6c.07-.08.16-.1.21,0a.22.22,0,0,1,0,.26c-.07.08-.17.1-.21,0A.22.22,0,0,1,83.65,58.3Z" transform="translate(-0.01 -4.56)"/><rect class="cls-1" x="83.83" y="52.86" width="0.7" height="0.43"/><rect class="cls-1" x="83.05" y="52.86" width="0.7" height="0.43"/><rect class="cls-1" x="82.26" y="52.86" width="0.7" height="0.43"/><rect class="cls-1" x="83.83" y="52.34" width="0.7" height="0.43"/><rect class="cls-1" x="83.05" y="52.34" width="0.7" height="0.43"/><rect class="cls-1" x="82.26" y="52.34" width="0.7" height="0.43"/><rect class="cls-1" x="80.74" y="53.1" width="0.7" height="0.43"/><rect class="cls-1" x="79.95" y="53.1" width="0.7" height="0.43"/><rect class="cls-1" x="79.17" y="53.1" width="0.7" height="0.43"/><rect class="cls-1" x="78.39" y="53.1" width="0.7" height="0.43"/><rect class="cls-1" x="77.61" y="53.1" width="0.7" height="0.43"/><rect class="cls-1" x="76.83" y="53.1" width="0.7" height="0.43"/><rect class="cls-1" x="76.05" y="53.1" width="0.7" height="0.43"/><rect class="cls-1" x="80.74" y="52.6" width="0.7" height="0.43"/><rect class="cls-1" x="79.95" y="52.6" width="0.7" height="0.43"/><rect class="cls-1" x="79.17" y="52.6" width="0.7" height="0.43"/><rect class="cls-1" x="78.39" y="52.6" width="0.7" height="0.43"/><rect class="cls-1" x="77.61" y="52.6" width="0.7" height="0.43"/><rect class="cls-1" x="76.83" y="52.6" width="0.7" height="0.43"/><rect class="cls-1" x="76.05" y="52.6" width="0.7" height="0.43"/><rect class="cls-1" x="80.74" y="52.09" width="0.7" height="0.43"/><rect class="cls-1" x="79.95" y="52.09" width="0.7" height="0.43"/><rect class="cls-1" x="79.17" y="52.09" width="0.7" height="0.43"/><rect class="cls-1" x="78.39" y="52.09" width="0.7" height="0.43"/><rect class="cls-1" x="77.61" y="52.09" width="0.7" height="0.43"/><rect class="cls-1" x="76.83" y="52.09" width="0.7" height="0.43"/><rect class="cls-1" x="76.05" y="52.09" width="0.7" height="0.43"/><rect class="cls-1" x="72.41" y="52.78" width="2.93" height="0.28"/><path class="cls-1" d="M75.19,57.27h-1V56.1h.58l-.31-.74s0,0,0,0,0,0,0,0l.32.76h.52v.14h-.13Z" transform="translate(-0.01 -4.56)"/></svg>