<svg xmlns="http://www.w3.org/2000/svg" width="160" height="44.81" viewBox="0 0 160 44.81"><defs><style>.a{fill:#204199;}.b{fill:#00a551;}.c{fill:#fff;}</style></defs><g transform="translate(0 0.042)"><path class="a" d="M81.458,276.251H54.613a1.342,1.342,0,0,0-1.342,1.342v26.845a1.342,1.342,0,0,0,1.342,1.342H81.458a1.342,1.342,0,0,0,1.342-1.342V277.593A1.342,1.342,0,0,0,81.458,276.251Z" transform="translate(-53.271 -261.012)"/><path class="b" d="M123.072,234.637H96.228a1.336,1.336,0,0,0-1.342,1.329V262.55a1.336,1.336,0,0,0,1.342,1.329h26.844a1.336,1.336,0,0,0,1.342-1.329V235.966A1.336,1.336,0,0,0,123.072,234.637Z" transform="translate(-86.743 -227.255)"/><path class="a" d="M166.766,196.91H139.922a1.342,1.342,0,0,0-1.342,1.342V225.1a1.342,1.342,0,0,0,1.342,1.342h26.844a1.342,1.342,0,0,0,1.342-1.342V198.252A1.342,1.342,0,0,0,166.766,196.91Z" transform="translate(-121.887 -196.91)"/><path class="c" d="M177.467,241.163l-.364-.219-.286-.277-.041-.026-.078-.036-.275-.191-.384-.292-.271-.329-.738-.684-.066-.025-.113-.009-.059-.032L174.73,239l-.058-.021-.143,0-.226-.048-.013,0-.13-.045-.027-.023,0-.025v-.025l-.011-.018-.107-.058-.12-.044-.134-.026-.227-.013-.025,0-.022.027-.066.069-.055.019-.056,0-.024.012.049.054-.073.053-.155.071-.077.063-.043-.071-.083-.036-.1-.029-.086-.051-.134-.216-.1-.09-.114.032v.064l.079.048.039.048-.119.068-.1.007-.835-.226-.219-.027-.108-.028-.107-.082-.087-.205-.113-.083-.1-.018-.339.018v.046l.07.009.061.022.051.031.039.034-.158.018-.3-.117-.15.049-.121-.044-.351.054-.139-.1-.02-.1.047-.272.021-.318.034-.089.091-.025.811.1.235.117.129.036.547-.041.5.091.139-.035.111-.079.074-.109.027-.121.058-.115.115-.1.083-.115-.038-.148-.116.059-.139.036h-.143l-.127-.046.094-.19.049-.159-.045-.077-.185.056-.288.159-.118.108-.071.145-.11-.079-.368-.149-.07.043-.044.013-.02-.033-.01-.039-.026-.021-.035-.009h-.037l-.067.008-.153.038-.084-.016-.135-.066-.065-.014-.073.016-.188.125-.13.054-.127.026-.286.012-.128.022-.247.094-.129.021-.216-.088-.215-.208-.423-.633-.041-.106-.015-.132v-.307l-.048-.119-.127-.053.1-.369,0-.169-.068-.157-.217-.229-.1-.058-.077-.009-.174.016-.352,0-.12.056-.232.248-.056.049-.064.024-.1,0-.426-.085-.233-.084-.29-.03-.13-.039-.116-.059-.105-.076-.62-.655-.247-.078-.064.02-.088.044-.077.052-.032.046-.032.018-.384,0-.284-.043-.246-.086-.23-.117-.242-.2-.091-.045-.24,0,.034-.063-.023-.063-.279-.333-.079-.054-.073,0-.188.044-.09.009-.308-.051.016.039.03.1H161l-.122-.051.032-.106-.052-.085-.1-.058-.1-.027-.111.016-.206.1-.1.025-.077.05-.117.222-.065.05-.1.014-.085.022-.083,0-.1-.038.02.045v.018l.012.008.054.016-.017.045-.027.037-.037.032-.05.031-.07-.176-.054-.064-.074.03-.034.07,0,.068-.018.052-.074.021-.281-.01-.092-.042-.129-.094-.169.066-.178-.036-.607-.315-.164-.058-.166-.024-.653.051-.023.014-.044.063-.021.015-.048-.009-.077-.033-.049-.009-.082.021-.034.053.007.075.043.085-.073.067-.055.026-.057.014-.076.031-.037.034-.071.087-.043.017-.071,0-.032.007-.029.02-.1.109-.068.107.021.071.172.009v.049l-.007.068.113.259.024.132-.114-.058-.122-.027-.089,0,.042.059.1.126.023.119-.016.283.029.153.177.42.077.524,0,.3-.073.154-.034.038-.081.2-.06.047-.172.1-.042.043.032.133.114.159.236.241.492.237-.029.4-.033.115-.079.119-.216.154-.1.085-.191.267-.275.3-.083.052-.326.087-.11.075.019.115.114-.017.157-.053.15,0,.058.047.09.189.059.068.146.133.047.06.035.124.006.27.051.262-.009.125-.031.124-.044.112-.075.125-.089.073-.231.142-.086.1-.13.222-.084.09-.246.083-.478-.087-.236.049-.11.083.057.109.574.588.041.063.016.1-.034.036-.047.027-.025.074.038.122.1.053.248.061.054.048.1.141.052.059.24.159.341.129.09.059.059.053.014.019-.361.618-.05.125-.019.131.01.063.069.19.015.075,0,.111.014.193-.023.115-.074.2,0,0,.355.133.232.193.111.128.048.116-.044.251,0,.079.014.039.068.1.1.189.027.1.01.143-.044.084-.2.21-.062.048.218.052.507-.068.214.082.106.114.438.72.062.053,0,.028.053.052.065.03.261-.366.066-.122.214-.623.077-.111.024-.048.043-.132.023-.028.05-.01.041-.027.032-.042.026-.056h-.043l.024-.021.01-.016.01-.049.026.021.018.013.047.017.039-.11.044-.081.056-.065.078-.066.127-.064.061-.042.026-.054.052-.149.6-.877.1-.267.124-.188v-.079l-.033-.061-.1-.362-.045-.073-.042-.043-.03-.047-.013-.085.013-.073.057-.1.013-.057.04-.1.1-.04.127,0,.276.059.067.029.066.05.042.06.033.066.039.055.062.023.15-.019.091-.054.168-.2.032-.015.085-.028.017-.027.008-.029.04-.082.017-.025.063-.059.028-.018.08.011.06-.013.089-.063.049-.019.057.006.133.042.074,0,.068-.019.052-.034.189-.187.016-.056-.022-.139.057-.116.136-.036.159.011.125.03.147.057.084.06.14.175.036.079.017.123,0,.141-.029.133-.034.046-.044.023-.037.03-.015.066.027.062.122.079.048.066.044.025.044.039.018.072-.031.041-.059.038-.046.045.009.057.1.04h.44l.149-.033.261-.147.136-.043.813,0,.12.025.112.069.079-.044.118-.019.154-.005.04.018.087-.075.155-.177.213-.2.026-.074.034-.048.147-.078.033-.054.042-.2.107-.168.142-.126.146-.075.17-.054.062-.03.165-.112.2-.1.1-.031.2-.009.98.107.047.014.051.049.106.182.036.024.082.015h.09l.057-.019.017-.06-.012-.075,0-.075.04-.062.093.011.141.074.348.24.13,0,.247-.091.826-.063.133-.123.128.077.126-.009.125-.042.123-.026.141.036.183.156.11.036.125.021.279.1.12.02.463-.021.307-.126.265.038.264.111.2.138.187.216.212.313.154.322.014.244.109.039.538-.044.071-.026.036-.069.1-.386.049-.121.079-.1.053-.13-.034-.127-.016-.107.106-.07.09.028.252.165.116.039h.152l.131-.016.1-.052.072-.113.012-.067-.012-.23.019-.064.042-.045.042-.035.6-.907.035-.261Z" transform="translate(-134.485 -225.674)"/></g><g transform="translate(51.962)"><path class="a" d="M324.047,196.7h7.532v29.49h-7.532Z" transform="translate(-324.047 -196.695)"/><path class="a" d="M376.185,196.7h9.764c3.308,0,9.206,0,13.031,5.5a15.074,15.074,0,0,1,2.71,9.166c0,8.05-3.985,14.824-15.183,14.824H376.185Zm7.532,22.875h3.228c5.619,0,7.213-3.905,7.213-8.09a10.388,10.388,0,0,0-1.435-5.46c-.877-1.315-2.391-2.71-5.739-2.71h-3.268Z" transform="translate(-365.983 -196.695)"/><path class="a" d="M519.971,196.7h16.7v6.615H527.5v4.583h8.887v6.615H527.5v5.061h9.166v6.615h-16.7Z" transform="translate(-481.634 -196.695)"/><path class="a" d="M620.174,196.7h9.644c4.623,0,7.492.837,9.126,2.112a10.667,10.667,0,0,1,2.112,13.39,8.419,8.419,0,0,1-3.826,3.148l6.1,10.839h-7.771l-7.691-14.227H629.1a9.019,9.019,0,0,0,4.543-.8,4.4,4.4,0,0,0,1.674-3.626,4.015,4.015,0,0,0-1.753-3.427,6.178,6.178,0,0,0-3.068-.8h-2.789v22.874h-7.532Z" transform="translate(-562.23 -196.695)"/><path class="a" d="M745.836,196.7H755.6c3.308,0,9.205,0,13.031,5.5a15.073,15.073,0,0,1,2.71,9.166c0,8.05-3.985,14.824-15.183,14.824H745.836Zm7.532,22.875H756.6c5.619,0,7.213-3.905,7.213-8.09a10.389,10.389,0,0,0-1.434-5.46c-.877-1.315-2.391-2.71-5.739-2.71h-3.268Z" transform="translate(-663.303 -196.695)"/></g><g transform="translate(51.871 32.874)"><g transform="translate(0 0)"><path class="b" d="M323.782,368.014h.758v4.275h-.758Z" transform="translate(-323.743 -367.652)"/><path class="b" d="M332.848,374.7h.685v.465h.012a.983.983,0,0,1,.9-.549,1.053,1.053,0,0,1,1.064,1.172V377.6h-.722V376c0-.344-.078-.773-.541-.773a.708.708,0,0,0-.673.785V377.6h-.722Z" transform="translate(-331.035 -372.964)"/><path class="b" d="M349.652,368.482h-.547v-.58h.547v-.429c0-.694.271-1.31,1.167-1.31a1.272,1.272,0,0,1,.367.042l-.048.616a.954.954,0,0,0-.276-.042c-.415,0-.487.362-.487.652v.471h.667v.58h-.667V370.8h-.722Z" transform="translate(-344.111 -366.163)"/><path class="b" d="M361.858,374.7h.692v.483h.012a.935.935,0,0,1,.842-.568.808.808,0,0,1,.174.018v.664a.84.84,0,0,0-.222-.03.755.755,0,0,0-.776.779V377.6h-.722Z" transform="translate(-354.368 -372.964)"/><path class="b" d="M374.181,377.233h-.018a1.022,1.022,0,0,1-.9.441.961.961,0,0,1-1.082-.9c0-.863,1.082-.984,1.985-.984v-.073c0-.356-.3-.531-.662-.531a1.151,1.151,0,0,0-.788.332l-.373-.441a1.817,1.817,0,0,1,1.221-.459,1.125,1.125,0,0,1,1.287,1.22V377.6h-.674Zm-.012-.954h-.162c-.457,0-1.1.054-1.1.483,0,.278.259.362.505.362a.684.684,0,0,0,.758-.743Z" transform="translate(-362.674 -372.964)"/><path class="b" d="M392.772,376.382h-2.195a.8.8,0,0,0,.824.713.873.873,0,0,0,.764-.375l.481.386a1.433,1.433,0,0,1-1.239.58,1.453,1.453,0,0,1-1.551-1.516,1.476,1.476,0,0,1,1.527-1.552c.806,0,1.395.525,1.395,1.57C392.778,376.255,392.778,376.316,392.772,376.382Zm-.716-.519a.643.643,0,0,0-.679-.7.772.772,0,0,0-.8.7Z" transform="translate(-376.888 -372.964)"/><path class="b" d="M409.112,375.476a.816.816,0,0,0-.631-.314c-.228,0-.463.085-.463.314s.222.284.625.38c.427.1.932.3.932.863,0,.707-.571.966-1.2.966a1.624,1.624,0,0,1-1.185-.477l.475-.447a.939.939,0,0,0,.74.362c.211,0,.463-.085.463-.344,0-.242-.222-.314-.661-.417s-.854-.278-.854-.821c0-.646.577-.924,1.148-.924a1.393,1.393,0,0,1,1.082.441Z" transform="translate(-390.828 -372.964)"/><path class="b" d="M421.048,372.18v-.58h.505v-.839h.71v.839h.722v.58h-.722v1.347c0,.259.06.447.379.447a.751.751,0,0,0,.307-.06l.024.567a1.482,1.482,0,0,1-.481.079c-.764,0-.938-.471-.938-1.027V372.18Z" transform="translate(-401.976 -369.861)"/><path class="b" d="M434.2,374.7h.692v.483h.012a.935.935,0,0,1,.842-.568.811.811,0,0,1,.174.018v.664a.841.841,0,0,0-.222-.03.755.755,0,0,0-.776.779V377.6H434.2Z" transform="translate(-412.556 -372.964)"/><path class="b" d="M448.508,377.948h-.686v-.465h-.012a.982.982,0,0,1-.9.549,1.053,1.053,0,0,1-1.064-1.171V375.05h.721v1.606c0,.344.078.773.541.773a.708.708,0,0,0,.674-.785V375.05h.722Z" transform="translate(-421.925 -373.311)"/><path class="b" d="M465.723,375.507a.764.764,0,0,0-.6-.284.94.94,0,0,0,.024,1.86.806.806,0,0,0,.607-.26l.451.459a1.453,1.453,0,0,1-1.064.4,1.534,1.534,0,1,1-.018-3.067,1.439,1.439,0,0,1,1.088.453Z" transform="translate(-436.187 -372.964)"/><path class="b" d="M477.9,372.18v-.58h.505v-.839h.71v.839h.722v.58h-.722v1.347c0,.259.06.447.379.447a.75.75,0,0,0,.307-.06l.024.567a1.484,1.484,0,0,1-.481.079c-.764,0-.938-.471-.938-1.027V372.18Z" transform="translate(-447.706 -369.861)"/><path class="b" d="M493.592,377.948h-.686v-.465h-.012a.983.983,0,0,1-.9.549,1.053,1.053,0,0,1-1.064-1.171V375.05h.721v1.606c0,.344.078.773.541.773a.708.708,0,0,0,.674-.785V375.05h.721Z" transform="translate(-458.187 -373.311)"/><path class="b" d="M509.525,374.7h.692v.483h.012a.935.935,0,0,1,.842-.568.813.813,0,0,1,.174.018v.664a.842.842,0,0,0-.223-.03.755.755,0,0,0-.776.779V377.6h-.722Z" transform="translate(-473.141 -372.964)"/><path class="b" d="M521.849,377.233h-.018a1.022,1.022,0,0,1-.9.441.962.962,0,0,1-1.083-.9c0-.863,1.083-.984,1.984-.984v-.073c0-.356-.3-.531-.662-.531a1.151,1.151,0,0,0-.787.332l-.373-.441a1.817,1.817,0,0,1,1.221-.459,1.125,1.125,0,0,1,1.287,1.22V377.6h-.673Zm-.012-.954h-.163c-.457,0-1.1.054-1.1.483,0,.278.258.362.505.362a.684.684,0,0,0,.758-.743Z" transform="translate(-481.447 -372.964)"/><path class="b" d="M548.869,371.1h-.685v-.435h-.012a1.148,1.148,0,0,1-.992.519,1.539,1.539,0,0,1-.019-3.067,1.181,1.181,0,0,1,.968.453h.018v-2.035h.721Zm-1.545-.519a.889.889,0,0,0,.848-.93.9.9,0,0,0-.848-.942.855.855,0,0,0-.83.93A.865.865,0,0,0,547.324,370.579Z" transform="translate(-502.286 -366.461)"/><path class="b" d="M568.776,376.382h-2.2a.8.8,0,0,0,.824.713.872.872,0,0,0,.763-.375l.481.386a1.434,1.434,0,0,1-1.239.58,1.453,1.453,0,0,1-1.551-1.516,1.476,1.476,0,0,1,1.527-1.552,1.372,1.372,0,0,1,1.4,1.57C568.781,376.255,568.781,376.316,568.776,376.382Zm-.716-.519a.643.643,0,0,0-.679-.7.772.772,0,0,0-.8.7Z" transform="translate(-518.451 -372.964)"/><path class="b" d="M593.394,368.014H594.9a2.1,2.1,0,0,1,2.351,2.138,2.159,2.159,0,0,1-2.351,2.138h-1.509Zm1.389,3.611c.782,0,1.66-.32,1.66-1.473,0-1.226-.878-1.486-1.66-1.486h-.631v2.959Z" transform="translate(-540.599 -367.652)"/><path class="b" d="M618.225,377.233h-.018a1.022,1.022,0,0,1-.9.441.961.961,0,0,1-1.082-.9c0-.863,1.082-.984,1.984-.984v-.073c0-.356-.3-.531-.661-.531a1.151,1.151,0,0,0-.788.332l-.373-.441a1.816,1.816,0,0,1,1.22-.459,1.125,1.125,0,0,1,1.287,1.22V377.6h-.673Zm-.012-.954h-.162c-.457,0-1.1.054-1.1.483,0,.278.258.362.505.362a.683.683,0,0,0,.758-.743Z" transform="translate(-558.965 -372.964)"/><path class="b" d="M632.331,372.18v-.58h.505v-.839h.71v.839h.722v.58h-.722v1.347c0,.259.06.447.379.447a.75.75,0,0,0,.306-.06l.024.567a1.483,1.483,0,0,1-.481.079c-.764,0-.938-.471-.938-1.027V372.18Z" transform="translate(-571.917 -369.861)"/><path class="b" d="M646.194,374.619a1.5,1.5,0,0,1,1.57,1.522,1.569,1.569,0,0,1-3.139,0A1.5,1.5,0,0,1,646.194,374.619Zm0,2.464a.863.863,0,0,0,.836-.942.841.841,0,1,0-1.672,0A.862.862,0,0,0,646.194,377.083Z" transform="translate(-581.805 -372.964)"/><path class="b" d="M664.987,375.476a.816.816,0,0,0-.631-.314c-.229,0-.463.085-.463.314s.222.284.625.38c.427.1.932.3.932.863,0,.707-.571.966-1.2.966a1.624,1.624,0,0,1-1.185-.477l.475-.447a.939.939,0,0,0,.74.362c.211,0,.463-.085.463-.344,0-.242-.223-.314-.662-.417s-.854-.278-.854-.821c0-.646.577-.924,1.148-.924a1.393,1.393,0,0,1,1.082.441Z" transform="translate(-596.635 -372.964)"/><path class="b" d="M687.495,368.014h2.82v.664h-2.063v1.087h1.954v.64h-1.954v1.208h2.171v.676h-2.928Z" transform="translate(-616.286 -367.652)"/><path class="b" d="M706.814,375.476a.816.816,0,0,0-.631-.314c-.228,0-.463.085-.463.314s.222.284.625.38c.427.1.932.3.932.863,0,.707-.572.966-1.2.966a1.624,1.624,0,0,1-1.184-.477l.475-.447a.938.938,0,0,0,.74.362c.211,0,.463-.085.463-.344,0-.242-.223-.314-.662-.417s-.854-.278-.854-.821c0-.646.577-.924,1.148-.924a1.393,1.393,0,0,1,1.082.441Z" transform="translate(-630.278 -372.964)"/><path class="b" d="M721.561,374.7v.4h.018a1.14,1.14,0,0,1,1-.489,1.539,1.539,0,0,1-.018,3.067,1.129,1.129,0,0,1-.956-.471h-.012v1.836h-.721V374.7Zm.854.507a.9.9,0,0,0-.848.942.889.889,0,0,0,.848.93.865.865,0,0,0,.83-.942A.855.855,0,0,0,722.415,375.211Z" transform="translate(-643.131 -372.964)"/><path class="b" d="M741.859,377.233h-.018a1.022,1.022,0,0,1-.9.441.961.961,0,0,1-1.082-.9c0-.863,1.082-.984,1.984-.984v-.073c0-.356-.3-.531-.661-.531a1.151,1.151,0,0,0-.788.332l-.373-.441a1.818,1.818,0,0,1,1.221-.459,1.125,1.125,0,0,1,1.287,1.22V377.6h-.673Zm-.012-.954h-.162c-.457,0-1.1.054-1.1.483,0,.278.258.362.505.362a.683.683,0,0,0,.757-.743Z" transform="translate(-658.407 -372.964)"/><path class="b" d="M759.674,375.507a.763.763,0,0,0-.6-.284.94.94,0,0,0,.024,1.86.806.806,0,0,0,.607-.26l.451.459a1.454,1.454,0,0,1-1.064.4,1.534,1.534,0,1,1-.018-3.067,1.439,1.439,0,0,1,1.088.453Z" transform="translate(-672.62 -372.964)"/><path class="b" d="M773.971,367.8a.435.435,0,1,1-.457.435A.445.445,0,0,1,773.971,367.8Zm-.355,1.419h.722v2.9h-.722Z" transform="translate(-685.474 -367.478)"/><path class="b" d="M783.746,377.233h-.018a1.022,1.022,0,0,1-.9.441.961.961,0,0,1-1.083-.9c0-.863,1.083-.984,1.985-.984v-.073c0-.356-.3-.531-.662-.531a1.151,1.151,0,0,0-.788.332l-.373-.441a1.818,1.818,0,0,1,1.221-.459,1.125,1.125,0,0,1,1.287,1.22V377.6h-.674Zm-.012-.954h-.163c-.457,0-1.1.054-1.1.483,0,.278.258.362.505.362a.684.684,0,0,0,.758-.743Z" transform="translate(-692.098 -372.964)"/><path class="b" d="M800.343,366.533h.721V371.1h-.721Z" transform="translate(-707.053 -366.461)"/><path class="b" d="M811.156,376.382h-2.194a.8.8,0,0,0,.824.713.874.874,0,0,0,.764-.375l.481.386a1.433,1.433,0,0,1-1.239.58,1.453,1.453,0,0,1-1.552-1.516,1.476,1.476,0,0,1,1.528-1.552,1.372,1.372,0,0,1,1.395,1.57C811.163,376.255,811.163,376.316,811.156,376.382Zm-.715-.519a.643.643,0,0,0-.68-.7.771.771,0,0,0-.8.7Z" transform="translate(-713.405 -372.964)"/><path class="b" d="M827.5,375.476a.816.816,0,0,0-.631-.314c-.229,0-.463.085-.463.314s.222.284.625.38c.427.1.932.3.932.863,0,.707-.571.966-1.2.966a1.624,1.624,0,0,1-1.185-.477l.475-.447a.939.939,0,0,0,.739.362c.21,0,.463-.085.463-.344,0-.242-.222-.314-.661-.417s-.854-.278-.854-.821c0-.646.577-.924,1.149-.924a1.394,1.394,0,0,1,1.083.441Z" transform="translate(-727.347 -372.964)"/><path class="b" d="M326.69,400.39H326v-.435h-.012a1.147,1.147,0,0,1-.992.519,1.539,1.539,0,0,1-.018-3.068,1.18,1.18,0,0,1,.968.453h.018v-2.035h.722Zm-1.545-.519a.889.889,0,0,0,.848-.93.9.9,0,0,0-.848-.942.855.855,0,0,0-.83.93A.865.865,0,0,0,325.145,399.871Z" transform="translate(-323.581 -390.021)"/><path class="b" d="M346.6,405.673H344.4a.8.8,0,0,0,.824.712.873.873,0,0,0,.764-.375l.481.386a1.434,1.434,0,0,1-1.239.58,1.453,1.453,0,0,1-1.551-1.516,1.476,1.476,0,0,1,1.527-1.552,1.372,1.372,0,0,1,1.395,1.57C346.6,405.547,346.6,405.607,346.6,405.673Zm-.715-.52a.643.643,0,0,0-.68-.7.772.772,0,0,0-.8.7Z" transform="translate(-339.747 -396.524)"/><path class="b" d="M371.094,395.825h.721v4.565h-.721Z" transform="translate(-361.797 -390.021)"/><path class="b" d="M380.8,406.525h-.018a1.022,1.022,0,0,1-.9.441.961.961,0,0,1-1.082-.9c0-.863,1.082-.984,1.985-.984v-.073c0-.356-.3-.531-.661-.531a1.153,1.153,0,0,0-.788.332l-.373-.441a1.817,1.817,0,0,1,1.221-.459,1.125,1.125,0,0,1,1.287,1.22v1.763H380.8Zm-.012-.954h-.162c-.457,0-1.1.054-1.1.483,0,.278.258.362.505.362a.684.684,0,0,0,.758-.743Z" transform="translate(-368 -396.524)"/><path class="b" d="M405.79,397.307h1.479c.8,0,1.57.32,1.57,1.226a1.135,1.135,0,0,1-.974,1.154l1.137,1.9h-.914l-.986-1.811h-.553v1.811h-.758Zm1.377,1.841c.427,0,.914-.1.914-.622,0-.465-.457-.58-.848-.58h-.685v1.2Z" transform="translate(-389.704 -391.213)"/><path class="b" d="M427.206,405.673h-2.195a.8.8,0,0,0,.824.712.874.874,0,0,0,.764-.375l.481.386a1.433,1.433,0,0,1-1.239.58,1.453,1.453,0,0,1-1.552-1.516,1.476,1.476,0,0,1,1.527-1.552,1.372,1.372,0,0,1,1.4,1.57C427.213,405.547,427.213,405.607,427.206,405.673Zm-.715-.52a.643.643,0,0,0-.68-.7.772.772,0,0,0-.8.7Z" transform="translate(-404.584 -396.524)"/><path class="b" d="M444.066,403.995v.4h.018a1.141,1.141,0,0,1,1-.489,1.539,1.539,0,0,1-.018,3.068,1.129,1.129,0,0,1-.956-.471H444.1v1.835h-.722v-4.348Zm.854.507a.9.9,0,0,0-.848.942.889.889,0,0,0,.848.93.865.865,0,0,0,.83-.942A.855.855,0,0,0,444.92,404.5Z" transform="translate(-419.934 -396.524)"/><path class="b" d="M465.948,401.582h-.685v-.465h-.012a.982.982,0,0,1-.9.549,1.053,1.053,0,0,1-1.064-1.171v-1.812h.722v1.606c0,.344.078.773.541.773a.708.708,0,0,0,.674-.785v-1.594h.721Zm-1.118-4.275h.818l-.848.869h-.565Z" transform="translate(-435.953 -391.213)"/><path class="b" d="M482.666,395.825v2.035h.018a1.179,1.179,0,0,1,.968-.453,1.539,1.539,0,0,1-.018,3.068,1.147,1.147,0,0,1-.992-.519h-.012v.435h-.685v-4.565Zm.824,2.174a.9.9,0,0,0-.848.942.889.889,0,0,0,.848.93.865.865,0,0,0,.83-.942A.855.855,0,0,0,483.489,398Z" transform="translate(-450.956 -390.021)"/><path class="b" d="M502.044,395.825h.721v4.565h-.721Z" transform="translate(-467.123 -390.021)"/><path class="b" d="M510.8,397.09a.435.435,0,1,1-.457.435A.445.445,0,0,1,510.8,397.09Zm-.355,1.419h.721v2.9h-.721Z" transform="translate(-473.796 -391.038)"/><path class="b" d="M520.9,404.8a.765.765,0,0,0-.6-.284.94.94,0,0,0,.024,1.86.806.806,0,0,0,.607-.26l.451.459a1.452,1.452,0,0,1-1.064.4,1.534,1.534,0,1,1-.018-3.068,1.439,1.439,0,0,1,1.088.453Z" transform="translate(-480.569 -396.524)"/><path class="b" d="M536.153,406.525h-.018a1.023,1.023,0,0,1-.9.441.961.961,0,0,1-1.082-.9c0-.863,1.082-.984,1.984-.984v-.073c0-.356-.3-.531-.661-.531a1.152,1.152,0,0,0-.788.332l-.373-.441a1.815,1.815,0,0,1,1.22-.459,1.125,1.125,0,0,1,1.287,1.22v1.763h-.673Zm-.012-.954h-.162c-.457,0-1.1.054-1.1.483,0,.278.259.362.505.362a.683.683,0,0,0,.758-.743Z" transform="translate(-492.952 -396.524)"/><path class="b" d="M561.14,397.307h1.509A2.1,2.1,0,0,1,565,399.445a2.159,2.159,0,0,1-2.351,2.138H561.14Zm1.389,3.611c.782,0,1.66-.32,1.66-1.473,0-1.226-.878-1.486-1.66-1.486H561.9v2.959Z" transform="translate(-514.656 -391.213)"/><path class="b" d="M585.728,403.91a1.5,1.5,0,0,1,1.569,1.522,1.57,1.57,0,0,1-3.139,0A1.5,1.5,0,0,1,585.728,403.91Zm0,2.464a.863.863,0,0,0,.836-.942.841.841,0,1,0-1.672,0A.863.863,0,0,0,585.728,406.374Z" transform="translate(-533.17 -396.524)"/><path class="b" d="M608.859,405.082v1.811h-.721v-1.606c0-.344-.078-.773-.542-.773s-.637.423-.637.8v1.582h-.721v-1.751c0-.356-.169-.628-.535-.628-.433,0-.632.4-.632.785v1.594h-.721v-2.9h.685v.465h.012a1.01,1.01,0,0,1,1.8,0,1.027,1.027,0,0,1,.95-.549A1.053,1.053,0,0,1,608.859,405.082Z" transform="translate(-549.411 -396.524)"/><path class="b" d="M632.281,397.09a.435.435,0,1,1-.457.435A.445.445,0,0,1,632.281,397.09Zm-.355,1.419h.721v2.9h-.721Z" transform="translate(-571.509 -391.038)"/><path class="b" d="M641.1,403.995h.686v.465h.012a.982.982,0,0,1,.9-.549,1.053,1.053,0,0,1,1.064,1.172v1.811h-.721v-1.606c0-.344-.078-.773-.541-.773a.708.708,0,0,0-.674.785v1.594H641.1Z" transform="translate(-578.974 -396.524)"/><path class="b" d="M659.57,397.09a.435.435,0,1,1-.457.435A.445.445,0,0,1,659.57,397.09Zm-.355,1.419h.721v2.9h-.721Z" transform="translate(-593.458 -391.038)"/><path class="b" d="M669.675,404.8a.765.765,0,0,0-.6-.284.94.94,0,0,0,.024,1.86.806.806,0,0,0,.607-.26l.451.459a1.453,1.453,0,0,1-1.064.4,1.534,1.534,0,1,1-.018-3.068,1.438,1.438,0,0,1,1.088.453Z" transform="translate(-600.231 -396.524)"/><path class="b" d="M684.927,406.525h-.018a1.022,1.022,0,0,1-.9.441.961.961,0,0,1-1.082-.9c0-.863,1.082-.984,1.984-.984v-.073c0-.356-.3-.531-.662-.531a1.151,1.151,0,0,0-.787.332l-.373-.441a1.816,1.816,0,0,1,1.22-.459,1.125,1.125,0,0,1,1.287,1.22v1.763h-.673Zm-.012-.954h-.163c-.457,0-1.1.054-1.1.483,0,.278.258.362.505.362a.684.684,0,0,0,.758-.743Z" transform="translate(-612.616 -396.524)"/><path class="b" d="M701.463,403.995h.685v.465h.012a.983.983,0,0,1,.9-.549,1.053,1.053,0,0,1,1.064,1.172v1.811H703.4v-1.606c0-.344-.078-.773-.541-.773a.708.708,0,0,0-.674.785v1.594h-.721Z" transform="translate(-627.521 -396.524)"/><path class="b" d="M720.883,406.525h-.018a1.022,1.022,0,0,1-.9.441.961.961,0,0,1-1.082-.9c0-.863,1.082-.984,1.984-.984v-.073c0-.356-.3-.531-.661-.531a1.152,1.152,0,0,0-.788.332l-.373-.441a1.817,1.817,0,0,1,1.22-.459,1.125,1.125,0,0,1,1.287,1.22v1.763h-.673Zm-.012-.954h-.163c-.457,0-1.1.054-1.1.483,0,.278.258.362.5.362a.684.684,0,0,0,.758-.743Z" transform="translate(-641.536 -396.524)"/></g></g></svg>