<?xml version="1.0" encoding="UTF-8" standalone="no"?><!DOCTYPE svg PUBLIC "-//W3C//DTD SVG 1.1//EN" "http://www.w3.org/Graphics/SVG/1.1/DTD/svg11.dtd"><svg width="100%" height="100%" viewBox="0 0 4388 3810" version="1.1" xmlns="http://www.w3.org/2000/svg" xmlns:xlink="http://www.w3.org/1999/xlink" xml:space="preserve" xmlns:serif="http://www.serif.com/" style="fill-rule:evenodd;clip-rule:evenodd;stroke-linejoin:round;stroke-miterlimit:2;"><g><g transform="matrix(1.915587,0,0,1.915587,1538.836485,-2699.188717)"><g transform="matrix(171.333809,0,0,171.333809,-685.281911,3189.426419)"><path d="M0.05,-0l0.274,-0c0.002,-0 0.005,-0.003 0.007,-0.009c0.002,-0.006 0.003,-0.012 0.003,-0.018c0,-0.006 -0.001,-0.009 -0.004,-0.009c-0.026,-0.003 -0.046,-0.011 -0.061,-0.023c-0.015,-0.012 -0.022,-0.034 -0.022,-0.066l0,-0.452c0,-0.032 0.007,-0.054 0.022,-0.066c0.015,-0.012 0.035,-0.02 0.061,-0.023c0.002,0 0.004,-0.003 0.004,-0.009c0,-0.006 -0.001,-0.012 -0.003,-0.018c-0.002,-0.006 -0.004,-0.009 -0.007,-0.009l-0.274,0c-0.002,0 -0.005,0.003 -0.007,0.009c-0.002,0.006 -0.003,0.012 -0.003,0.018c0,0.006 0.001,0.009 0.004,0.009c0.027,0.004 0.048,0.012 0.062,0.025c0.014,0.013 0.021,0.035 0.021,0.064l0,0.452c0,0.03 -0.007,0.051 -0.021,0.064c-0.014,0.013 -0.035,0.021 -0.062,0.025c-0.002,0 -0.004,0.003 -0.004,0.009c0,0.006 0.001,0.012 0.003,0.018c0.002,0.006 0.004,0.009 0.007,0.009l0,-0.001Z" style="fill:#ee2a24;fill-rule:nonzero;"/></g><g transform="matrix(171.333809,0,0,171.333809,-624.709386,3189.426419)"><path d="M0.703,0.01c0.009,0 0.017,-0.001 0.022,-0.004c0.005,-0.003 0.007,-0.008 0.005,-0.014c-0.008,-0.03 -0.012,-0.088 -0.012,-0.176l0,-0.389c0,-0.017 0.002,-0.03 0.005,-0.041c0.003,-0.011 0.01,-0.02 0.02,-0.026c0.01,-0.007 0.018,-0.011 0.023,-0.014c0.006,-0.002 0.017,-0.006 0.033,-0.01c0.004,-0.001 0.005,-0.007 0.003,-0.018c-0.002,-0.011 -0.005,-0.016 -0.009,-0.016l-0.237,0c-0.005,0 -0.008,0.005 -0.01,0.016c-0.001,0.011 -0,0.017 0.003,0.018c0.019,0.004 0.031,0.008 0.038,0.01c0.007,0.002 0.016,0.007 0.028,0.014c0.012,0.007 0.02,0.016 0.024,0.026c0.004,0.011 0.006,0.024 0.006,0.041l0,0.376l-0.466,-0.493c-0.005,-0.006 -0.013,-0.009 -0.024,-0.009l-0.074,0c-0.006,0 -0.011,0.002 -0.015,0.007c-0.003,0.005 -0.005,0.01 -0.005,0.015c0,0.001 0,0.002 0.001,0.003c0.001,0.001 0.002,0.003 0.004,0.005c0.002,0.002 0.004,0.004 0.006,0.007c0.002,0.003 0.004,0.006 0.006,0.008c0.025,0.033 0.037,0.08 0.037,0.14l0,0.388c0,0.029 -0.007,0.051 -0.022,0.065c-0.009,0.008 -0.029,0.017 -0.06,0.028c-0.004,0.001 -0.006,0.007 -0.004,0.018c0.002,0.011 0.005,0.016 0.009,0.016l0.237,0c0.005,0 0.008,-0.005 0.01,-0.016c0.001,-0.011 0,-0.017 -0.003,-0.018c-0.018,-0.004 -0.032,-0.008 -0.041,-0.011c-0.009,-0.003 -0.018,-0.008 -0.028,-0.015c-0.01,-0.007 -0.018,-0.016 -0.022,-0.026c-0.004,-0.011 -0.007,-0.024 -0.007,-0.041l0,-0.38l0.476,0.498c0.011,0.012 0.023,0.019 0.037,0.019l0.002,-0Z" style="fill:#ee2a24;fill-rule:nonzero;"/></g><g transform="matrix(171.333809,0,0,171.333809,-483.405843,3189.426419)"><path d="M0.035,0.002c0.037,-0.004 0.089,-0.006 0.157,-0.006c0.027,0 0.061,0.001 0.102,0.003c0.041,0.002 0.068,0.003 0.083,0.003c0.078,0 0.146,-0.018 0.204,-0.053c0.058,-0.035 0.101,-0.08 0.129,-0.135c0.028,-0.055 0.042,-0.115 0.042,-0.18c0,-0.099 -0.033,-0.18 -0.098,-0.243c-0.065,-0.062 -0.157,-0.094 -0.275,-0.094c-0.015,0 -0.044,0.001 -0.089,0.003c-0.045,0.002 -0.082,0.003 -0.109,0.003c-0.051,-0 -0.092,-0.002 -0.125,-0.006c-0.004,-0 -0.007,0.005 -0.009,0.016c-0.001,0.011 -0,0.017 0.003,0.018c0.027,0.006 0.047,0.016 0.062,0.029c0.015,0.013 0.022,0.034 0.022,0.063l0,0.444c0,0.018 -0.002,0.033 -0.006,0.044c-0.004,0.011 -0.013,0.021 -0.025,0.027c-0.012,0.007 -0.022,0.012 -0.031,0.014c-0.008,0.002 -0.022,0.006 -0.042,0.012c-0.004,0.001 -0.005,0.008 -0.003,0.02c0.002,0.012 0.005,0.017 0.009,0.017l0.001,0.001Zm0.35,-0.054c-0.047,0 -0.082,-0.007 -0.103,-0.02c-0.021,-0.013 -0.032,-0.034 -0.032,-0.061l0,-0.444c0,-0.026 0.007,-0.044 0.021,-0.056c0.014,-0.011 0.039,-0.017 0.073,-0.017c0.087,0 0.156,0.032 0.207,0.097c0.051,0.064 0.076,0.146 0.076,0.245c0,0.171 -0.081,0.257 -0.243,0.257l0,-0.001Z" style="fill:#ee2a24;fill-rule:nonzero;"/></g><g transform="matrix(171.333809,0,0,171.333809,-349.798936,3189.426419)"><path d="M0.419,0.016c0.083,0 0.149,-0.024 0.201,-0.073c0.051,-0.048 0.077,-0.117 0.077,-0.207l0,-0.313c0,-0.032 0.007,-0.054 0.021,-0.066c0.014,-0.012 0.034,-0.02 0.059,-0.023c0.002,0 0.004,-0.003 0.004,-0.009c0,-0.006 -0.001,-0.012 -0.003,-0.018c-0.002,-0.006 -0.004,-0.009 -0.006,-0.009l-0.225,0c-0.002,0 -0.004,0.003 -0.006,0.009c-0.001,0.006 -0.002,0.012 -0.002,0.018c0,0.006 0.001,0.009 0.003,0.009c0.028,0.004 0.049,0.012 0.064,0.025c0.015,0.013 0.022,0.035 0.022,0.064l0,0.319c0,0.066 -0.019,0.117 -0.055,0.152c-0.037,0.035 -0.083,0.053 -0.141,0.053c-0.056,0 -0.102,-0.017 -0.136,-0.052c-0.034,-0.035 -0.051,-0.085 -0.051,-0.153l0,-0.319c0,-0.032 0.007,-0.054 0.021,-0.066c0.014,-0.012 0.034,-0.02 0.059,-0.023c0.002,0 0.004,-0.003 0.004,-0.009c0,-0.006 -0.001,-0.012 -0.003,-0.018c-0.002,-0.006 -0.004,-0.009 -0.007,-0.009l-0.273,0c-0.002,0 -0.005,0.003 -0.007,0.009c-0.002,0.006 -0.003,0.012 -0.003,0.018c0,0.006 0.001,0.009 0.004,0.009c0.027,0.003 0.047,0.012 0.061,0.025c0.014,0.013 0.021,0.035 0.021,0.064l0,0.314c0,0.049 0.009,0.092 0.026,0.129c0.018,0.037 0.041,0.066 0.07,0.087c0.029,0.021 0.061,0.037 0.095,0.047c0.034,0.01 0.069,0.016 0.107,0.016l0,-0.001Z" style="fill:#ee2a24;fill-rule:nonzero;"/></g><g transform="matrix(171.333809,0,0,171.333809,-216.02471,3189.426419)"><path d="M0.256,0.016c0.069,0 0.129,-0.021 0.18,-0.062c0.051,-0.042 0.077,-0.093 0.077,-0.154c0,-0.035 -0.011,-0.065 -0.034,-0.092c-0.022,-0.027 -0.061,-0.057 -0.116,-0.091l-0.105,-0.065c-0.035,-0.021 -0.06,-0.04 -0.073,-0.055c-0.014,-0.016 -0.021,-0.034 -0.021,-0.056c0,-0.027 0.009,-0.049 0.028,-0.065c0.019,-0.016 0.045,-0.024 0.08,-0.024c0.025,0 0.048,0.004 0.069,0.013c0.021,0.009 0.038,0.018 0.05,0.028c0.012,0.01 0.022,0.019 0.032,0.025c0.01,0.007 0.018,0.008 0.024,0.004c0.006,-0.004 0.012,-0.015 0.018,-0.034l0.012,-0.038c0.003,-0.011 -0.003,-0.021 -0.02,-0.032c-0.017,-0.011 -0.038,-0.019 -0.064,-0.025c-0.026,-0.006 -0.052,-0.009 -0.078,-0.009c-0.064,0 -0.121,0.02 -0.17,0.06c-0.049,0.04 -0.074,0.089 -0.074,0.148c0,0.036 0.011,0.066 0.034,0.092c0.022,0.025 0.062,0.056 0.119,0.092l0.097,0.061c0.04,0.025 0.067,0.044 0.081,0.058c0.014,0.014 0.021,0.032 0.021,0.054c0,0.03 -0.011,0.054 -0.032,0.072c-0.021,0.018 -0.053,0.027 -0.093,0.027c-0.03,0 -0.058,-0.005 -0.083,-0.015c-0.026,-0.01 -0.046,-0.021 -0.06,-0.033c-0.014,-0.012 -0.027,-0.021 -0.038,-0.03c-0.011,-0.008 -0.021,-0.011 -0.027,-0.007c-0.007,0.004 -0.013,0.016 -0.018,0.036l-0.01,0.037c-0.004,0.014 0.005,0.027 0.026,0.04c0.021,0.013 0.048,0.022 0.079,0.029c0.031,0.007 0.061,0.01 0.089,0.01l0.002,0Z" style="fill:#ee2a24;fill-rule:nonzero;"/></g><g transform="matrix(171.333809,0,0,171.333809,-124.665641,3189.426419)"><path d="M0.189,-0l0.34,-0c0.003,-0 0.005,-0.003 0.008,-0.009c0.002,-0.006 0.003,-0.011 0.003,-0.016c0,-0.005 -0.001,-0.008 -0.004,-0.009c-0.04,-0.005 -0.069,-0.013 -0.087,-0.023c-0.019,-0.01 -0.028,-0.028 -0.028,-0.053l0,-0.493c0,-0.022 0.013,-0.033 0.039,-0.033l0.031,0c0.083,0 0.129,0.022 0.14,0.066c0.002,0.008 0.008,0.013 0.018,0.013c0.01,0 0.015,-0.004 0.017,-0.013c0.005,-0.032 0.016,-0.072 0.031,-0.12c0.003,-0.009 0.001,-0.014 -0.004,-0.016c-0.005,-0.001 -0.014,-0.001 -0.025,0c-0.045,0.004 -0.146,0.007 -0.305,0.007c-0.143,0 -0.235,-0.002 -0.278,-0.007c-0.011,-0.001 -0.019,-0.001 -0.023,0c-0.004,0.001 -0.007,0.007 -0.007,0.016c-0.004,0.034 -0.012,0.074 -0.023,0.12c-0.002,0.007 0.002,0.012 0.011,0.014c0.013,0.002 0.022,-0.002 0.028,-0.013c0.02,-0.043 0.076,-0.065 0.168,-0.065l0.027,0c0.012,0 0.021,0.002 0.025,0.007c0.005,0.005 0.007,0.014 0.007,0.026l0,0.493c0,0.025 -0.009,0.043 -0.028,0.054c-0.019,0.01 -0.047,0.018 -0.087,0.023c-0.002,0.001 -0.004,0.004 -0.004,0.009c0,0.004 0.001,0.01 0.003,0.016c0.002,0.006 0.005,0.009 0.007,0.009l-0.001,-0Z" style="fill:#ee2a24;fill-rule:nonzero;"/></g><g transform="matrix(171.333809,0,0,171.333809,-3.607597,3189.426419)"><path d="M0.775,-0.025c-0.029,0 -0.057,-0.017 -0.083,-0.05l-0.149,-0.187c-0.022,-0.027 -0.042,-0.046 -0.058,-0.056c-0.017,-0.01 -0.035,-0.015 -0.055,-0.015l0,-0.005c0.047,-0.002 0.089,-0.019 0.125,-0.05c0.036,-0.031 0.053,-0.074 0.053,-0.128c0,-0.06 -0.022,-0.106 -0.068,-0.138c-0.045,-0.032 -0.107,-0.047 -0.185,-0.047c-0.014,0 -0.043,0.001 -0.086,0.003c-0.043,0.002 -0.079,0.003 -0.105,0.003c-0.045,-0 -0.084,-0.002 -0.115,-0.006c-0.004,-0 -0.007,0.005 -0.009,0.016c-0.001,0.011 -0,0.018 0.003,0.019c0.027,0.007 0.048,0.018 0.062,0.032c0.014,0.014 0.021,0.036 0.021,0.067l0,0.446c0,0.03 -0.007,0.051 -0.021,0.064c-0.014,0.013 -0.035,0.021 -0.062,0.025c-0.002,0 -0.004,0.003 -0.004,0.009c0,0.006 0.001,0.012 0.003,0.018c0.002,0.006 0.004,0.009 0.007,0.009l0.303,0c0.002,0 0.004,-0.003 0.006,-0.009c0.001,-0.006 0.002,-0.012 0.002,-0.018c0,-0.006 -0.001,-0.009 -0.003,-0.009c-0.038,-0.004 -0.066,-0.013 -0.084,-0.024c-0.018,-0.012 -0.027,-0.034 -0.027,-0.065l0,-0.194c0.04,0 0.072,0.005 0.097,0.013c0.025,0.008 0.047,0.025 0.067,0.051l0.154,0.198c0.019,0.024 0.041,0.042 0.067,0.054c0.026,0.012 0.05,0.018 0.074,0.016c0.023,-0.001 0.046,-0.005 0.069,-0.011c0.003,-0.001 0.005,-0.006 0.006,-0.015c0,-0.009 -0.001,-0.013 -0.005,-0.013l0.001,-0.002Zm-0.5,-0.337l-0.029,0l0,-0.206c0,-0.029 0.006,-0.049 0.018,-0.062c0.012,-0.012 0.032,-0.019 0.061,-0.019c0.046,0 0.084,0.014 0.113,0.041c0.029,0.027 0.043,0.067 0.043,0.118c0,0.049 -0.015,0.082 -0.045,0.1c-0.03,0.018 -0.084,0.026 -0.161,0.026l0,0.001Z" style="fill:#ee2a24;fill-rule:nonzero;"/></g><g transform="matrix(171.333809,0,0,171.333809,129.16272,3189.426419)"><path d="M0.05,-0l0.274,-0c0.002,-0 0.005,-0.003 0.007,-0.009c0.002,-0.006 0.003,-0.012 0.003,-0.018c0,-0.006 -0.001,-0.009 -0.004,-0.009c-0.026,-0.003 -0.046,-0.011 -0.061,-0.023c-0.015,-0.012 -0.022,-0.034 -0.022,-0.066l0,-0.452c0,-0.032 0.007,-0.054 0.022,-0.066c0.015,-0.012 0.035,-0.02 0.061,-0.023c0.002,0 0.004,-0.003 0.004,-0.009c0,-0.006 -0.001,-0.012 -0.003,-0.018c-0.002,-0.006 -0.004,-0.009 -0.007,-0.009l-0.274,0c-0.002,0 -0.005,0.003 -0.007,0.009c-0.002,0.006 -0.003,0.012 -0.003,0.018c0,0.006 0.001,0.009 0.004,0.009c0.027,0.004 0.048,0.012 0.062,0.025c0.014,0.013 0.021,0.035 0.021,0.064l0,0.452c0,0.03 -0.007,0.051 -0.021,0.064c-0.014,0.013 -0.035,0.021 -0.062,0.025c-0.002,0 -0.004,0.003 -0.004,0.009c0,0.006 0.001,0.012 0.003,0.018c0.002,0.006 0.004,0.009 0.007,0.009l0,-0.001Z" style="fill:#ee2a24;fill-rule:nonzero;"/></g><g transform="matrix(171.333809,0,0,171.333809,189.735245,3189.426419)"><path d="M0.772,-0.034c-0.021,-0.003 -0.039,-0.012 -0.053,-0.026c-0.014,-0.014 -0.03,-0.041 -0.047,-0.081l-0.244,-0.569c-0.001,-0.003 -0.014,-0.002 -0.038,0.002c-0.023,0.005 -0.035,0.009 -0.035,0.013c0,0.035 -0.017,0.09 -0.051,0.167l-0.169,0.388c-0.017,0.04 -0.033,0.067 -0.046,0.08c-0.014,0.013 -0.032,0.022 -0.055,0.026c-0.006,0.001 -0.009,0.007 -0.008,0.018c0.001,0.011 0.004,0.016 0.01,0.016l0.216,0c0.007,0 0.011,-0.005 0.012,-0.016c0.001,-0.011 -0.002,-0.017 -0.008,-0.018c-0.014,-0.002 -0.025,-0.004 -0.034,-0.007c-0.008,-0.003 -0.016,-0.008 -0.022,-0.015c-0.007,-0.007 -0.01,-0.018 -0.009,-0.032c0,-0.014 0.005,-0.031 0.014,-0.051l0.01,-0.025c0.005,-0.011 0.011,-0.019 0.02,-0.021c0.008,-0.003 0.021,-0.004 0.037,-0.004l0.204,0c0.017,0 0.029,0.001 0.038,0.004c0.008,0.003 0.015,0.01 0.019,0.021l0.011,0.025c0.009,0.021 0.014,0.038 0.015,0.052c0.001,0.014 -0.001,0.024 -0.007,0.032c-0.006,0.007 -0.013,0.013 -0.02,0.016c-0.007,0.003 -0.016,0.005 -0.027,0.007c-0.005,0.001 -0.008,0.007 -0.007,0.018c0,0.011 0.004,0.016 0.01,0.016l0.264,0c0.006,0 0.009,-0.005 0.01,-0.016c0.001,-0.011 -0.002,-0.017 -0.008,-0.018l0,-0Zm-0.305,-0.212l-0.189,0c-0.008,0 -0.015,-0.001 -0.02,-0.003c-0.005,-0.002 -0.006,-0.006 -0.003,-0.012l0.118,-0.28l0.117,0.28c0.002,0.005 0.001,0.008 -0.001,0.011c-0.002,0.002 -0.005,0.004 -0.009,0.004c-0.004,0 -0.008,0.001 -0.014,0.001l0.001,-0Z" style="fill:#ee2a24;fill-rule:nonzero;"/></g><g transform="matrix(171.333809,0,0,171.333809,324.346061,3189.426419)"><path d="M0.065,0.16c0.042,-0.028 0.079,-0.063 0.108,-0.106c0.029,-0.043 0.044,-0.082 0.044,-0.118c0,-0.013 -0.01,-0.029 -0.029,-0.049c-0.019,-0.02 -0.034,-0.029 -0.045,-0.029c-0.011,0 -0.027,0.01 -0.048,0.029c-0.021,0.019 -0.031,0.035 -0.031,0.048c0,0.009 0.01,0.02 0.029,0.033c0.02,0.013 0.029,0.024 0.029,0.032c0,0.02 -0.009,0.044 -0.027,0.072c-0.018,0.028 -0.038,0.05 -0.059,0.067c-0.004,0.003 -0.002,0.008 0.004,0.014c0.01,0.009 0.018,0.011 0.024,0.007l0,-0Z" style="fill:#ee2a24;fill-rule:nonzero;"/></g><g transform="matrix(171.333809,0,0,171.333809,397.470795,3189.426419)"><path d="M0.45,0.016c0.02,0 0.055,-0.012 0.104,-0.037c0.05,-0.025 0.084,-0.051 0.104,-0.079c0.002,-0.004 0,-0.011 -0.007,-0.019c-0.007,-0.008 -0.013,-0.01 -0.017,-0.008c-0.022,0.015 -0.051,0.026 -0.086,0.035c-0.035,0.008 -0.06,0.013 -0.075,0.013c-0.036,0 -0.072,-0.006 -0.107,-0.019c-0.035,-0.013 -0.068,-0.031 -0.099,-0.056c-0.031,-0.024 -0.056,-0.058 -0.075,-0.1c-0.019,-0.042 -0.029,-0.091 -0.029,-0.145c0,-0.074 0.018,-0.132 0.054,-0.174c0.036,-0.042 0.089,-0.063 0.159,-0.063c0.032,0 0.062,0.004 0.09,0.014c0.028,0.009 0.05,0.019 0.065,0.028c0.015,0.01 0.029,0.018 0.042,0.024c0.013,0.006 0.024,0.007 0.032,0.002c0.008,-0.005 0.015,-0.018 0.021,-0.038l0.013,-0.039c0.004,-0.011 -0.003,-0.022 -0.021,-0.033c-0.018,-0.011 -0.043,-0.02 -0.077,-0.026c-0.033,-0.007 -0.069,-0.01 -0.107,-0.01c-0.067,0 -0.126,0.012 -0.178,0.035c-0.052,0.023 -0.092,0.053 -0.122,0.091c-0.029,0.038 -0.051,0.078 -0.065,0.121c-0.014,0.043 -0.021,0.087 -0.021,0.133c0,0.048 0.008,0.093 0.025,0.133c0.017,0.041 0.039,0.074 0.065,0.101c0.027,0.026 0.058,0.049 0.093,0.067c0.035,0.019 0.07,0.032 0.105,0.04c0.035,0.008 0.07,0.012 0.106,0.012l0.005,-0.001Z" style="fill:#ee2a24;fill-rule:nonzero;"/></g><g transform="matrix(171.333809,0,0,171.333809,515.517113,3189.426419)"><path d="M0.416,0.016c0.107,0 0.195,-0.036 0.262,-0.107c0.067,-0.072 0.101,-0.16 0.101,-0.264c0,-0.104 -0.034,-0.19 -0.102,-0.258c-0.068,-0.068 -0.154,-0.103 -0.259,-0.103c-0.107,0 -0.195,0.036 -0.262,0.107c-0.067,0.072 -0.101,0.159 -0.101,0.262c0,0.104 0.034,0.19 0.103,0.259c0.068,0.069 0.154,0.103 0.258,0.103l0,0Zm0.039,-0.068c-0.074,0 -0.139,-0.034 -0.196,-0.101c-0.057,-0.067 -0.085,-0.15 -0.085,-0.249c0,-0.045 0.006,-0.084 0.019,-0.117c0.013,-0.033 0.029,-0.059 0.05,-0.077c0.021,-0.018 0.042,-0.031 0.065,-0.04c0.022,-0.008 0.045,-0.012 0.069,-0.012c0.074,0 0.14,0.034 0.196,0.101c0.057,0.067 0.085,0.15 0.085,0.249c0,0.044 -0.006,0.083 -0.019,0.117c-0.013,0.034 -0.03,0.06 -0.051,0.078c-0.021,0.018 -0.043,0.031 -0.066,0.04c-0.022,0.008 -0.046,0.013 -0.07,0.013l0.002,-0.001Z" style="fill:#ee2a24;fill-rule:nonzero;"/></g><g transform="matrix(171.333809,0,0,171.333809,654.143565,3189.426419)"><path d="M0.931,-0.034c-0.025,-0.002 -0.044,-0.01 -0.059,-0.023c-0.014,-0.013 -0.022,-0.035 -0.024,-0.067l-0.032,-0.574c-0,-0.008 -0.008,-0.013 -0.022,-0.013c-0.014,0 -0.023,0.004 -0.028,0.013l-0.269,0.542l-0.29,-0.542c-0.005,-0.008 -0.015,-0.013 -0.028,-0.013c-0.013,0 -0.02,0.004 -0.021,0.013l-0.032,0.574c-0.002,0.032 -0.01,0.054 -0.024,0.067c-0.014,0.013 -0.034,0.021 -0.059,0.023c-0.002,0 -0.004,0.003 -0.004,0.009c0,0.006 0.001,0.012 0.003,0.018c0.002,0.006 0.004,0.009 0.007,0.009l0.207,0c0.002,0 0.004,-0.003 0.006,-0.009c0.002,-0.006 0.003,-0.012 0.003,-0.018c0,-0.006 -0.001,-0.009 -0.004,-0.009c-0.049,-0.006 -0.072,-0.036 -0.07,-0.09l0.015,-0.341l0.231,0.438c0.006,0.012 0.017,0.018 0.031,0.018c0.024,0 0.037,-0.006 0.039,-0.018c0.004,-0.023 0.017,-0.057 0.04,-0.103l0.162,-0.33l0.019,0.336c0.003,0.052 -0.021,0.082 -0.07,0.09c-0.002,0.001 -0.003,0.005 -0.003,0.01c0,0.005 0.001,0.01 0.003,0.016c0.002,0.006 0.004,0.009 0.006,0.009l0.261,0c0.002,0 0.004,-0.003 0.006,-0.009c0.002,-0.006 0.003,-0.012 0.003,-0.018c0,-0.006 -0.001,-0.009 -0.004,-0.009l0.001,-0Z" style="fill:#ee2a24;fill-rule:nonzero;"/></g><g transform="matrix(171.333809,0,0,171.333809,817.700425,3189.426419)"><path d="M0.035,0.002c0.041,-0.004 0.138,-0.006 0.292,-0.006c0.055,0 0.12,0.002 0.195,0.006c0.029,0 0.054,-0.018 0.075,-0.053c0.021,-0.036 0.031,-0.068 0.031,-0.098c0,-0.008 -0.005,-0.014 -0.015,-0.016c-0.01,-0.002 -0.016,-0.001 -0.02,0.005c-0.045,0.071 -0.124,0.107 -0.235,0.107c-0.041,0 -0.068,-0.006 -0.083,-0.018c-0.015,-0.012 -0.023,-0.032 -0.023,-0.061l0,-0.168c0,-0.012 0.002,-0.021 0.008,-0.025c0.005,-0.004 0.014,-0.006 0.025,-0.006l0.014,0c0.067,0 0.111,0.015 0.132,0.045c0.006,0.008 0.012,0.012 0.018,0.012c0.006,0 0.011,-0.004 0.015,-0.013l0.057,-0.126c0.004,-0.009 0.002,-0.015 -0.004,-0.018c-0.007,-0.002 -0.013,-0.001 -0.019,0.004c-0.033,0.03 -0.097,0.045 -0.192,0.045l-0.022,0c-0.011,0 -0.02,-0.002 -0.025,-0.006c-0.005,-0.004 -0.008,-0.013 -0.008,-0.025l0,-0.163c0,-0.026 0.007,-0.044 0.021,-0.054c0.014,-0.01 0.038,-0.016 0.072,-0.016c0.059,0 0.1,0.006 0.123,0.019c0.023,0.012 0.039,0.032 0.047,0.059c0.002,0.006 0.007,0.01 0.016,0.01c0.009,0 0.014,-0.003 0.015,-0.01l0.024,-0.095c0.003,-0.011 0.004,-0.021 0.001,-0.028c-0.002,-0.007 -0.009,-0.011 -0.021,-0.011c-0.019,0 -0.043,0.001 -0.074,0.002c-0.031,0.001 -0.059,0.002 -0.085,0.003c-0.026,0.001 -0.053,0.001 -0.08,0.001c-0.136,-0 -0.223,-0.002 -0.259,-0.006c-0.004,-0 -0.007,0.005 -0.009,0.016c-0.001,0.011 -0,0.017 0.003,0.018c0.027,0.006 0.047,0.016 0.062,0.029c0.015,0.013 0.022,0.034 0.022,0.063l0,0.444c0,0.018 -0.002,0.033 -0.006,0.044c-0.004,0.011 -0.013,0.021 -0.025,0.027c-0.012,0.007 -0.022,0.012 -0.031,0.014c-0.008,0.002 -0.022,0.006 -0.042,0.012c-0.004,0.001 -0.005,0.008 -0.003,0.02c0.002,0.012 0.005,0.017 0.009,0.017l0.003,0Z" style="fill:#ee2a24;fill-rule:nonzero;"/></g><g transform="matrix(171.333809,0,0,171.333809,928.71938,3189.426419)"><path d="M0.775,-0.025c-0.029,0 -0.057,-0.017 -0.083,-0.05l-0.149,-0.187c-0.022,-0.027 -0.042,-0.046 -0.058,-0.056c-0.017,-0.01 -0.035,-0.015 -0.055,-0.015l0,-0.005c0.047,-0.002 0.089,-0.019 0.125,-0.05c0.036,-0.031 0.053,-0.074 0.053,-0.128c0,-0.06 -0.022,-0.106 -0.068,-0.138c-0.045,-0.032 -0.107,-0.047 -0.185,-0.047c-0.014,0 -0.043,0.001 -0.086,0.003c-0.043,0.002 -0.079,0.003 -0.105,0.003c-0.045,-0 -0.084,-0.002 -0.115,-0.006c-0.004,-0 -0.007,0.005 -0.009,0.016c-0.001,0.011 -0,0.018 0.003,0.019c0.027,0.007 0.048,0.018 0.062,0.032c0.014,0.014 0.021,0.036 0.021,0.067l0,0.446c0,0.03 -0.007,0.051 -0.021,0.064c-0.014,0.013 -0.035,0.021 -0.062,0.025c-0.002,0 -0.004,0.003 -0.004,0.009c0,0.006 0.001,0.012 0.003,0.018c0.002,0.006 0.004,0.009 0.007,0.009l0.303,0c0.002,0 0.004,-0.003 0.006,-0.009c0.001,-0.006 0.002,-0.012 0.002,-0.018c0,-0.006 -0.001,-0.009 -0.003,-0.009c-0.038,-0.004 -0.066,-0.013 -0.084,-0.024c-0.018,-0.012 -0.027,-0.034 -0.027,-0.065l0,-0.194c0.04,0 0.072,0.005 0.097,0.013c0.025,0.008 0.047,0.025 0.067,0.051l0.154,0.198c0.019,0.024 0.041,0.042 0.067,0.054c0.026,0.012 0.05,0.018 0.074,0.016c0.023,-0.001 0.046,-0.005 0.069,-0.011c0.003,-0.001 0.005,-0.006 0.006,-0.015c0,-0.009 -0.001,-0.013 -0.005,-0.013l0.001,-0.002Zm-0.5,-0.337l-0.029,0l0,-0.206c0,-0.029 0.006,-0.049 0.018,-0.062c0.012,-0.012 0.032,-0.019 0.061,-0.019c0.046,0 0.084,0.014 0.113,0.041c0.029,0.027 0.043,0.067 0.043,0.118c0,0.049 -0.015,0.082 -0.045,0.1c-0.03,0.018 -0.084,0.026 -0.161,0.026l0,0.001Z" style="fill:#ee2a24;fill-rule:nonzero;"/></g><g transform="matrix(171.333809,0,0,171.333809,1052.956469,3189.426419)"><path d="M0.45,0.016c0.02,0 0.055,-0.012 0.104,-0.037c0.05,-0.025 0.084,-0.051 0.104,-0.079c0.002,-0.004 0,-0.011 -0.007,-0.019c-0.007,-0.008 -0.013,-0.01 -0.017,-0.008c-0.022,0.015 -0.051,0.026 -0.086,0.035c-0.035,0.008 -0.06,0.013 -0.075,0.013c-0.036,0 -0.072,-0.006 -0.107,-0.019c-0.035,-0.013 -0.068,-0.031 -0.099,-0.056c-0.031,-0.024 -0.056,-0.058 -0.075,-0.1c-0.019,-0.042 -0.029,-0.091 -0.029,-0.145c0,-0.074 0.018,-0.132 0.054,-0.174c0.036,-0.042 0.089,-0.063 0.159,-0.063c0.032,0 0.062,0.004 0.09,0.014c0.028,0.009 0.05,0.019 0.065,0.028c0.015,0.01 0.029,0.018 0.042,0.024c0.013,0.006 0.024,0.007 0.032,0.002c0.008,-0.005 0.015,-0.018 0.021,-0.038l0.013,-0.039c0.004,-0.011 -0.003,-0.022 -0.021,-0.033c-0.018,-0.011 -0.043,-0.02 -0.077,-0.026c-0.033,-0.007 -0.069,-0.01 -0.107,-0.01c-0.067,0 -0.126,0.012 -0.178,0.035c-0.052,0.023 -0.092,0.053 -0.122,0.091c-0.029,0.038 -0.051,0.078 -0.065,0.121c-0.014,0.043 -0.021,0.087 -0.021,0.133c0,0.048 0.008,0.093 0.025,0.133c0.017,0.041 0.039,0.074 0.065,0.101c0.027,0.026 0.058,0.049 0.093,0.067c0.035,0.019 0.07,0.032 0.105,0.04c0.035,0.008 0.07,0.012 0.106,0.012l0.005,-0.001Z" style="fill:#ee2a24;fill-rule:nonzero;"/></g><g transform="matrix(171.333809,0,0,171.333809,1171.002787,3189.426419)"><path d="M0.05,-0l0.274,-0c0.002,-0 0.005,-0.003 0.007,-0.009c0.002,-0.006 0.003,-0.012 0.003,-0.018c0,-0.006 -0.001,-0.009 -0.004,-0.009c-0.026,-0.003 -0.046,-0.011 -0.061,-0.023c-0.015,-0.012 -0.022,-0.034 -0.022,-0.066l0,-0.452c0,-0.032 0.007,-0.054 0.022,-0.066c0.015,-0.012 0.035,-0.02 0.061,-0.023c0.002,0 0.004,-0.003 0.004,-0.009c0,-0.006 -0.001,-0.012 -0.003,-0.018c-0.002,-0.006 -0.004,-0.009 -0.007,-0.009l-0.274,0c-0.002,0 -0.005,0.003 -0.007,0.009c-0.002,0.006 -0.003,0.012 -0.003,0.018c0,0.006 0.001,0.009 0.004,0.009c0.027,0.004 0.048,0.012 0.062,0.025c0.014,0.013 0.021,0.035 0.021,0.064l0,0.452c0,0.03 -0.007,0.051 -0.021,0.064c-0.014,0.013 -0.035,0.021 -0.062,0.025c-0.002,0 -0.004,0.003 -0.004,0.009c0,0.006 0.001,0.012 0.003,0.018c0.002,0.006 0.004,0.009 0.007,0.009l0,-0.001Z" style="fill:#ee2a24;fill-rule:nonzero;"/></g><g transform="matrix(171.333809,0,0,171.333809,1231.575311,3189.426419)"><path d="M0.416,0.016c0.107,0 0.195,-0.036 0.262,-0.107c0.067,-0.072 0.101,-0.16 0.101,-0.264c0,-0.104 -0.034,-0.19 -0.102,-0.258c-0.068,-0.068 -0.154,-0.103 -0.259,-0.103c-0.107,0 -0.195,0.036 -0.262,0.107c-0.067,0.072 -0.101,0.159 -0.101,0.262c0,0.104 0.034,0.19 0.103,0.259c0.068,0.069 0.154,0.103 0.258,0.103l0,0Zm0.039,-0.068c-0.074,0 -0.139,-0.034 -0.196,-0.101c-0.057,-0.067 -0.085,-0.15 -0.085,-0.249c0,-0.045 0.006,-0.084 0.019,-0.117c0.013,-0.033 0.029,-0.059 0.05,-0.077c0.021,-0.018 0.042,-0.031 0.065,-0.04c0.022,-0.008 0.045,-0.012 0.069,-0.012c0.074,0 0.14,0.034 0.196,0.101c0.057,0.067 0.085,0.15 0.085,0.249c0,0.044 -0.006,0.083 -0.019,0.117c-0.013,0.034 -0.03,0.06 -0.051,0.078c-0.021,0.018 -0.043,0.031 -0.066,0.04c-0.022,0.008 -0.046,0.013 -0.07,0.013l0.002,-0.001Z" style="fill:#ee2a24;fill-rule:nonzero;"/></g><g transform="matrix(171.333809,0,0,171.333809,-148.299333,3395.060454)"><path d="M0.719,-0.7l-0.214,0c-0.006,0 -0.009,0.005 -0.01,0.016c-0.001,0.011 0.002,0.017 0.008,0.018c0.029,0.004 0.047,0.015 0.054,0.032c0.007,0.017 0.001,0.042 -0.018,0.075l-0.122,0.189l-0.127,-0.189c-0.02,-0.033 -0.028,-0.058 -0.023,-0.075c0.004,-0.017 0.018,-0.027 0.042,-0.031c0.006,-0.001 0.008,-0.007 0.008,-0.018c-0,-0.011 -0.004,-0.016 -0.01,-0.016l-0.264,0c-0.007,0 -0.011,0.005 -0.012,0.016c-0.001,0.011 0.002,0.017 0.008,0.018c0.021,0.003 0.039,0.013 0.056,0.028c0.017,0.016 0.037,0.042 0.061,0.079l0.168,0.253l0,0.182c0,0.031 -0.008,0.053 -0.024,0.064c-0.016,0.012 -0.042,0.02 -0.079,0.025c-0.002,0 -0.003,0.003 -0.003,0.009c0,0.006 0.001,0.012 0.003,0.018c0.002,0.006 0.004,0.009 0.006,0.009l0.313,0c0.002,0 0.004,-0.003 0.006,-0.009c0.001,-0.006 0.002,-0.012 0.002,-0.018c0,-0.006 -0.001,-0.009 -0.003,-0.009c-0.036,-0.004 -0.062,-0.013 -0.078,-0.024c-0.016,-0.012 -0.024,-0.034 -0.024,-0.065l0,-0.186l0.16,-0.25c0.023,-0.035 0.043,-0.061 0.062,-0.077c0.019,-0.016 0.038,-0.026 0.058,-0.029c0.006,-0.001 0.008,-0.007 0.007,-0.018c-0.001,-0.011 -0.004,-0.016 -0.01,-0.016l-0,-0Z" style="fill:#ee2a24;fill-rule:nonzero;"/></g><g transform="matrix(171.333809,0,0,171.333809,8.400828,3395.060454)"><path d="M0.931,-0.034c-0.025,-0.002 -0.044,-0.01 -0.059,-0.023c-0.014,-0.013 -0.022,-0.035 -0.024,-0.067l-0.032,-0.574c-0,-0.008 -0.008,-0.013 -0.022,-0.013c-0.014,0 -0.023,0.004 -0.028,0.013l-0.269,0.542l-0.29,-0.542c-0.005,-0.008 -0.015,-0.013 -0.028,-0.013c-0.013,0 -0.02,0.004 -0.021,0.013l-0.032,0.574c-0.002,0.032 -0.01,0.054 -0.024,0.067c-0.014,0.013 -0.034,0.021 -0.059,0.023c-0.002,0 -0.004,0.003 -0.004,0.009c0,0.006 0.001,0.012 0.003,0.018c0.002,0.006 0.004,0.009 0.007,0.009l0.207,0c0.002,0 0.004,-0.003 0.006,-0.009c0.002,-0.006 0.003,-0.012 0.003,-0.018c0,-0.006 -0.001,-0.009 -0.004,-0.009c-0.049,-0.006 -0.072,-0.036 -0.07,-0.09l0.015,-0.341l0.231,0.438c0.006,0.012 0.017,0.018 0.031,0.018c0.024,0 0.037,-0.006 0.039,-0.018c0.004,-0.023 0.017,-0.057 0.04,-0.103l0.162,-0.33l0.019,0.336c0.003,0.052 -0.021,0.082 -0.07,0.09c-0.002,0.001 -0.003,0.005 -0.003,0.01c0,0.005 0.001,0.01 0.003,0.016c0.002,0.006 0.004,0.009 0.006,0.009l0.261,0c0.002,0 0.004,-0.003 0.006,-0.009c0.002,-0.006 0.003,-0.012 0.003,-0.018c0,-0.006 -0.001,-0.009 -0.004,-0.009l0.001,-0Z" style="fill:#ee2a24;fill-rule:nonzero;"/></g><g transform="matrix(171.333809,0,0,171.333809,171.957689,3395.060454)"><path d="M0.05,-0l0.274,-0c0.002,-0 0.005,-0.003 0.007,-0.009c0.002,-0.006 0.003,-0.012 0.003,-0.018c0,-0.006 -0.001,-0.009 -0.004,-0.009c-0.026,-0.003 -0.046,-0.011 -0.061,-0.023c-0.015,-0.012 -0.022,-0.034 -0.022,-0.066l0,-0.452c0,-0.032 0.007,-0.054 0.022,-0.066c0.015,-0.012 0.035,-0.02 0.061,-0.023c0.002,0 0.004,-0.003 0.004,-0.009c0,-0.006 -0.001,-0.012 -0.003,-0.018c-0.002,-0.006 -0.004,-0.009 -0.007,-0.009l-0.274,0c-0.002,0 -0.005,0.003 -0.007,0.009c-0.002,0.006 -0.003,0.012 -0.003,0.018c0,0.006 0.001,0.009 0.004,0.009c0.027,0.004 0.048,0.012 0.062,0.025c0.014,0.013 0.021,0.035 0.021,0.064l0,0.452c0,0.03 -0.007,0.051 -0.021,0.064c-0.014,0.013 -0.035,0.021 -0.062,0.025c-0.002,0 -0.004,0.003 -0.004,0.009c0,0.006 0.001,0.012 0.003,0.018c0.002,0.006 0.004,0.009 0.007,0.009l0,-0.001Z" style="fill:#ee2a24;fill-rule:nonzero;"/></g><g transform="matrix(171.333809,0,0,171.333809,232.530214,3395.060454)"><path d="M0.635,-0.488c0,-0.074 -0.026,-0.128 -0.078,-0.163c-0.052,-0.035 -0.12,-0.052 -0.205,-0.052c-0.015,0 -0.043,0.001 -0.085,0.003c-0.042,0.002 -0.076,0.003 -0.103,0.003c-0.045,-0 -0.084,-0.002 -0.115,-0.006c-0.004,-0 -0.007,0.005 -0.009,0.016c-0.001,0.011 -0,0.018 0.003,0.019c0.027,0.007 0.048,0.018 0.062,0.032c0.014,0.014 0.021,0.036 0.021,0.067l0,0.446c0,0.03 -0.007,0.051 -0.021,0.064c-0.014,0.013 -0.035,0.021 -0.062,0.025c-0.002,0 -0.004,0.003 -0.004,0.009c0,0.006 0.001,0.012 0.003,0.018c0.002,0.006 0.004,0.009 0.007,0.009l0.303,0c0.002,0 0.004,-0.003 0.006,-0.009c0.001,-0.006 0.002,-0.012 0.002,-0.018c0,-0.006 -0.001,-0.009 -0.003,-0.009c-0.038,-0.004 -0.066,-0.013 -0.084,-0.024c-0.018,-0.012 -0.027,-0.034 -0.027,-0.065l0,-0.144c0.114,0.017 0.207,0.006 0.279,-0.032c0.072,-0.039 0.108,-0.101 0.108,-0.188l0,-0.001Zm-0.308,-0.161c0.053,0 0.096,0.017 0.129,0.049c0.033,0.033 0.05,0.078 0.05,0.136c0,0.064 -0.021,0.107 -0.064,0.131c-0.043,0.023 -0.108,0.029 -0.194,0.017l0,-0.253c0,-0.03 0.006,-0.051 0.017,-0.063c0.011,-0.012 0.032,-0.018 0.063,-0.018Z" style="fill:#ee2a24;fill-rule:nonzero;"/></g><g transform="matrix(171.333809,0,0,171.333809,346.393577,3395.060454)"><path d="M0.719,-0.7l-0.214,0c-0.006,0 -0.009,0.005 -0.01,0.016c-0.001,0.011 0.002,0.017 0.008,0.018c0.029,0.004 0.047,0.015 0.054,0.032c0.007,0.017 0.001,0.042 -0.018,0.075l-0.122,0.189l-0.127,-0.189c-0.02,-0.033 -0.028,-0.058 -0.023,-0.075c0.004,-0.017 0.018,-0.027 0.042,-0.031c0.006,-0.001 0.008,-0.007 0.008,-0.018c-0,-0.011 -0.004,-0.016 -0.01,-0.016l-0.264,0c-0.007,0 -0.011,0.005 -0.012,0.016c-0.001,0.011 0.002,0.017 0.008,0.018c0.021,0.003 0.039,0.013 0.056,0.028c0.017,0.016 0.037,0.042 0.061,0.079l0.168,0.253l0,0.182c0,0.031 -0.008,0.053 -0.024,0.064c-0.016,0.012 -0.042,0.02 -0.079,0.025c-0.002,0 -0.003,0.003 -0.003,0.009c0,0.006 0.001,0.012 0.003,0.018c0.002,0.006 0.004,0.009 0.006,0.009l0.313,0c0.002,0 0.004,-0.003 0.006,-0.009c0.001,-0.006 0.002,-0.012 0.002,-0.018c0,-0.006 -0.001,-0.009 -0.003,-0.009c-0.036,-0.004 -0.062,-0.013 -0.078,-0.024c-0.016,-0.012 -0.024,-0.034 -0.024,-0.065l0,-0.186l0.16,-0.25c0.023,-0.035 0.043,-0.061 0.062,-0.077c0.019,-0.016 0.038,-0.026 0.058,-0.029c0.006,-0.001 0.008,-0.007 0.007,-0.018c-0.001,-0.011 -0.004,-0.016 -0.01,-0.016l-0,-0Z" style="fill:#ee2a24;fill-rule:nonzero;"/></g><g transform="matrix(171.333809,0,0,171.333809,466.447712,3395.060454)"><path d="M0.931,-0.034c-0.025,-0.002 -0.044,-0.01 -0.059,-0.023c-0.014,-0.013 -0.022,-0.035 -0.024,-0.067l-0.032,-0.574c-0,-0.008 -0.008,-0.013 -0.022,-0.013c-0.014,0 -0.023,0.004 -0.028,0.013l-0.269,0.542l-0.29,-0.542c-0.005,-0.008 -0.015,-0.013 -0.028,-0.013c-0.013,0 -0.02,0.004 -0.021,0.013l-0.032,0.574c-0.002,0.032 -0.01,0.054 -0.024,0.067c-0.014,0.013 -0.034,0.021 -0.059,0.023c-0.002,0 -0.004,0.003 -0.004,0.009c0,0.006 0.001,0.012 0.003,0.018c0.002,0.006 0.004,0.009 0.007,0.009l0.207,0c0.002,0 0.004,-0.003 0.006,-0.009c0.002,-0.006 0.003,-0.012 0.003,-0.018c0,-0.006 -0.001,-0.009 -0.004,-0.009c-0.049,-0.006 -0.072,-0.036 -0.07,-0.09l0.015,-0.341l0.231,0.438c0.006,0.012 0.017,0.018 0.031,0.018c0.024,0 0.037,-0.006 0.039,-0.018c0.004,-0.023 0.017,-0.057 0.04,-0.103l0.162,-0.33l0.019,0.336c0.003,0.052 -0.021,0.082 -0.07,0.09c-0.002,0.001 -0.003,0.005 -0.003,0.01c0,0.005 0.001,0.01 0.003,0.016c0.002,0.006 0.004,0.009 0.006,0.009l0.261,0c0.002,0 0.004,-0.003 0.006,-0.009c0.002,-0.006 0.003,-0.012 0.003,-0.018c0,-0.006 -0.001,-0.009 -0.004,-0.009l0.001,-0Z" style="fill:#ee2a24;fill-rule:nonzero;"/></g><g transform="matrix(171.333809,0,0,171.333809,630.004572,3395.060454)"><path d="M0.035,0.002c0.041,-0.004 0.138,-0.006 0.292,-0.006c0.055,0 0.12,0.002 0.195,0.006c0.029,0 0.054,-0.018 0.075,-0.053c0.021,-0.036 0.031,-0.068 0.031,-0.098c0,-0.008 -0.005,-0.014 -0.015,-0.016c-0.01,-0.002 -0.016,-0.001 -0.02,0.005c-0.045,0.071 -0.124,0.107 -0.235,0.107c-0.041,0 -0.068,-0.006 -0.083,-0.018c-0.015,-0.012 -0.023,-0.032 -0.023,-0.061l0,-0.168c0,-0.012 0.002,-0.021 0.008,-0.025c0.005,-0.004 0.014,-0.006 0.025,-0.006l0.014,0c0.067,0 0.111,0.015 0.132,0.045c0.006,0.008 0.012,0.012 0.018,0.012c0.006,0 0.011,-0.004 0.015,-0.013l0.057,-0.126c0.004,-0.009 0.002,-0.015 -0.004,-0.018c-0.007,-0.002 -0.013,-0.001 -0.019,0.004c-0.033,0.03 -0.097,0.045 -0.192,0.045l-0.022,0c-0.011,0 -0.02,-0.002 -0.025,-0.006c-0.005,-0.004 -0.008,-0.013 -0.008,-0.025l0,-0.163c0,-0.026 0.007,-0.044 0.021,-0.054c0.014,-0.01 0.038,-0.016 0.072,-0.016c0.059,0 0.1,0.006 0.123,0.019c0.023,0.012 0.039,0.032 0.047,0.059c0.002,0.006 0.007,0.01 0.016,0.01c0.009,0 0.014,-0.003 0.015,-0.01l0.024,-0.095c0.003,-0.011 0.004,-0.021 0.001,-0.028c-0.002,-0.007 -0.009,-0.011 -0.021,-0.011c-0.019,0 -0.043,0.001 -0.074,0.002c-0.031,0.001 -0.059,0.002 -0.085,0.003c-0.026,0.001 -0.053,0.001 -0.08,0.001c-0.136,-0 -0.223,-0.002 -0.259,-0.006c-0.004,-0 -0.007,0.005 -0.009,0.016c-0.001,0.011 -0,0.017 0.003,0.018c0.027,0.006 0.047,0.016 0.062,0.029c0.015,0.013 0.022,0.034 0.022,0.063l0,0.444c0,0.018 -0.002,0.033 -0.006,0.044c-0.004,0.011 -0.013,0.021 -0.025,0.027c-0.012,0.007 -0.022,0.012 -0.031,0.014c-0.008,0.002 -0.022,0.006 -0.042,0.012c-0.004,0.001 -0.005,0.008 -0.003,0.02c0.002,0.012 0.005,0.017 0.009,0.017l0.003,0Z" style="fill:#ee2a24;fill-rule:nonzero;"/></g><g transform="matrix(171.333809,0,0,171.333809,741.023526,3395.060454)"><path d="M0.256,0.016c0.069,0 0.129,-0.021 0.18,-0.062c0.051,-0.042 0.077,-0.093 0.077,-0.154c0,-0.035 -0.011,-0.065 -0.034,-0.092c-0.022,-0.027 -0.061,-0.057 -0.116,-0.091l-0.105,-0.065c-0.035,-0.021 -0.06,-0.04 -0.073,-0.055c-0.014,-0.016 -0.021,-0.034 -0.021,-0.056c0,-0.027 0.009,-0.049 0.028,-0.065c0.019,-0.016 0.045,-0.024 0.08,-0.024c0.025,0 0.048,0.004 0.069,0.013c0.021,0.009 0.038,0.018 0.05,0.028c0.012,0.01 0.022,0.019 0.032,0.025c0.01,0.007 0.018,0.008 0.024,0.004c0.006,-0.004 0.012,-0.015 0.018,-0.034l0.012,-0.038c0.003,-0.011 -0.003,-0.021 -0.02,-0.032c-0.017,-0.011 -0.038,-0.019 -0.064,-0.025c-0.026,-0.006 -0.052,-0.009 -0.078,-0.009c-0.064,0 -0.121,0.02 -0.17,0.06c-0.049,0.04 -0.074,0.089 -0.074,0.148c0,0.036 0.011,0.066 0.034,0.092c0.022,0.025 0.062,0.056 0.119,0.092l0.097,0.061c0.04,0.025 0.067,0.044 0.081,0.058c0.014,0.014 0.021,0.032 0.021,0.054c0,0.03 -0.011,0.054 -0.032,0.072c-0.021,0.018 -0.053,0.027 -0.093,0.027c-0.03,0 -0.058,-0.005 -0.083,-0.015c-0.026,-0.01 -0.046,-0.021 -0.06,-0.033c-0.014,-0.012 -0.027,-0.021 -0.038,-0.03c-0.011,-0.008 -0.021,-0.011 -0.027,-0.007c-0.007,0.004 -0.013,0.016 -0.018,0.036l-0.01,0.037c-0.004,0.014 0.005,0.027 0.026,0.04c0.021,0.013 0.048,0.022 0.079,0.029c0.031,0.007 0.061,0.01 0.089,0.01l0.002,0Z" style="fill:#ee2a24;fill-rule:nonzero;"/></g></g><rect x="1180.041" y="2749.458" width="2029.287" height="91.25" style="fill:#ee2a24;fill-rule:nonzero;"/><path d="M203.718,2504.525c-7.969,0 -15.667,-4.591 -23.096,-13.907l-41.194,-51.713c-6.078,-7.561 -11.48,-12.692 -16.072,-15.527c-4.592,-2.835 -9.589,-4.186 -15.127,-4.186l0,-1.35c13.101,-0.675 24.581,-5.266 34.441,-13.907c9.86,-8.641 14.722,-20.388 14.722,-35.376c0,-16.608 -6.213,-29.3 -18.774,-38.076c-12.561,-8.776 -29.579,-13.097 -51.054,-13.097c-3.917,0 -11.886,0.27 -23.906,0.81c-12.021,0.54 -21.745,0.81 -29.174,0.81c-12.561,-0.135 -23.231,-0.675 -31.875,-1.755c-1.216,-0.135 -2.026,1.35 -2.431,4.456c-0.405,3.105 -0.135,4.861 0.945,5.266c7.564,2.025 13.236,4.996 17.153,8.776c3.917,3.781 5.808,9.992 5.808,18.498l0,123.275c0,8.236 -1.891,14.177 -5.808,17.823c-3.917,3.646 -9.589,5.941 -17.153,7.021c-0.675,0 -1.081,0.81 -1.081,2.43c0,1.62 0.27,3.241 0.81,4.861c0.54,1.62 1.216,2.43 1.891,2.43l83.874,0c0.675,0 1.216,-0.81 1.621,-2.43c0.405,-1.62 0.675,-3.241 0.675,-4.861c0,-1.62 -0.27,-2.43 -0.81,-2.43c-10.535,-1.215 -18.369,-3.511 -23.366,-6.751c-4.997,-3.241 -7.564,-9.316 -7.564,-18.093l0,-53.604c11.075,0.135 19.989,1.35 26.877,3.646c6.888,2.295 13.101,7.021 18.639,14.177l42.545,54.684c5.132,6.616 11.345,11.612 18.504,14.987c7.158,3.376 13.911,4.861 20.394,4.456c6.483,-0.405 12.831,-1.35 19.179,-2.97c0.945,-0.405 1.486,-1.755 1.621,-4.186c0.135,-2.43 -0.405,-3.646 -1.486,-3.646l0.27,-0.54Zm-138.304,-93.165l-7.969,0l0,-56.979c0,-7.966 1.621,-13.637 4.862,-17.013c3.242,-3.376 8.779,-5.131 16.748,-5.131c12.831,0 23.231,3.781 31.199,11.342c7.969,7.561 12.021,18.498 12.021,32.675c0,13.502 -4.187,22.684 -12.561,27.544c-8.374,4.861 -23.231,7.291 -44.436,7.291l0.135,0.27Z" style="fill:#003876;fill-rule:nonzero;"/><path d="M252.173,2511.951c11.21,-1.08 38.088,-1.62 80.632,-1.62c15.262,0 33.225,0.54 53.89,1.62c7.969,0 14.857,-4.861 20.665,-14.717c5.808,-9.857 8.644,-18.903 8.644,-27.139c0,-2.295 -1.351,-3.781 -4.052,-4.456c-2.701,-0.675 -4.457,-0.27 -5.403,1.35c-12.561,19.713 -34.306,29.57 -65.1,29.57c-11.21,0 -18.909,-1.62 -23.096,-4.861c-4.187,-3.241 -6.348,-8.776 -6.348,-16.743l0,-46.447c0,-3.376 0.675,-5.671 2.161,-6.886c1.486,-1.215 3.782,-1.755 6.888,-1.755l3.782,0c18.504,0 30.659,4.186 36.602,12.422c1.621,2.295 3.242,3.376 4.997,3.376c1.756,0 3.106,-1.215 4.187,-3.646l15.802,-34.836c1.081,-2.565 0.675,-4.186 -1.216,-4.861c-1.891,-0.675 -3.647,-0.27 -5.132,1.215c-9.184,8.236 -26.877,12.422 -53.08,12.422l-6.078,0c-3.106,0 -5.403,-0.54 -6.888,-1.755c-1.486,-1.215 -2.296,-3.511 -2.296,-6.886l0,-45.097c0,-7.156 1.891,-12.152 5.673,-14.987c3.782,-2.835 10.4,-4.321 19.989,-4.321c16.208,0 27.553,1.755 34.036,5.131c6.483,3.376 10.805,8.776 13.101,16.203c0.54,1.755 2.026,2.7 4.457,2.7c2.431,0 3.782,-0.945 4.187,-2.7l6.618,-26.329c0.945,-3.105 1.081,-5.671 0.405,-7.696c-0.675,-2.025 -2.566,-2.97 -5.673,-2.97c-5.132,0.135 -11.886,0.405 -20.394,0.675c-8.509,0.27 -16.343,0.54 -23.636,0.81c-7.293,0.27 -14.587,0.405 -22.015,0.405c-37.682,-0.135 -61.589,-0.675 -71.718,-1.755c-1.216,-0.135 -2.026,1.35 -2.431,4.456c-0.405,3.105 -0.135,4.726 0.945,4.861c7.428,1.755 13.101,4.456 17.153,8.101c4.052,3.646 6.078,9.452 6.078,17.418l0,122.87c0,4.996 -0.54,9.046 -1.756,12.152c-1.216,3.105 -3.512,5.671 -6.888,7.561c-3.377,1.89 -6.213,3.241 -8.509,3.916c-2.296,0.675 -6.213,1.755 -11.75,3.241c-1.081,0.405 -1.351,2.16 -0.81,5.401c0.54,3.241 1.351,4.726 2.566,4.591l0.81,0Z" style="fill:#003876;fill-rule:nonzero;"/><path d="M635.989,2376.524c0,-20.388 -7.158,-35.376 -21.475,-44.962c-14.317,-9.587 -33.225,-14.312 -56.591,-14.312c-4.187,0 -12.021,0.27 -23.501,0.81c-11.48,0.54 -20.935,0.81 -28.363,0.81c-12.561,-0.135 -23.231,-0.675 -31.875,-1.755c-1.216,-0.135 -2.026,1.35 -2.431,4.456c-0.405,3.105 -0.135,4.861 0.945,5.266c7.564,2.025 13.236,4.996 17.153,8.776c3.917,3.781 5.808,9.992 5.808,18.498l0,123.275c0,8.236 -1.891,14.177 -5.808,17.823c-3.917,3.646 -9.589,5.941 -17.153,7.021c-0.675,0 -1.081,0.81 -1.081,2.43c0,1.62 0.27,3.241 0.81,4.861c0.54,1.62 1.216,2.43 1.891,2.43l83.874,0c0.675,0 1.216,-0.81 1.621,-2.43c0.405,-1.62 0.675,-3.241 0.675,-4.861c0,-1.62 -0.27,-2.43 -0.81,-2.43c-10.535,-1.215 -18.369,-3.511 -23.366,-6.751c-4.997,-3.241 -7.564,-9.316 -7.564,-18.093l0,-39.831c31.47,4.726 57.267,1.755 77.256,-8.911c19.989,-10.667 29.984,-27.949 29.984,-51.848l0,-0.27Zm-85.089,-44.557c14.587,0 26.472,4.591 35.657,13.637c9.184,9.046 13.776,21.603 13.776,37.671c0,17.688 -5.943,29.705 -17.828,36.186c-11.886,6.481 -29.849,8.101 -53.755,4.726l0,-69.941c0,-8.371 1.621,-14.177 4.727,-17.418c3.106,-3.241 8.914,-4.861 17.423,-4.861Z" style="fill:#003876;fill-rule:nonzero;"/><path d="M772.37,2285.52c-1.216,1.755 -0.27,4.186 2.971,7.291c3.242,3.105 5.673,3.916 7.428,2.43l36.332,-27.409c2.026,-1.485 1.486,-4.321 -1.486,-8.506c-2.971,-4.186 -6.753,-7.561 -11.345,-10.127c-4.592,-2.565 -7.564,-2.7 -9.049,-0.405l-24.852,36.726Zm26.202,230.212c22.826,0 41.329,-6.751 55.511,-20.118c14.182,-13.367 21.205,-32.405 21.205,-57.114l0,-86.549c0,-8.776 2.026,-14.852 5.943,-18.228c3.917,-3.376 9.319,-5.536 16.208,-6.481c0.675,0 1.081,-0.81 1.081,-2.43c0,-1.62 -0.27,-3.241 -0.81,-4.861c-0.54,-1.62 -1.081,-2.43 -1.621,-2.43l-62.264,0c-0.675,0 -1.216,0.81 -1.621,2.43c-0.405,1.62 -0.675,3.241 -0.675,4.861c0,1.62 0.27,2.43 0.81,2.43c7.699,1.08 13.641,3.376 17.693,7.021c4.052,3.646 6.078,9.587 6.078,17.823l0,88.304c0,18.363 -5.132,32.405 -15.262,42.127c-10.13,9.722 -23.096,14.582 -38.898,14.582c-15.532,0 -28.093,-4.726 -37.547,-14.312c-9.454,-9.587 -14.182,-23.629 -14.182,-42.262l0,-88.304c0,-8.776 2.026,-14.852 5.943,-18.228c3.917,-3.376 9.319,-5.536 16.208,-6.481c0.675,0 1.081,-0.81 1.081,-2.43c0,-1.62 -0.27,-3.241 -0.81,-4.861c-0.54,-1.62 -1.216,-2.43 -1.891,-2.43l-75.5,0c-0.675,0 -1.351,0.81 -1.891,2.43c-0.54,1.62 -0.81,3.241 -0.81,4.861c0,1.62 0.405,2.43 1.081,2.43c7.428,0.945 12.966,3.241 16.748,6.886c3.782,3.646 5.673,9.587 5.673,17.823l0,86.819c0,13.502 2.431,25.384 7.293,35.646c4.862,10.262 11.345,18.228 19.449,24.034c8.104,5.806 16.883,10.127 26.202,12.962c9.319,2.835 19.179,4.321 29.579,4.321l0,-0.27Z" style="fill:#003876;fill-rule:nonzero;"/><path d="M1068.195,2406.094l0,-1.755c10.13,-2.025 18.504,-6.751 25.122,-14.177c6.618,-7.426 9.86,-16.608 9.725,-27.544c-0.135,-14.582 -6.348,-25.789 -18.639,-33.62c-12.291,-7.831 -27.823,-11.747 -46.597,-11.747c-3.106,0 -10.265,0.27 -21.475,0.81c-11.21,0.54 -20.935,0.81 -29.038,0.81c-13.236,-0.135 -24.311,-0.675 -33.36,-1.755c-1.216,-0.135 -2.026,1.35 -2.431,4.456c-0.405,3.105 -0.135,4.726 0.945,4.861c7.428,1.755 13.101,4.456 17.153,8.101c4.052,3.646 6.078,9.452 6.078,17.418l0,122.87c0,4.996 -0.54,9.046 -1.756,12.152c-1.216,3.105 -3.512,5.671 -6.888,7.561c-3.377,1.89 -6.213,3.241 -8.509,3.916c-2.296,0.675 -6.213,1.755 -11.75,3.241c-1.081,0.405 -1.351,2.16 -0.81,5.401c0.54,3.241 1.351,4.726 2.566,4.591c10.13,-1.08 24.581,-1.62 43.355,-1.62c7.428,0 16.478,0.27 27.283,0.81c10.805,0.54 18.098,0.81 22.015,0.81c23.231,0 41.869,-5.131 56.051,-15.392c14.182,-10.262 21.205,-23.899 21.205,-41.047c0,-14.717 -4.997,-26.599 -14.992,-35.646c-9.995,-9.046 -21.88,-13.637 -35.521,-13.637l0.27,0.135Zm-39.979,-74.532c12.021,0 21.745,3.241 29.174,9.722c7.428,6.481 11.21,16.068 11.21,28.625c-0.135,20.928 -10.67,31.325 -31.605,31.325l-28.498,0l0,-49.283c0,-7.696 1.486,-12.962 4.322,-15.933c2.836,-2.97 7.969,-4.456 15.397,-4.456Zm12.156,165.942c-11.615,0 -19.854,-1.755 -24.716,-5.401c-4.862,-3.646 -7.293,-9.452 -7.293,-17.418l0,-59.815l28.498,0c13.506,0 24.581,4.051 33.09,12.152c8.509,8.101 12.831,19.578 12.831,34.296c0,13.502 -3.782,22.954 -11.21,28.22c-7.428,5.266 -17.963,7.966 -31.47,7.966l0.27,0Z" style="fill:#003876;fill-rule:nonzero;"/><path d="M1175.537,2511.951c11.21,-1.08 38.088,-1.62 80.632,-1.62c15.262,0 33.225,0.54 53.89,1.62c7.969,0 14.857,-4.861 20.665,-14.717c5.808,-9.857 8.644,-18.903 8.644,-27.139c0,-2.295 -1.351,-3.781 -4.052,-4.456c-2.701,-0.675 -4.457,-0.27 -5.403,1.35c-12.561,19.713 -34.306,29.57 -65.1,29.57c-11.21,0 -18.909,-1.62 -23.096,-4.861c-4.187,-3.241 -6.348,-8.776 -6.348,-16.743l0,-122.87c0,-8.776 2.026,-14.852 6.078,-18.228c4.052,-3.376 9.589,-5.536 16.613,-6.481c0.54,0 0.81,-0.81 0.945,-2.43c0.135,-1.62 -0.135,-3.241 -0.675,-4.861c-0.54,-1.62 -1.081,-2.43 -1.621,-2.43l-76.31,0c-0.675,0 -1.216,0.81 -1.756,2.43c-0.54,1.62 -0.81,3.241 -0.81,4.861c0,1.62 0.405,2.43 1.081,2.43c4.727,0.675 8.509,1.62 11.48,2.835c2.971,1.215 5.673,3.646 8.104,7.291c2.431,3.646 3.647,8.506 3.647,14.582l0,122.87c0,4.996 -0.54,9.046 -1.756,12.152c-1.216,3.105 -3.512,5.671 -6.888,7.561c-3.377,1.89 -6.213,3.241 -8.509,3.916c-2.296,0.675 -6.213,1.755 -11.75,3.241c-1.081,0.405 -1.351,2.16 -0.81,5.401c0.54,3.241 1.351,4.726 2.566,4.591l0.54,0.135Z" style="fill:#003876;fill-rule:nonzero;"/><path d="M1389.244,2511.411l75.905,0c0.675,0 1.351,-0.81 1.891,-2.43c0.54,-1.62 0.81,-3.241 0.81,-4.861c0,-1.62 -0.405,-2.43 -1.081,-2.43c-7.158,-0.945 -12.831,-3.105 -16.883,-6.481c-4.052,-3.376 -6.078,-9.452 -6.078,-18.228l0,-125.03c0,-8.776 2.026,-14.852 6.078,-18.228c4.052,-3.376 9.725,-5.536 16.883,-6.481c0.675,0 1.081,-0.81 1.081,-2.43c0,-1.62 -0.27,-3.241 -0.81,-4.861c-0.54,-1.62 -1.216,-2.43 -1.891,-2.43l-75.905,0c-0.675,0 -1.351,0.81 -1.891,2.43c-0.54,1.62 -0.81,3.241 -0.81,4.861c0,1.62 0.405,2.43 1.081,2.43c7.564,1.08 13.236,3.376 17.153,7.021c3.917,3.646 5.808,9.587 5.808,17.823l0,125.03c0,8.236 -1.891,14.177 -5.808,17.823c-3.917,3.646 -9.589,5.941 -17.153,7.021c-0.675,0 -1.081,0.81 -1.081,2.43c0,1.62 0.27,3.241 0.81,4.861c0.54,1.62 1.216,2.43 1.891,2.43l0,-0.27Z" style="fill:#003876;fill-rule:nonzero;"/><path d="M1639.278,2515.867c5.538,0 15.127,-3.376 28.903,-10.262c13.776,-6.886 23.366,-14.177 28.633,-21.874c0.675,-1.215 0,-2.97 -2.026,-5.131c-2.026,-2.16 -3.512,-2.835 -4.592,-2.16c-6.213,4.051 -14.182,7.291 -23.906,9.587c-9.725,2.295 -16.613,3.511 -20.665,3.511c-9.995,0 -19.854,-1.755 -29.579,-5.266c-9.725,-3.511 -18.774,-8.641 -27.283,-15.392c-8.509,-6.751 -15.397,-15.933 -20.665,-27.679c-5.267,-11.747 -7.969,-25.114 -7.969,-40.101c0,-20.388 4.997,-36.456 14.992,-48.068c9.995,-11.612 24.581,-17.418 43.895,-17.418c8.779,0 17.153,1.215 24.987,3.781c7.834,2.565 13.911,5.131 18.098,7.831c4.187,2.7 8.104,4.861 11.75,6.616c3.647,1.755 6.618,2.025 8.779,0.675c2.161,-1.35 4.187,-4.861 5.943,-10.532l3.647,-10.802c1.081,-3.105 -0.81,-6.211 -5.808,-9.181c-4.997,-2.97 -12.021,-5.401 -21.205,-7.291c-9.184,-1.89 -19.044,-2.835 -29.579,-2.835c-18.504,0 -34.846,3.241 -49.163,9.587c-14.317,6.346 -25.527,14.717 -33.631,25.114c-8.104,10.397 -14.182,21.603 -18.098,33.485c-3.917,11.882 -5.943,24.169 -5.943,36.726c0,13.367 2.296,25.654 6.888,36.861c4.592,11.207 10.67,20.523 18.098,27.814c7.428,7.291 15.937,13.502 25.662,18.633c9.725,5.131 19.449,8.776 29.174,10.937c9.725,2.16 19.449,3.241 29.309,3.241l1.351,-0.405Z" style="fill:#003876;fill-rule:nonzero;"/><path d="M1952.051,2501.959c-5.943,-0.945 -10.805,-3.376 -14.722,-7.291c-3.917,-3.916 -8.239,-11.342 -12.966,-22.414l-67.396,-157.3c-0.405,-0.945 -3.917,-0.675 -10.4,0.675c-6.483,1.35 -9.725,2.565 -9.725,3.511c0,9.587 -4.727,24.979 -14.047,46.177l-46.867,107.207c-4.727,11.072 -9.049,18.498 -12.831,22.144c-3.782,3.646 -8.914,6.076 -15.262,7.156c-1.756,0.405 -2.431,2.025 -2.161,4.996c0.27,2.97 1.216,4.456 2.836,4.456l59.698,0c1.891,0 2.971,-1.485 3.242,-4.456c0.27,-2.97 -0.54,-4.591 -2.296,-4.996c-3.917,-0.54 -7.023,-1.215 -9.319,-2.025c-2.296,-0.81 -4.322,-2.16 -6.213,-4.186c-1.891,-2.025 -2.701,-4.996 -2.566,-8.776c0.135,-3.781 1.486,-8.506 3.917,-14.177l2.701,-6.886c1.351,-3.105 3.106,-5.131 5.403,-5.941c2.296,-0.81 5.673,-1.215 10.265,-1.215l56.456,0c4.592,0 8.104,0.405 10.4,1.215c2.296,0.81 4.052,2.835 5.267,5.941l2.971,6.886c2.431,5.806 3.782,10.532 4.187,14.312c0.405,3.781 -0.27,6.751 -2.026,8.776c-1.756,2.025 -3.647,3.511 -5.538,4.321c-1.891,0.81 -4.457,1.485 -7.564,2.025c-1.486,0.405 -2.161,2.025 -2.026,4.996c0.135,2.97 1.081,4.456 2.836,4.456l73.069,0c1.621,0 2.566,-1.485 2.836,-4.456c0.27,-2.97 -0.54,-4.591 -2.296,-4.996l0.135,-0.135Zm-84.279,-58.734l-52.269,0c-2.296,0 -4.187,-0.27 -5.538,-0.945c-1.351,-0.675 -1.621,-1.755 -0.945,-3.376l32.685,-77.367l32.415,77.367c0.54,1.35 0.405,2.295 -0.27,2.97c-0.675,0.675 -1.486,1.08 -2.566,1.215c-1.081,0.135 -2.296,0.27 -3.782,0.27l0.27,-0.135Z" style="fill:#003876;fill-rule:nonzero;"/><path d="M2088.604,2511.951c10.13,-1.08 24.581,-1.62 43.355,-1.62c7.428,0 16.748,0.27 28.093,0.81c11.345,0.54 18.909,0.81 22.826,0.81c21.61,0 40.384,-4.861 56.456,-14.582c16.072,-9.722 27.958,-22.144 35.657,-37.266c7.699,-15.122 11.48,-31.73 11.48,-49.823c0,-27.409 -9.049,-49.823 -27.148,-67.106c-18.098,-17.283 -43.49,-25.924 -76.04,-25.924c-4.052,0 -12.291,0.27 -24.716,0.81c-12.426,0.54 -22.555,0.81 -30.254,0.81c-14.047,-0.135 -25.527,-0.675 -34.576,-1.755c-1.216,-0.135 -2.026,1.35 -2.431,4.456c-0.405,3.105 -0.135,4.726 0.945,4.861c7.428,1.755 13.101,4.456 17.153,8.101c4.052,3.646 6.078,9.452 6.078,17.418l0,122.87c0,4.996 -0.54,9.046 -1.756,12.152c-1.216,3.105 -3.512,5.671 -6.888,7.561c-3.377,1.89 -6.213,3.241 -8.509,3.916c-2.296,0.675 -6.213,1.755 -11.75,3.241c-1.081,0.405 -1.351,2.16 -0.81,5.401c0.54,3.241 1.351,4.726 2.566,4.591l0.27,0.27Zm96.84,-14.852c-13.101,0 -22.555,-1.89 -28.363,-5.536c-5.808,-3.646 -8.779,-9.316 -8.779,-16.878l0,-122.87c0,-7.156 1.891,-12.287 5.808,-15.392c3.917,-3.105 10.67,-4.591 20.259,-4.591c24.176,0 43.22,8.911 57.267,26.734c14.047,17.823 21.07,40.371 21.07,67.646c0.135,47.393 -22.285,71.156 -67.261,71.156l0,-0.27Z" style="fill:#003876;fill-rule:nonzero;"/><path d="M2448.379,2515.867c29.714,0 53.89,-9.857 72.529,-29.705c18.639,-19.848 27.958,-44.152 27.958,-72.912c0,-28.76 -9.454,-52.523 -28.228,-71.426c-18.774,-18.903 -42.68,-28.355 -71.718,-28.355c-29.714,0 -53.89,9.857 -72.529,29.705c-18.639,19.848 -27.958,44.017 -27.958,72.507c0,28.76 9.454,52.658 28.363,71.697c18.909,19.038 42.68,28.49 71.448,28.49l0.135,0Zm10.67,-18.768c-20.394,0 -38.493,-9.316 -54.16,-27.814c-15.667,-18.498 -23.501,-41.452 -23.501,-68.861c0,-12.422 1.756,-23.224 5.267,-32.405c3.512,-9.181 8.104,-16.203 13.911,-21.198c5.808,-4.996 11.75,-8.641 17.963,-10.937c6.213,-2.295 12.561,-3.376 19.179,-3.376c20.53,0 38.628,9.316 54.295,27.814c15.667,18.498 23.501,41.452 23.501,68.726c0,12.287 -1.756,23.089 -5.267,32.405c-3.512,9.316 -8.239,16.473 -14.182,21.468c-5.943,4.996 -12.021,8.641 -18.233,10.937c-6.213,2.295 -12.696,3.511 -19.314,3.511l0.54,-0.27Z" style="fill:#003876;fill-rule:nonzero;"/><path d="M2853.399,2501.959c-6.888,-0.675 -12.291,-2.835 -16.208,-6.346c-3.917,-3.511 -6.078,-9.722 -6.618,-18.498l-8.914,-158.785c-0.135,-2.295 -2.161,-3.511 -6.078,-3.511c-3.917,0 -6.483,1.215 -7.699,3.646l-74.42,150.009l-80.227,-150.009c-1.486,-2.295 -4.052,-3.511 -7.699,-3.511c-3.647,0 -5.538,1.215 -5.673,3.646l-8.914,158.785c-0.54,8.776 -2.701,14.987 -6.618,18.498c-3.917,3.511 -9.319,5.671 -16.343,6.346c-0.675,0 -1.081,0.81 -1.081,2.43c0,1.62 0.27,3.241 0.81,4.861c0.54,1.62 1.216,2.43 1.891,2.43l57.267,0c0.54,0 1.081,-0.81 1.621,-2.43c0.54,-1.62 0.81,-3.241 0.81,-4.861c0,-1.62 -0.405,-2.43 -1.081,-2.43c-13.506,-1.62 -19.989,-9.857 -19.449,-24.844l4.187,-94.245l63.885,121.114c1.756,3.376 4.592,4.996 8.644,4.996c6.618,0 10.13,-1.62 10.67,-4.996c1.081,-6.346 4.727,-15.798 11.075,-28.49l44.841,-91.275l5.267,92.895c0.81,14.312 -5.673,22.549 -19.314,24.844c-0.675,0.405 -0.945,1.35 -0.945,2.7c0,1.35 0.27,2.835 0.81,4.456c0.54,1.62 1.081,2.43 1.621,2.43l72.123,0c0.675,0 1.216,-0.81 1.756,-2.43c0.54,-1.62 0.81,-3.241 0.81,-4.861c0,-1.62 -0.405,-2.43 -1.081,-2.43l0.27,-0.135Z" style="fill:#003876;fill-rule:nonzero;"/><path d="M2912.389,2511.411l75.905,0c0.675,0 1.351,-0.81 1.891,-2.43c0.54,-1.62 0.81,-3.241 0.81,-4.861c0,-1.62 -0.405,-2.43 -1.081,-2.43c-7.158,-0.945 -12.831,-3.105 -16.883,-6.481c-4.052,-3.376 -6.078,-9.452 -6.078,-18.228l0,-125.03c0,-8.776 2.026,-14.852 6.078,-18.228c4.052,-3.376 9.725,-5.536 16.883,-6.481c0.675,0 1.081,-0.81 1.081,-2.43c0,-1.62 -0.27,-3.241 -0.81,-4.861c-0.54,-1.62 -1.216,-2.43 -1.891,-2.43l-75.905,0c-0.675,0 -1.351,0.81 -1.891,2.43c-0.54,1.62 -0.81,3.241 -0.81,4.861c0,1.62 0.405,2.43 1.081,2.43c7.564,1.08 13.236,3.376 17.153,7.021c3.917,3.646 5.808,9.587 5.808,17.823l0,125.03c0,8.236 -1.891,14.177 -5.808,17.823c-3.917,3.646 -9.589,5.941 -17.153,7.021c-0.675,0 -1.081,0.81 -1.081,2.43c0,1.62 0.27,3.241 0.81,4.861c0.54,1.62 1.216,2.43 1.891,2.43l0,-0.27Z" style="fill:#003876;fill-rule:nonzero;"/><path d="M3226.853,2514.111c2.566,0 4.592,-0.405 6.078,-1.215c1.486,-0.81 2.026,-2.16 1.486,-3.916c-2.161,-8.236 -3.242,-24.439 -3.242,-48.743l0,-107.612c0,-4.591 0.54,-8.371 1.486,-11.342c0.945,-2.97 2.836,-5.401 5.538,-7.291c2.701,-1.89 4.862,-3.105 6.483,-3.781c1.621,-0.675 4.592,-1.62 9.049,-2.835c1.216,-0.405 1.486,-2.025 0.945,-4.996c-0.54,-2.97 -1.351,-4.456 -2.431,-4.456l-65.505,0c-1.351,0 -2.296,1.485 -2.701,4.456c-0.405,2.97 -0.135,4.591 0.945,4.996c5.132,1.215 8.644,2.16 10.535,2.835c1.891,0.675 4.457,1.89 7.699,3.781c3.242,1.89 5.403,4.321 6.618,7.291c1.216,2.97 1.756,6.751 1.756,11.342l0,103.967l-128.85,-136.237c-1.486,-1.755 -3.647,-2.565 -6.618,-2.565l-20.53,0c-1.756,0 -3.106,0.675 -4.052,2.025c-0.945,1.35 -1.486,2.7 -1.486,4.186c0,0.27 0.135,0.54 0.405,0.945c0.27,0.405 0.675,0.81 1.216,1.35c0.54,0.54 1.081,1.215 1.756,2.025c0.675,0.81 1.216,1.62 1.756,2.295c6.888,9.181 10.265,22.009 10.265,38.616l0,107.342c0,8.101 -2.026,14.042 -6.078,17.958c-2.431,2.16 -7.969,4.726 -16.613,7.696c-1.216,0.405 -1.621,2.025 -1.081,4.996c0.54,2.97 1.351,4.456 2.431,4.456l65.505,0c1.351,0 2.296,-1.485 2.701,-4.456c0.405,-2.97 0.135,-4.591 -0.945,-4.996c-4.997,-1.215 -8.779,-2.295 -11.21,-3.105c-2.431,-0.81 -4.997,-2.16 -7.834,-4.051c-2.836,-1.89 -4.862,-4.321 -6.078,-7.291c-1.216,-2.97 -1.891,-6.751 -1.891,-11.342l0,-105.047l131.686,137.722c3.106,3.376 6.483,5.131 10.13,5.131l0.675,-0.135Z" style="fill:#003876;fill-rule:nonzero;"/><path d="M3312.991,2511.411l75.905,0c0.675,0 1.351,-0.81 1.891,-2.43c0.54,-1.62 0.81,-3.241 0.81,-4.861c0,-1.62 -0.405,-2.43 -1.081,-2.43c-7.158,-0.945 -12.831,-3.105 -16.883,-6.481c-4.052,-3.376 -6.078,-9.452 -6.078,-18.228l0,-125.03c0,-8.776 2.026,-14.852 6.078,-18.228c4.052,-3.376 9.725,-5.536 16.883,-6.481c0.675,0 1.081,-0.81 1.081,-2.43c0,-1.62 -0.27,-3.241 -0.81,-4.861c-0.54,-1.62 -1.216,-2.43 -1.891,-2.43l-75.905,0c-0.675,0 -1.351,0.81 -1.891,2.43c-0.54,1.62 -0.81,3.241 -0.81,4.861c0,1.62 0.405,2.43 1.081,2.43c7.564,1.08 13.236,3.376 17.153,7.021c3.917,3.646 5.808,9.587 5.808,17.823l0,125.03c0,8.236 -1.891,14.177 -5.808,17.823c-3.917,3.646 -9.589,5.941 -17.153,7.021c-0.675,0 -1.081,0.81 -1.081,2.43c0,1.62 0.27,3.241 0.81,4.861c0.54,1.62 1.216,2.43 1.891,2.43l0,-0.27Z" style="fill:#003876;fill-rule:nonzero;"/><path d="M3560.258,2515.867c5.538,0 15.127,-3.376 28.903,-10.262c13.776,-6.886 23.366,-14.177 28.633,-21.874c0.675,-1.215 0,-2.97 -2.026,-5.131c-2.026,-2.16 -3.512,-2.835 -4.592,-2.16c-6.213,4.051 -14.182,7.291 -23.906,9.587c-9.725,2.295 -16.613,3.511 -20.665,3.511c-9.995,0 -19.854,-1.755 -29.579,-5.266c-9.725,-3.511 -18.774,-8.641 -27.283,-15.392c-8.509,-6.751 -15.397,-15.933 -20.665,-27.679c-5.267,-11.747 -7.969,-25.114 -7.969,-40.101c0,-20.388 4.997,-36.456 14.992,-48.068c9.995,-11.612 24.581,-17.418 43.895,-17.418c8.779,0 17.153,1.215 24.987,3.781c7.834,2.565 13.911,5.131 18.098,7.831c4.187,2.7 8.104,4.861 11.75,6.616c3.647,1.755 6.618,2.025 8.779,0.675c2.161,-1.35 4.187,-4.861 5.943,-10.532l3.647,-10.802c1.081,-3.105 -0.81,-6.211 -5.808,-9.181c-4.997,-2.97 -12.021,-5.401 -21.205,-7.291c-9.184,-1.89 -19.044,-2.835 -29.579,-2.835c-18.504,0 -34.846,3.241 -49.163,9.587c-14.317,6.346 -25.527,14.717 -33.631,25.114c-8.104,10.397 -14.182,21.603 -18.098,33.485c-3.917,11.882 -5.943,24.169 -5.943,36.726c0,13.367 2.296,25.654 6.888,36.861c4.592,11.207 10.67,20.523 18.098,27.814c7.428,7.291 15.937,13.502 25.662,18.633c9.725,5.131 19.449,8.776 29.174,10.937c9.725,2.16 19.449,3.241 29.309,3.241l1.351,-0.405Z" style="fill:#003876;fill-rule:nonzero;"/><path d="M3870.265,2501.959c-5.943,-0.945 -10.805,-3.376 -14.722,-7.291c-3.917,-3.916 -8.239,-11.342 -12.966,-22.414l-67.396,-157.3c-0.405,-0.945 -3.917,-0.675 -10.4,0.675c-6.483,1.35 -9.725,2.565 -9.725,3.511c0,9.587 -4.727,24.979 -14.047,46.177l-46.867,107.207c-4.727,11.072 -9.049,18.498 -12.831,22.144c-3.782,3.646 -8.914,6.076 -15.262,7.156c-1.756,0.405 -2.431,2.025 -2.161,4.996c0.27,2.97 1.216,4.456 2.836,4.456l59.698,0c1.891,0 2.971,-1.485 3.242,-4.456c0.27,-2.97 -0.54,-4.591 -2.296,-4.996c-3.917,-0.54 -7.023,-1.215 -9.319,-2.025c-2.296,-0.81 -4.322,-2.16 -6.213,-4.186c-1.891,-2.025 -2.701,-4.996 -2.566,-8.776c0.135,-3.781 1.486,-8.506 3.917,-14.177l2.701,-6.886c1.351,-3.105 3.106,-5.131 5.403,-5.941c2.296,-0.81 5.673,-1.215 10.265,-1.215l56.456,0c4.592,0 8.104,0.405 10.4,1.215c2.296,0.81 4.052,2.835 5.267,5.941l2.971,6.886c2.431,5.806 3.782,10.532 4.187,14.312c0.405,3.781 -0.27,6.751 -2.026,8.776c-1.756,2.025 -3.647,3.511 -5.538,4.321c-1.891,0.81 -4.457,1.485 -7.564,2.025c-1.486,0.405 -2.161,2.025 -2.026,4.996c0.135,2.97 1.081,4.456 2.836,4.456l73.069,0c1.621,0 2.566,-1.485 2.836,-4.456c0.27,-2.97 -0.54,-4.591 -2.296,-4.996l0.135,-0.135Zm-84.279,-58.734l-52.269,0c-2.296,0 -4.187,-0.27 -5.538,-0.945c-1.351,-0.675 -1.621,-1.755 -0.945,-3.376l32.685,-77.367l32.415,77.367c0.54,1.35 0.405,2.295 -0.27,2.97c-0.675,0.675 -1.486,1.08 -2.566,1.215c-1.081,0.135 -2.296,0.27 -3.782,0.27l0.27,-0.135Z" style="fill:#003876;fill-rule:nonzero;"/><path d="M4110.033,2514.111c2.566,0 4.592,-0.405 6.078,-1.215c1.486,-0.81 2.026,-2.16 1.486,-3.916c-2.161,-8.236 -3.242,-24.439 -3.242,-48.743l0,-107.612c0,-4.591 0.54,-8.371 1.486,-11.342c0.945,-2.97 2.836,-5.401 5.538,-7.291c2.701,-1.89 4.862,-3.105 6.483,-3.781c1.621,-0.675 4.592,-1.62 9.049,-2.835c1.216,-0.405 1.486,-2.025 0.945,-4.996c-0.54,-2.97 -1.351,-4.456 -2.431,-4.456l-65.505,0c-1.351,0 -2.296,1.485 -2.701,4.456c-0.405,2.97 -0.135,4.591 0.945,4.996c5.132,1.215 8.644,2.16 10.535,2.835c1.891,0.675 4.457,1.89 7.699,3.781c3.242,1.89 5.403,4.321 6.618,7.291c1.216,2.97 1.756,6.751 1.756,11.342l0,103.967l-128.85,-136.237c-1.486,-1.755 -3.647,-2.565 -6.618,-2.565l-20.53,0c-1.756,0 -3.106,0.675 -4.052,2.025c-0.945,1.35 -1.486,2.7 -1.486,4.186c0,0.27 0.135,0.54 0.405,0.945c0.27,0.405 0.675,0.81 1.216,1.35c0.54,0.54 1.081,1.215 1.756,2.025c0.675,0.81 1.216,1.62 1.756,2.295c6.888,9.181 10.265,22.009 10.265,38.616l0,107.342c0,8.101 -2.026,14.042 -6.078,17.958c-2.431,2.16 -7.969,4.726 -16.613,7.696c-1.216,0.405 -1.621,2.025 -1.081,4.996c0.54,2.97 1.351,4.456 2.431,4.456l65.505,0c1.351,0 2.296,-1.485 2.701,-4.456c0.405,-2.97 0.135,-4.591 -0.945,-4.996c-4.997,-1.215 -8.779,-2.295 -11.21,-3.105c-2.431,-0.81 -4.997,-2.16 -7.834,-4.051c-2.836,-1.89 -4.862,-4.321 -6.078,-7.291c-1.216,-2.97 -1.891,-6.751 -1.891,-11.342l0,-105.047l131.686,137.722c3.106,3.376 6.483,5.131 10.13,5.131l0.675,-0.135Z" style="fill:#003876;fill-rule:nonzero;"/><path d="M4385.194,2501.959c-5.943,-0.945 -10.805,-3.376 -14.722,-7.291c-3.917,-3.916 -8.239,-11.342 -12.966,-22.414l-67.396,-157.3c-0.405,-0.945 -3.917,-0.675 -10.4,0.675c-6.483,1.35 -9.725,2.565 -9.725,3.511c0,9.587 -4.727,24.979 -14.047,46.177l-46.867,107.207c-4.727,11.072 -9.049,18.498 -12.831,22.144c-3.782,3.646 -8.914,6.076 -15.262,7.156c-1.756,0.405 -2.431,2.025 -2.161,4.996c0.27,2.97 1.216,4.456 2.836,4.456l59.698,0c1.891,0 2.971,-1.485 3.242,-4.456c0.27,-2.97 -0.54,-4.591 -2.296,-4.996c-3.917,-0.54 -7.023,-1.215 -9.319,-2.025c-2.296,-0.81 -4.322,-2.16 -6.213,-4.186c-1.891,-2.025 -2.701,-4.996 -2.566,-8.776c0.135,-3.781 1.486,-8.506 3.917,-14.177l2.701,-6.886c1.351,-3.105 3.106,-5.131 5.403,-5.941c2.296,-0.81 5.673,-1.215 10.265,-1.215l56.456,0c4.592,0 8.104,0.405 10.4,1.215c2.296,0.81 4.052,2.835 5.267,5.941l2.971,6.886c2.431,5.806 3.782,10.532 4.187,14.312c0.405,3.781 -0.27,6.751 -2.026,8.776c-1.756,2.025 -3.647,3.511 -5.538,4.321c-1.891,0.81 -4.457,1.485 -7.564,2.025c-1.486,0.405 -2.161,2.025 -2.026,4.996c0.135,2.97 1.081,4.456 2.836,4.456l73.069,0c1.621,0 2.566,-1.485 2.836,-4.456c0.27,-2.97 -0.54,-4.591 -2.296,-4.996l0.135,-0.135Zm-84.279,-58.734l-52.269,0c-2.296,0 -4.187,-0.27 -5.538,-0.945c-1.351,-0.675 -1.621,-1.755 -0.945,-3.376l32.685,-77.367l32.415,77.367c0.54,1.35 0.405,2.295 -0.27,2.97c-0.675,0.675 -1.486,1.08 -2.566,1.215c-1.081,0.135 -2.296,0.27 -3.782,0.27l0.27,-0.135Z" style="fill:#003876;fill-rule:nonzero;"/><path d="M1251.357,2147.535l38.705,0l0,30.341c-10.503,8.819 -23.339,13.226 -38.51,13.226c-16.727,0 -30.408,-5.185 -41.039,-15.56c-10.633,-10.372 -15.949,-24.181 -15.949,-41.427c0,-16.727 5.218,-30.405 15.657,-41.039c10.436,-10.63 23.953,-15.949 40.552,-15.949c17.505,0 31.119,5.318 40.844,15.949l8.169,-9.141c-11.542,-13.095 -28.269,-19.644 -50.18,-19.644c-19.45,0 -35.854,6.744 -49.207,20.228c-13.356,13.487 -20.033,30.019 -20.033,49.596c0,21.005 6.643,37.896 19.936,50.666c13.289,12.773 30.244,19.158 50.861,19.158c9.725,0 19.383,-1.781 28.98,-5.349c9.594,-3.565 17.243,-8.394 22.95,-14.49l0,-49.402l-51.736,0l0,12.837Z" style="fill:#003876;fill-rule:nonzero;"/><path d="M1354.828,2134.115c0,20.1 6.643,36.76 19.936,49.985c13.289,13.226 29.594,19.839 48.916,19.839c19.319,0 35.593,-6.643 48.818,-19.936c13.226,-13.289 19.839,-29.919 19.839,-49.888c0,-20.097 -6.613,-36.76 -19.839,-49.985c-13.226,-13.226 -29.499,-19.839 -48.818,-19.839c-19.322,0 -35.626,6.71 -48.916,20.13c-13.293,13.42 -19.936,29.986 -19.936,49.694Zm14.198,0c0,-16.338 5.315,-29.919 15.949,-40.747c10.63,-10.825 23.534,-16.24 38.705,-16.24c15.04,0 27.877,5.415 38.51,16.24c10.63,10.828 15.949,24.409 15.949,40.747c0,16.338 -5.188,29.922 -15.56,40.747c-10.375,10.828 -23.339,16.24 -38.899,16.24c-15.043,0 -27.91,-5.446 -38.607,-16.338c-10.697,-10.892 -16.046,-24.44 -16.046,-40.65Z" style="fill:#003876;fill-rule:nonzero;"/><path d="M1545.823,2202.189l52.514,0c35.915,0 53.875,-12.77 53.875,-38.316c0,-9.074 -2.334,-16.465 -7.002,-22.172c-4.668,-5.704 -11.022,-9.141 -19.061,-10.308c6.74,-2.462 11.928,-6.482 15.56,-12.059c3.629,-5.574 5.446,-12.186 5.446,-19.839c0,-10.503 -3.632,-18.702 -10.892,-24.604c-7.263,-5.899 -19.711,-8.85 -37.343,-8.85l-53.097,0l0,136.147Zm55.042,-63.211c24.895,0 37.343,8.041 37.343,24.117c0,9.077 -3.179,15.724 -9.53,19.936c-6.355,4.215 -16.21,6.321 -29.563,6.321l-39.483,0l0,-50.374l41.233,0Zm-2.139,-60.099c12.575,0 21.492,1.915 26.743,5.738c5.251,3.826 7.877,9.694 7.877,17.602c0,7.521 -2.917,13.42 -8.752,17.699c-5.835,4.279 -13.551,6.418 -23.145,6.418l-41.816,0l0,-47.457l39.094,0Z" style="fill:#003876;fill-rule:nonzero;"/><rect x="1709.393" y="2066.042" width="13.809" height="136.147" style="fill:#003876;fill-rule:nonzero;"/><path d="M1786.219,2202.189l98.998,0l0,-12.837l-85.189,0l0,-49.985l77.798,0l0,-12.837l-77.798,0l0,-47.651l83.244,0l0,-12.837l-97.053,0l0,136.147Z" style="fill:#003876;fill-rule:nonzero;"/><path d="M1951.345,2202.189l0,-55.626l39.677,0l42.789,55.626l16.727,0l-45.317,-58.154c10.503,-1.814 19.027,-6.19 25.576,-13.128c6.546,-6.935 9.822,-15.332 9.822,-25.187c0,-26.451 -17.246,-39.677 -51.736,-39.677l-51.347,0l0,136.147l13.809,0Zm36.954,-123.31c25.412,0 38.121,8.947 38.121,26.84c0,8.43 -3.373,15.204 -10.114,20.325c-6.744,5.124 -15.69,7.683 -26.84,7.683l-38.121,0l0,-54.848l36.954,0Z" style="fill:#003876;fill-rule:nonzero;"/><path d="M2210.997,2202.189l0,-136.147l-13.226,0l0,111.64l-88.884,-111.64l-10.892,0l0,136.147l13.226,0l0,-111.251l88.884,111.251l10.892,0Z" style="fill:#003876;fill-rule:nonzero;"/><path d="M2266.622,2134.115c0,20.1 6.643,36.76 19.936,49.985c13.289,13.226 29.594,19.839 48.916,19.839c19.319,0 35.593,-6.643 48.818,-19.936c13.226,-13.289 19.839,-29.919 19.839,-49.888c0,-20.097 -6.613,-36.76 -19.839,-49.985c-13.226,-13.226 -29.499,-19.839 -48.818,-19.839c-19.322,0 -35.626,6.71 -48.916,20.13c-13.293,13.42 -19.936,29.986 -19.936,49.694Zm14.198,0c0,-16.338 5.315,-29.919 15.949,-40.747c10.63,-10.825 23.534,-16.24 38.705,-16.24c15.04,0 27.877,5.415 38.51,16.24c10.63,10.828 15.949,24.409 15.949,40.747c0,16.338 -5.188,29.922 -15.56,40.747c-10.375,10.828 -23.339,16.24 -38.899,16.24c-15.043,0 -27.91,-5.446 -38.607,-16.338c-10.697,-10.892 -16.046,-24.44 -16.046,-40.65Z" style="fill:#003876;fill-rule:nonzero;"/><path d="M2539.305,2202.189l39.872,0c24.895,0 43.761,-6.516 56.598,-19.547c12.837,-13.031 19.255,-29.855 19.255,-50.472c0,-9.205 -1.361,-17.666 -4.084,-25.382c-2.723,-7.713 -6.905,-14.684 -12.545,-20.908c-5.64,-6.224 -13.356,-11.086 -23.145,-14.587c-9.792,-3.501 -21.233,-5.251 -34.328,-5.251l-41.622,0l0,136.147Zm41.233,-123.31c20.875,0 36.143,4.832 45.804,14.49c9.658,9.661 14.49,22.595 14.49,38.802c0,17.246 -5.026,31.089 -15.073,41.525c-10.05,10.439 -25.318,15.657 -45.804,15.657l-26.84,0l0,-110.473l27.424,0Z" style="fill:#003876;fill-rule:nonzero;"/><path d="M2710.461,2202.189l98.998,0l0,-12.837l-85.189,0l0,-49.985l77.798,0l0,-12.837l-77.798,0l0,-47.651l83.244,0l0,-12.837l-97.053,0l0,136.147Z" style="fill:#003876;fill-rule:nonzero;"/><path d="M2941.521,2202.189l96.664,0l0,-12.837l-82.855,0l0,-123.31l-13.809,0l0,136.147Z" style="fill:#003876;fill-rule:nonzero;"/><path d="M3075.723,2202.189l14.004,0l15.949,-37.343l69.824,0l16.532,37.343l14.393,0l-59.71,-136.536l-11.281,0l-59.71,136.536Zm64.961,-118.253l29.758,68.462l-59.127,0l29.369,-68.462Z" style="fill:#003876;fill-rule:nonzero;"/><g id="Cupula"><path d="M2175.849,317.708c-6.229,0 -11.308,5.083 -11.308,11.333l0,195.667c0,6.25 5.079,11.333 11.308,11.333l36.646,0c6.229,0 11.279,-5.083 11.279,-11.333l0,-195.667c0,-6.25 -5.05,-11.333 -11.279,-11.333l-36.646,0Z" style="fill:#003876;fill-rule:nonzero;"/><path d="M2080.091,317.708c-6.229,0 -11.308,5.083 -11.308,11.333l0,195.667c0,6.25 5.079,11.333 11.308,11.333l36.617,0c6.258,0 11.308,-5.083 11.308,-11.333l0,-195.667c0,-6.25 -5.05,-11.333 -11.308,-11.333l-36.617,0Z" style="fill:#003876;fill-rule:nonzero;"/><path d="M1937.766,759.792c41.871,-65.542 89.087,-111.042 89.087,-111.042l1.179,-1.541c0,0 -0.371,0.208 -0.596,0.333c-0.008,0 0.075,-0.083 0.037,-0.042c-164.6,71.542 -305.925,211.875 -404.842,395.292c-4.858,8.125 -9.812,16.083 -14.517,24.541c-18.308,32.876 -33.571,66.417 -47.217,99.917c-48.567,119.542 -69.679,238.834 -78.529,327.5c-1.871,15.416 -3.575,30.958 -4.946,46.583c-0.058,0.792 -0.204,2.375 -0.204,2.375l1.191,0l-0.012,0.167l216.967,0.666l34.729,0.125l-0.554,-2.875c0.171,-7.625 0.691,-29.916 1.175,-43.583c-0.679,19.291 -1.271,-57.292 8.771,-154.292c24.213,-233.584 95.05,-422.542 198.279,-584.125Z" style="fill:#003876;fill-rule:nonzero;"/><path d="M2005.503,301.791l376.45,0c3.458,0 6.262,-2.833 6.262,-6.292l0,-14.417c0,-3.459 -2.804,-6.25 -6.262,-6.25l-376.45,0c-3.454,0 -6.258,2.791 -6.258,6.25l0,14.417c0,3.459 2.804,6.292 6.258,6.292Z" style="fill:#003876;fill-rule:nonzero;"/><path d="M2005.503,586l376.45,0c3.458,0 6.262,-2.833 6.262,-6.292l0,-14.417c0,-3.458 -2.804,-6.25 -6.262,-6.25l-376.45,0c-3.454,0 -6.258,2.792 -6.258,6.25l0,14.417c0,3.459 2.804,6.292 6.258,6.292Z" style="fill:#003876;fill-rule:nonzero;"/><path d="M2911.954,1540.834c-1.375,-15.625 -3.083,-31.125 -4.959,-46.542c-8.833,-88.707 -29.958,-207.958 -78.5,-327.416c-13.667,-33.5 -28.916,-67 -47.25,-99.917c-4.542,-8.125 -9.333,-15.792 -14,-23.626c-98.958,-183.833 -240.484,-324.458 -405.367,-396.083c-0.025,0 0.033,0.042 0.021,0.042c-0.192,-0.125 -0.554,-0.334 -0.554,-0.334l1.15,1.541c0,0 47.246,45.501 89.117,111.001c103.229,161.583 174.05,350.499 198.258,583.958c10.042,96.958 9.458,173.584 8.792,154.25c0.5,13.667 1,35.959 1.167,43.583l-0.542,2.876l34.584,-0.125l217.125,-0.626c0,0 -0.042,-0.167 -0.042,-0.208l1.208,0c0,0 -0.166,-1.584 -0.208,-2.375Z" style="fill:#003876;fill-rule:nonzero;"/><path d="M2552.562,649.583c12.342,9.084 26.475,19.958 42.1,32.792c35.958,29.624 66.208,60.292 93.459,89.083c89.375,94.376 138.958,183.876 187.625,279.542c27,53.083 44.417,102.375 59.875,146.334c2.917,8.333 27.5,76.124 43,153.666c18.167,90.792 27.375,192.583 27.375,192.583l139.334,0c0,0 -0.083,-0.917 -0.25,-2.25l5.417,2.083l0,-1.083c-15.292,-420.291 -279.708,-776.958 -649.809,-926.458c-0.471,-0.167 -1.417,-0.584 -1.417,-0.584c0,0 13.879,7.292 30.767,18.792c6.833,4.667 14.508,9.959 22.525,15.5Z" style="fill:#003876;fill-rule:nonzero;"/><path d="M2339.791,254.958c-0.646,-82.5 -64.304,-149.249 -143.183,-150.625l0,-24.459l39.571,0l0,-4.292c0.008,-0.042 0.117,-0.042 0.117,-0.124l0,-14.542c0,-0.751 -0.621,-1.334 -1.358,-1.334l-5.875,0c-0.742,0 -1.329,0.583 -1.329,1.334l0,14.333l-31.125,0l0,-56.25l0.829,0c0.946,0 1.713,-0.791 1.713,-1.709l0,-15.583c0,-0.958 -0.767,-1.708 -1.713,-1.708l-6.85,0c-0.946,0 -1.713,0.75 -1.713,1.708l0,15.583c0,0.918 0.766,1.709 1.713,1.709l0.971,0l0,56.25l-31.504,0l0,-14.333c0,-0.751 -0.621,-1.334 -1.359,-1.334l-5.875,0c-0.738,0 -1.329,0.583 -1.329,1.334l0,14.542c0,0.082 0.083,0.042 0.088,0.124l0,4.292l39.979,0l0,24.459c-79.017,1.458 -142.708,68.5 -143.063,151.25l0,0.666l291.296,0l0,-1.292Z" style="fill:#003876;fill-rule:nonzero;"/><path d="M2247.366,667.959c-1.329,-1.167 -4.017,-3.417 -4.017,-3.417l-0.054,879l322.45,1.125c0,0 0.042,-9.083 0.042,-13.667c0,-374.791 -129.117,-700.167 -318.421,-863.041Z" style="fill:#003876;fill-rule:nonzero;"/><path d="M2271.049,317.708c-6.229,0 -11.279,5.083 -11.279,11.333l0,195.667c0,6.25 5.05,11.333 11.279,11.333l36.642,0c6.233,0 11.279,-5.083 11.279,-11.333l0,-195.667c0,-6.25 -5.046,-11.333 -11.279,-11.333l-36.642,0Z" style="fill:#003876;fill-rule:nonzero;"/><path d="M2237.033,1785.958c6.229,0 11.279,-5.042 11.279,-11.25l0,-85.25c0,-6.25 -5.05,-11.292 -11.279,-11.292l-85.246,0c-6.233,0 -11.279,5.042 -11.279,11.292l0,85.25c0,6.208 5.046,11.25 11.279,11.25l85.246,0Z" style="fill:#003876;fill-rule:nonzero;"/><path d="M2654.662,1786c6.208,0 11.292,-5.042 11.292,-11.292l0,-85.166c0,-6.208 -5.083,-11.292 -11.292,-11.292l-85.208,0c-6.254,0 -11.304,5.083 -11.304,11.292l0,85.166c0,6.25 5.05,11.292 11.304,11.292l85.208,0Z" style="fill:#003876;fill-rule:nonzero;"/><path d="M2146.058,1544l-0.058,-879.25c0,0 -2.687,2.292 -4.017,3.459c-189.275,162.916 -318.4,488.375 -318.4,863.25c0,4.583 0.029,13.667 0.029,13.667l322.446,-1.125Z" style="fill:#003876;fill-rule:nonzero;"/><path d="M3200.079,1615.25l-4.708,0c-0.125,0 -0.209,-0.083 -0.292,-0.083l-184.666,0l0,-32.041c0,-5.25 -4.25,-9.458 -9.458,-9.458l-88.875,0c-5.25,0 -9.458,4.208 -9.458,9.458l0,32.041l-236.625,0l0,-32.041c0,-5.25 -4.208,-9.458 -9.417,-9.458l-88.875,0c-5.246,0 -9.467,4.208 -9.467,9.458l0,32.041l-309.983,0l0,-32.25c0,-5.208 -4.225,-9.458 -9.45,-9.458l-88.908,0c-5.225,0 -9.479,4.25 -9.479,9.458l0,32.25l-309.775,0l0,-32.25c0,-5.208 -4.254,-9.458 -9.45,-9.458l-88.908,0c-5.229,0 -9.479,4.25 -9.479,9.458l0,32.25l-236.667,0l0,-32.25c0,-5.208 -4.25,-9.458 -9.479,-9.458l-88.879,0c-5.225,0 -9.479,4.25 -9.479,9.458l0,32.25l-183.812,0c-0.1,0 -0.187,0.083 -0.292,0.083l-4.933,0c-3.454,0 -6.258,2.792 -6.258,6.25l0,16.959c0,3.459 2.804,6.292 6.258,6.292l2010.817,0c3.458,0 6.25,-2.833 6.25,-6.292l0,-16.959c0,-3.458 -2.792,-6.25 -6.25,-6.25Z" style="fill:#003876;fill-rule:nonzero;"/><path d="M2999.079,1786c6.208,0 11.25,-5.042 11.25,-11.292l0,-85.166c0,-6.208 -5.042,-11.292 -11.25,-11.292l-85.25,0c-6.208,0 -11.25,5.083 -11.25,11.292l0,85.166c0,6.25 5.042,11.292 11.25,11.292l85.25,0Z" style="fill:#003876;fill-rule:nonzero;"/><path d="M1819.42,1785.958c6.229,0 11.279,-5.042 11.279,-11.25l0,-85.25c0,-6.25 -5.05,-11.292 -11.279,-11.292l-85.25,0c-6.229,0 -11.279,5.042 -11.279,11.292l0,85.25c0,6.208 5.05,11.25 11.279,11.25l85.25,0Z" style="fill:#003876;fill-rule:nonzero;"/><path d="M3195.037,1811.333l-2000.754,0c-6.229,0 -11.279,5.083 -11.279,11.292l0,47.334c0,6.25 5.05,11.292 11.279,11.292l2000.754,0c6.25,0 11.292,-5.042 11.292,-11.292l0,-47.334c0,-6.208 -5.042,-11.292 -11.292,-11.292Z" style="fill:#003876;fill-rule:nonzero;"/><path d="M1244.037,1544.084l52.229,0l49.2,0.167l0.042,-0.167l37.871,0c0,0 9.212,-101.834 27.375,-192.667c15.5,-77.542 40.096,-145.376 43.021,-153.709c15.442,-43.917 32.867,-93.291 59.854,-146.333c48.692,-95.708 98.238,-185.25 187.592,-279.667c27.283,-28.791 57.517,-59.458 93.483,-89.083c15.354,-12.667 29.287,-23.375 41.504,-32.375c8.237,-5.709 16.129,-11.167 23.133,-15.917c16.858,-11.542 30.767,-18.833 30.767,-18.833c0,0 -0.946,0.375 -1.417,0.584c-370.104,149.583 -634.496,506.332 -649.792,926.708c0,0.375 -0.029,1.083 -0.029,1.083l5.187,0c-0.004,0.042 -0.021,0.209 -0.021,0.209Z" style="fill:#003876;fill-rule:nonzero;"/><path d="M1474.916,1785.958c6.229,0 11.279,-5.042 11.279,-11.25l0,-85.25c0,-6.25 -5.05,-11.292 -11.279,-11.292l-85.246,0c-6.233,0 -11.308,5.042 -11.308,11.292l0,85.25c0,6.208 5.075,11.25 11.308,11.25l85.246,0Z" style="fill:#003876;fill-rule:nonzero;"/></g></g><g id="Cupula1" serif:id="Cupula"></g></svg>