<?xml version="1.0" encoding="UTF-8" standalone="no"?><!DOCTYPE svg PUBLIC "-//W3C//DTD SVG 1.1//EN" "http://www.w3.org/Graphics/SVG/1.1/DTD/svg11.dtd"><svg width="100%" height="100%" viewBox="0 0 4388 3416" version="1.1" xmlns="http://www.w3.org/2000/svg" xmlns:xlink="http://www.w3.org/1999/xlink" xml:space="preserve" xmlns:serif="http://www.serif.com/" style="fill-rule:evenodd;clip-rule:evenodd;stroke-linejoin:round;stroke-miterlimit:2;"><g><path d="M973.41,3399.218c-8.173,-0.801 -14.583,-3.365 -19.231,-7.532c-4.647,-4.167 -7.212,-11.538 -7.853,-21.955l-10.577,-188.461c-0.16,-2.724 -2.564,-4.167 -7.212,-4.167c-4.647,0 -7.692,1.442 -9.135,4.327l-88.301,178.045l-95.192,-178.045c-1.763,-2.724 -4.808,-4.167 -9.135,-4.167c-4.327,0 -6.571,1.442 -6.731,4.327l-10.577,188.461c-0.641,10.417 -3.205,17.788 -7.853,21.955c-4.647,4.167 -11.058,6.731 -19.391,7.532c-0.801,0 -1.282,0.962 -1.282,2.885c0,1.923 0.321,3.846 0.962,5.769c0.641,1.923 1.442,2.885 2.244,2.885l67.949,0c0.641,0 1.282,-0.962 1.923,-2.885c0.641,-1.923 0.962,-3.846 0.962,-5.769c0,-1.923 -0.481,-2.885 -1.282,-2.885c-16.026,-1.923 -23.718,-11.699 -23.077,-29.487l4.968,-111.859l75.801,143.75c2.083,4.006 5.449,5.929 10.256,5.929c7.853,0 12.019,-1.923 12.66,-5.929c1.282,-7.532 5.609,-18.75 13.141,-33.814l53.205,-108.333l6.25,110.256c0.962,16.987 -6.731,26.763 -22.917,29.487c-0.801,0.481 -1.122,1.603 -1.122,3.205c0,1.603 0.321,3.365 0.962,5.288c0.641,1.923 1.282,2.885 1.923,2.885l85.577,0c0.801,0 1.442,-0.962 2.083,-2.885c0.641,-1.923 0.962,-3.846 0.962,-5.769c0,-1.923 -0.481,-2.885 -1.282,-2.885l0.321,-0.16Z" style="fill:#ee2a24;fill-rule:nonzero;"/><path d="M992.647,3411.077c13.301,-1.282 45.192,-1.923 95.673,-1.923c18.109,0 39.423,0.641 63.942,1.923c9.455,0 17.628,-5.769 24.519,-17.468c6.891,-11.699 10.256,-22.436 10.256,-32.212c0,-2.724 -1.603,-4.487 -4.808,-5.288c-3.205,-0.801 -5.288,-0.321 -6.41,1.603c-14.904,23.397 -40.705,35.096 -77.244,35.096c-13.301,0 -22.436,-1.923 -27.404,-5.769c-4.968,-3.846 -7.532,-10.417 -7.532,-19.872l0,-55.128c0,-4.006 0.801,-6.731 2.564,-8.173c1.763,-1.442 4.487,-2.083 8.173,-2.083l4.487,0c21.955,0 36.378,4.968 43.429,14.744c1.923,2.724 3.846,4.006 5.929,4.006c2.083,0 3.686,-1.442 4.968,-4.327l18.75,-41.346c1.282,-3.045 0.801,-4.968 -1.442,-5.769c-2.244,-0.801 -4.327,-0.321 -6.09,1.442c-10.897,9.776 -31.891,14.744 -62.981,14.744l-7.212,0c-3.686,0 -6.41,-0.641 -8.173,-2.083c-1.763,-1.442 -2.724,-4.167 -2.724,-8.173l0,-53.526c0,-8.494 2.244,-14.423 6.731,-17.788c4.487,-3.365 12.34,-5.128 23.718,-5.128c19.231,0 32.692,2.083 40.385,6.09c7.692,4.006 12.821,10.417 15.545,19.231c0.641,2.083 2.404,3.205 5.288,3.205c2.885,0 4.487,-1.122 4.968,-3.205l7.853,-31.25c1.122,-3.686 1.282,-6.731 0.481,-9.135c-0.801,-2.404 -3.045,-3.526 -6.731,-3.526c-6.09,0.16 -14.103,0.481 -24.199,0.801c-10.096,0.321 -19.391,0.641 -28.045,0.962c-8.654,0.321 -17.308,0.481 -26.122,0.481c-44.712,-0.16 -73.077,-0.801 -85.096,-2.083c-1.442,-0.16 -2.404,1.603 -2.885,5.288c-0.481,3.686 -0.16,5.609 1.122,5.769c8.814,2.083 15.545,5.288 20.353,9.615c4.808,4.327 7.212,11.218 7.212,20.673l0,145.833c0,5.929 -0.641,10.737 -2.083,14.423c-1.442,3.686 -4.167,6.731 -8.173,8.974c-4.006,2.244 -7.372,3.846 -10.096,4.647c-2.724,0.801 -7.372,2.083 -13.942,3.846c-1.282,0.481 -1.603,2.564 -0.962,6.41c0.641,3.846 1.603,5.609 3.045,5.449l0.962,0Z" style="fill:#ee2a24;fill-rule:nonzero;"/><path d="M1205.314,3411.077c12.019,-1.282 29.167,-1.923 51.442,-1.923c8.814,0 19.872,0.321 33.333,0.962c13.462,0.641 22.436,0.962 27.083,0.962c25.641,0 47.917,-5.769 66.987,-17.308c19.07,-11.538 33.173,-26.282 42.308,-44.231c9.135,-17.949 13.622,-37.66 13.622,-59.135c0,-32.532 -10.737,-59.135 -32.212,-79.647c-21.474,-20.513 -51.603,-30.769 -90.224,-30.769c-4.808,0 -14.583,0.321 -29.327,0.962c-14.744,0.641 -26.763,0.962 -35.897,0.962c-16.667,-0.16 -30.288,-0.801 -41.026,-2.083c-1.442,-0.16 -2.404,1.603 -2.885,5.288c-0.481,3.686 -0.16,5.609 1.122,5.769c8.814,2.083 15.545,5.288 20.353,9.615c4.808,4.327 7.212,11.218 7.212,20.673l0,145.833c0,5.929 -0.641,10.737 -2.083,14.423c-1.442,3.686 -4.167,6.731 -8.173,8.974c-4.006,2.244 -7.372,3.846 -10.096,4.647c-2.724,0.801 -7.372,2.083 -13.942,3.846c-1.282,0.481 -1.603,2.564 -0.962,6.41c0.641,3.846 1.603,5.609 3.045,5.449l0.321,0.321Zm114.904,-17.628c-15.545,0 -26.763,-2.244 -33.654,-6.571c-6.891,-4.327 -10.417,-11.058 -10.417,-20.032l0,-145.833c0,-8.494 2.244,-14.583 6.891,-18.269c4.647,-3.686 12.66,-5.449 24.038,-5.449c28.686,0 51.282,10.577 67.949,31.731c16.667,21.154 25,47.917 25,80.288c0.16,56.25 -26.442,84.455 -79.808,84.455l0,-0.321Z" style="fill:#ee2a24;fill-rule:nonzero;"/><path d="M1461.089,3410.436l90.064,0c0.801,0 1.603,-0.962 2.244,-2.885c0.641,-1.923 0.962,-3.846 0.962,-5.769c0,-1.923 -0.481,-2.885 -1.282,-2.885c-8.494,-1.122 -15.224,-3.686 -20.032,-7.692c-4.808,-4.006 -7.212,-11.218 -7.212,-21.635l0,-148.397c0,-10.417 2.404,-17.628 7.212,-21.635c4.808,-4.006 11.538,-6.571 20.032,-7.692c0.801,0 1.282,-0.962 1.282,-2.885c0,-1.923 -0.321,-3.846 -0.962,-5.769c-0.641,-1.923 -1.442,-2.885 -2.244,-2.885l-90.064,0c-0.801,0 -1.603,0.962 -2.244,2.885c-0.641,1.923 -0.962,3.846 -0.962,5.769c0,1.923 0.481,2.885 1.282,2.885c8.974,1.282 15.705,4.006 20.353,8.333c4.647,4.327 6.891,11.378 6.891,21.154l0,148.397c0,9.776 -2.244,16.827 -6.891,21.154c-4.647,4.327 -11.378,7.051 -20.353,8.333c-0.801,0 -1.282,0.962 -1.282,2.885c0,1.923 0.321,3.846 0.962,5.769c0.641,1.923 1.442,2.885 2.244,2.885l0,-0.321Z" style="fill:#ee2a24;fill-rule:nonzero;"/><path d="M1697.313,3415.724c35.256,0 63.942,-11.699 86.058,-35.256c22.115,-23.558 33.173,-52.404 33.173,-86.538c0,-34.135 -11.218,-62.34 -33.494,-84.776c-22.276,-22.436 -50.641,-33.654 -85.096,-33.654c-35.256,0 -63.942,11.699 -86.058,35.256c-22.115,23.558 -33.173,52.244 -33.173,86.058c0,34.135 11.218,62.5 33.654,85.096c22.436,22.596 50.641,33.814 84.776,33.814l0.16,0Zm12.66,-22.276c-24.199,0 -45.673,-11.058 -64.263,-33.013c-18.59,-21.955 -27.885,-49.199 -27.885,-81.731c0,-14.744 2.083,-27.564 6.25,-38.462c4.167,-10.897 9.615,-19.231 16.506,-25.16c6.891,-5.929 13.942,-10.256 21.314,-12.981c7.372,-2.724 14.904,-4.006 22.756,-4.006c24.359,0 45.833,11.058 64.423,33.013c18.59,21.955 27.885,49.199 27.885,81.57c0,14.583 -2.083,27.404 -6.25,38.462c-4.167,11.058 -9.776,19.551 -16.827,25.481c-7.051,5.929 -14.263,10.256 -21.635,12.981c-7.372,2.724 -15.064,4.167 -22.917,4.167l0.641,-0.321Z" style="fill:#ee2a24;fill-rule:nonzero;"/><path d="M2138.672,3399.218c-7.051,-1.122 -12.821,-4.006 -17.468,-8.654c-4.647,-4.647 -9.776,-13.462 -15.385,-26.603l-79.968,-186.699c-0.481,-1.122 -4.647,-0.801 -12.34,0.801c-7.692,1.603 -11.538,3.045 -11.538,4.167c0,11.378 -5.609,29.647 -16.667,54.808l-55.609,127.243c-5.609,13.141 -10.737,21.955 -15.224,26.282c-4.487,4.327 -10.577,7.212 -18.109,8.494c-2.083,0.481 -2.885,2.404 -2.564,5.929c0.321,3.526 1.442,5.288 3.365,5.288l70.833,0c2.244,0 3.526,-1.763 3.846,-5.288c0.321,-3.526 -0.641,-5.449 -2.724,-5.929c-4.647,-0.641 -8.333,-1.442 -11.058,-2.404c-2.724,-0.962 -5.128,-2.564 -7.372,-4.968c-2.244,-2.404 -3.205,-5.929 -3.045,-10.417c0.16,-4.487 1.763,-10.096 4.647,-16.827l3.205,-8.173c1.603,-3.686 3.686,-6.09 6.41,-7.051c2.724,-0.962 6.731,-1.442 12.179,-1.442l66.987,0c5.449,0 9.615,0.481 12.34,1.442c2.724,0.962 4.808,3.365 6.25,7.051l3.526,8.173c2.885,6.891 4.487,12.5 4.968,16.987c0.481,4.487 -0.321,8.013 -2.404,10.417c-2.083,2.404 -4.327,4.167 -6.571,5.128c-2.244,0.962 -5.288,1.763 -8.974,2.404c-1.763,0.481 -2.564,2.404 -2.404,5.929c0.16,3.526 1.282,5.288 3.365,5.288l86.699,0c1.923,0 3.045,-1.763 3.365,-5.288c0.321,-3.526 -0.641,-5.449 -2.724,-5.929l0.16,-0.16Zm-100,-69.711l-62.019,0c-2.724,0 -4.968,-0.321 -6.571,-1.122c-1.603,-0.801 -1.923,-2.083 -1.122,-4.006l38.782,-91.827l38.462,91.827c0.641,1.603 0.481,2.724 -0.321,3.526c-0.801,0.801 -1.763,1.282 -3.045,1.442c-1.282,0.16 -2.724,0.321 -4.487,0.321l0.321,-0.16Z" style="fill:#ee2a24;fill-rule:nonzero;"/><path d="M2448.774,3399.218c-8.173,-0.801 -14.583,-3.365 -19.231,-7.532c-4.647,-4.167 -7.212,-11.538 -7.853,-21.955l-10.577,-188.461c-0.16,-2.724 -2.564,-4.167 -7.212,-4.167c-4.647,0 -7.692,1.442 -9.135,4.327l-88.301,178.045l-95.192,-178.045c-1.763,-2.724 -4.808,-4.167 -9.135,-4.167c-4.327,0 -6.571,1.442 -6.731,4.327l-10.577,188.461c-0.641,10.417 -3.205,17.788 -7.853,21.955c-4.647,4.167 -11.058,6.731 -19.391,7.532c-0.801,0 -1.282,0.962 -1.282,2.885c0,1.923 0.321,3.846 0.962,5.769c0.641,1.923 1.442,2.885 2.244,2.885l67.949,0c0.641,0 1.282,-0.962 1.923,-2.885c0.641,-1.923 0.962,-3.846 0.962,-5.769c0,-1.923 -0.481,-2.885 -1.282,-2.885c-16.026,-1.923 -23.718,-11.699 -23.077,-29.487l4.968,-111.859l75.801,143.75c2.083,4.006 5.449,5.929 10.256,5.929c7.853,0 12.019,-1.923 12.66,-5.929c1.282,-7.532 5.609,-18.75 13.141,-33.814l53.205,-108.333l6.25,110.256c0.962,16.987 -6.731,26.763 -22.917,29.487c-0.801,0.481 -1.122,1.603 -1.122,3.205c0,1.603 0.321,3.365 0.962,5.288c0.641,1.923 1.282,2.885 1.923,2.885l85.577,0c0.801,0 1.442,-0.962 2.083,-2.885c0.641,-1.923 0.962,-3.846 0.962,-5.769c0,-1.923 -0.481,-2.885 -1.282,-2.885l0.321,-0.16Z" style="fill:#ee2a24;fill-rule:nonzero;"/><path d="M2609.678,3285.436l0,-2.083c12.019,-2.404 21.955,-8.013 29.808,-16.827c7.853,-8.814 11.699,-19.712 11.538,-32.692c-0.16,-17.308 -7.532,-30.609 -22.115,-39.904c-14.583,-9.295 -33.013,-13.942 -55.288,-13.942c-3.686,0 -12.179,0.321 -25.481,0.962c-13.301,0.641 -24.84,0.962 -34.455,0.962c-15.705,-0.16 -28.846,-0.801 -39.583,-2.083c-1.442,-0.16 -2.404,1.603 -2.885,5.288c-0.481,3.686 -0.16,5.609 1.122,5.769c8.814,2.083 15.545,5.288 20.353,9.615c4.808,4.327 7.212,11.218 7.212,20.673l0,145.833c0,5.929 -0.641,10.737 -2.083,14.423c-1.442,3.686 -4.167,6.731 -8.173,8.974c-4.006,2.244 -7.372,3.846 -10.096,4.647c-2.724,0.801 -7.372,2.083 -13.942,3.846c-1.282,0.481 -1.603,2.564 -0.962,6.41c0.641,3.846 1.603,5.609 3.045,5.449c12.019,-1.282 29.167,-1.923 51.442,-1.923c8.814,0 19.551,0.321 32.372,0.962c12.821,0.641 21.474,0.962 26.122,0.962c27.564,0 49.679,-6.09 66.506,-18.269c16.827,-12.179 25.16,-28.365 25.16,-48.718c0,-17.468 -5.929,-31.57 -17.788,-42.308c-11.859,-10.737 -25.962,-16.186 -42.147,-16.186l0.321,0.16Zm-47.436,-88.461c14.263,0 25.801,3.846 34.615,11.538c8.814,7.692 13.301,19.07 13.301,33.974c-0.16,24.84 -12.66,37.179 -37.5,37.179l-33.814,0l0,-58.494c0,-9.135 1.763,-15.385 5.128,-18.91c3.365,-3.526 9.455,-5.288 18.269,-5.288Zm14.423,196.955c-13.782,0 -23.558,-2.083 -29.327,-6.41c-5.769,-4.327 -8.654,-11.218 -8.654,-20.673l0,-70.994l33.814,0c16.026,0 29.167,4.808 39.263,14.423c10.096,9.615 15.224,23.237 15.224,40.705c0,16.026 -4.487,27.244 -13.301,33.494c-8.814,6.25 -21.314,9.455 -37.34,9.455l0.321,0Z" style="fill:#ee2a24;fill-rule:nonzero;"/><path d="M2695.902,3410.436l90.064,0c0.801,0 1.603,-0.962 2.244,-2.885c0.641,-1.923 0.962,-3.846 0.962,-5.769c0,-1.923 -0.481,-2.885 -1.282,-2.885c-8.494,-1.122 -15.224,-3.686 -20.032,-7.692c-4.808,-4.006 -7.212,-11.218 -7.212,-21.635l0,-148.397c0,-10.417 2.404,-17.628 7.212,-21.635c4.808,-4.006 11.538,-6.571 20.032,-7.692c0.801,0 1.282,-0.962 1.282,-2.885c0,-1.923 -0.321,-3.846 -0.962,-5.769c-0.641,-1.923 -1.442,-2.885 -2.244,-2.885l-90.064,0c-0.801,0 -1.603,0.962 -2.244,2.885c-0.641,1.923 -0.962,3.846 -0.962,5.769c0,1.923 0.481,2.885 1.282,2.885c8.974,1.282 15.705,4.006 20.353,8.333c4.647,4.327 6.891,11.378 6.891,21.154l0,148.397c0,9.776 -2.244,16.827 -6.891,21.154c-4.647,4.327 -11.378,7.051 -20.353,8.333c-0.801,0 -1.282,0.962 -1.282,2.885c0,1.923 0.321,3.846 0.962,5.769c0.641,1.923 1.442,2.885 2.244,2.885l0,-0.321Z" style="fill:#ee2a24;fill-rule:nonzero;"/><path d="M2807.127,3411.077c13.301,-1.282 45.192,-1.923 95.673,-1.923c18.109,0 39.423,0.641 63.942,1.923c9.455,0 17.628,-5.769 24.519,-17.468c6.891,-11.699 10.256,-22.436 10.256,-32.212c0,-2.724 -1.603,-4.487 -4.808,-5.288c-3.205,-0.801 -5.288,-0.321 -6.41,1.603c-14.904,23.397 -40.705,35.096 -77.244,35.096c-13.301,0 -22.436,-1.923 -27.404,-5.769c-4.968,-3.846 -7.532,-10.417 -7.532,-19.872l0,-55.128c0,-4.006 0.801,-6.731 2.564,-8.173c1.763,-1.442 4.487,-2.083 8.173,-2.083l4.487,0c21.955,0 36.378,4.968 43.429,14.744c1.923,2.724 3.846,4.006 5.929,4.006c2.083,0 3.686,-1.442 4.968,-4.327l18.75,-41.346c1.282,-3.045 0.801,-4.968 -1.442,-5.769c-2.244,-0.801 -4.327,-0.321 -6.09,1.442c-10.897,9.776 -31.891,14.744 -62.981,14.744l-7.212,0c-3.686,0 -6.41,-0.641 -8.173,-2.083c-1.763,-1.442 -2.724,-4.167 -2.724,-8.173l0,-53.526c0,-8.494 2.244,-14.423 6.731,-17.788c4.487,-3.365 12.34,-5.128 23.718,-5.128c19.231,0 32.692,2.083 40.385,6.09c7.692,4.006 12.821,10.417 15.545,19.231c0.641,2.083 2.404,3.205 5.288,3.205c2.885,0 4.487,-1.122 4.968,-3.205l7.853,-31.25c1.122,-3.686 1.282,-6.731 0.481,-9.135c-0.801,-2.404 -3.045,-3.526 -6.731,-3.526c-6.09,0.16 -14.103,0.481 -24.199,0.801c-10.096,0.321 -19.391,0.641 -28.045,0.962c-8.654,0.321 -17.308,0.481 -26.122,0.481c-44.712,-0.16 -73.077,-0.801 -85.096,-2.083c-1.442,-0.16 -2.404,1.603 -2.885,5.288c-0.481,3.686 -0.16,5.609 1.122,5.769c8.814,2.083 15.545,5.288 20.353,9.615c4.808,4.327 7.212,11.218 7.212,20.673l0,145.833c0,5.929 -0.641,10.737 -2.083,14.423c-1.442,3.686 -4.167,6.731 -8.173,8.974c-4.006,2.244 -7.372,3.846 -10.096,4.647c-2.724,0.801 -7.372,2.083 -13.942,3.846c-1.282,0.481 -1.603,2.564 -0.962,6.41c0.641,3.846 1.603,5.609 3.045,5.449l0.962,0Z" style="fill:#ee2a24;fill-rule:nonzero;"/><path d="M3239.024,3413.641c3.045,0 5.449,-0.481 7.212,-1.442c1.763,-0.962 2.404,-2.564 1.763,-4.647c-2.564,-9.776 -3.846,-29.006 -3.846,-57.853l0,-127.724c0,-5.449 0.641,-9.936 1.763,-13.462c1.122,-3.526 3.365,-6.41 6.571,-8.654c3.205,-2.244 5.769,-3.686 7.692,-4.487c1.923,-0.801 5.449,-1.923 10.737,-3.365c1.442,-0.481 1.763,-2.404 1.122,-5.929c-0.641,-3.526 -1.603,-5.288 -2.885,-5.288l-77.724,0c-1.603,0 -2.724,1.763 -3.205,5.288c-0.481,3.526 -0.16,5.449 1.122,5.929c6.09,1.442 10.256,2.564 12.5,3.365c2.244,0.801 5.288,2.244 9.135,4.487c3.846,2.244 6.41,5.128 7.853,8.654c1.442,3.526 2.083,8.013 2.083,13.462l0,123.397l-152.884,-161.699c-1.763,-2.083 -4.327,-3.045 -7.853,-3.045l-24.359,0c-2.083,0 -3.686,0.801 -4.808,2.404c-1.122,1.603 -1.763,3.205 -1.763,4.968c0,0.321 0.16,0.641 0.481,1.122c0.321,0.481 0.801,0.962 1.442,1.603c0.641,0.641 1.282,1.442 2.083,2.404c0.801,0.962 1.442,1.923 2.083,2.724c8.173,10.897 12.179,26.122 12.179,45.833l0,127.404c0,9.615 -2.404,16.667 -7.212,21.314c-2.885,2.564 -9.455,5.609 -19.712,9.135c-1.442,0.481 -1.923,2.404 -1.282,5.929c0.641,3.526 1.603,5.288 2.885,5.288l77.724,0c1.603,0 2.724,-1.763 3.205,-5.288c0.481,-3.526 0.16,-5.449 -1.122,-5.929c-5.929,-1.442 -10.417,-2.724 -13.301,-3.686c-2.885,-0.962 -5.929,-2.564 -9.295,-4.808c-3.365,-2.244 -5.769,-5.128 -7.212,-8.654c-1.442,-3.526 -2.244,-8.013 -2.244,-13.462l0,-124.679l156.25,163.461c3.686,4.006 7.692,6.09 12.019,6.09l0.801,-0.16Z" style="fill:#ee2a24;fill-rule:nonzero;"/><path d="M3340.953,3410.436l111.538,0c0.962,0 1.763,-0.962 2.564,-2.885c0.801,-1.923 1.122,-3.686 1.122,-5.288c0,-1.603 -0.481,-2.564 -1.282,-3.045c-12.981,-1.763 -22.596,-4.327 -28.686,-7.692c-6.09,-3.365 -9.135,-9.135 -9.135,-17.468l0,-161.859c0,-7.212 4.327,-10.897 12.821,-10.897l10.256,0c27.244,0.16 42.468,7.372 45.833,21.635c0.641,2.724 2.564,4.167 5.769,4.167c3.205,0 4.968,-1.442 5.449,-4.327c1.763,-10.577 5.128,-23.718 10.096,-39.423c0.962,-2.885 0.481,-4.647 -1.282,-5.128c-1.763,-0.481 -4.487,-0.481 -8.173,0c-14.744,1.442 -48.077,2.244 -100.16,2.244c-46.795,0 -77.244,-0.801 -91.186,-2.244c-3.526,-0.481 -6.09,-0.481 -7.532,0c-1.442,0.481 -2.244,2.244 -2.404,5.128c-1.442,11.218 -4.006,24.359 -7.692,39.423c-0.641,2.404 0.641,3.846 3.686,4.487c4.327,0.801 7.372,-0.641 9.135,-4.327c6.571,-14.263 25,-21.474 55.288,-21.474l8.974,0c4.006,0 6.731,0.801 8.333,2.404c1.603,1.603 2.404,4.487 2.404,8.654l0,161.859c0,8.333 -3.045,14.263 -9.135,17.628c-6.09,3.365 -15.545,5.929 -28.526,7.692c-0.801,0.481 -1.282,1.442 -1.282,2.885c0,1.442 0.321,3.205 1.122,5.128c0.801,1.923 1.603,2.885 2.404,2.885l-0.321,-0.16Z" style="fill:#ee2a24;fill-rule:nonzero;"/><path d="M3522.37,3411.077c13.301,-1.282 45.192,-1.923 95.673,-1.923c18.109,0 39.423,0.641 63.942,1.923c9.455,0 17.628,-5.769 24.519,-17.468c6.891,-11.699 10.256,-22.436 10.256,-32.212c0,-2.724 -1.603,-4.487 -4.808,-5.288c-3.205,-0.801 -5.288,-0.321 -6.41,1.603c-14.904,23.397 -40.705,35.096 -77.244,35.096c-13.301,0 -22.436,-1.923 -27.404,-5.769c-4.968,-3.846 -7.532,-10.417 -7.532,-19.872l0,-55.128c0,-4.006 0.801,-6.731 2.564,-8.173c1.763,-1.442 4.487,-2.083 8.173,-2.083l4.487,0c21.955,0 36.378,4.968 43.429,14.744c1.923,2.724 3.846,4.006 5.929,4.006c2.083,0 3.686,-1.442 4.968,-4.327l18.75,-41.346c1.282,-3.045 0.801,-4.968 -1.442,-5.769c-2.244,-0.801 -4.327,-0.321 -6.09,1.442c-10.897,9.776 -31.891,14.744 -62.981,14.744l-7.212,0c-3.686,0 -6.41,-0.641 -8.173,-2.083c-1.763,-1.442 -2.724,-4.167 -2.724,-8.173l0,-53.526c0,-8.494 2.244,-14.423 6.731,-17.788c4.487,-3.365 12.34,-5.128 23.718,-5.128c19.231,0 32.692,2.083 40.385,6.09c7.692,4.006 12.821,10.417 15.545,19.231c0.641,2.083 2.404,3.205 5.288,3.205c2.885,0 4.487,-1.122 4.968,-3.205l7.853,-31.25c1.122,-3.686 1.282,-6.731 0.481,-9.135c-0.801,-2.404 -3.045,-3.526 -6.731,-3.526c-6.09,0.16 -14.103,0.481 -24.199,0.801c-10.096,0.321 -19.391,0.641 -28.045,0.962c-8.654,0.321 -17.308,0.481 -26.122,0.481c-44.712,-0.16 -73.077,-0.801 -85.096,-2.083c-1.442,-0.16 -2.404,1.603 -2.885,5.288c-0.481,3.686 -0.16,5.609 1.122,5.769c8.814,2.083 15.545,5.288 20.353,9.615c4.808,4.327 7.212,11.218 7.212,20.673l0,145.833c0,5.929 -0.641,10.737 -2.083,14.423c-1.442,3.686 -4.167,6.731 -8.173,8.974c-4.006,2.244 -7.372,3.846 -10.096,4.647c-2.724,0.801 -7.372,2.083 -13.942,3.846c-1.282,0.481 -1.603,2.564 -0.962,6.41c0.641,3.846 1.603,5.609 3.045,5.449l0.962,0Z" style="fill:#ee2a24;fill-rule:nonzero;"/><rect x="1180.041" y="2749.458" width="2029.287" height="91.25" style="fill:#ee2a24;fill-rule:nonzero;"/><path d="M203.718,2504.525c-7.969,0 -15.667,-4.591 -23.096,-13.907l-41.194,-51.713c-6.078,-7.561 -11.48,-12.692 -16.072,-15.527c-4.592,-2.835 -9.589,-4.186 -15.127,-4.186l0,-1.35c13.101,-0.675 24.581,-5.266 34.441,-13.907c9.86,-8.641 14.722,-20.388 14.722,-35.376c0,-16.608 -6.213,-29.3 -18.774,-38.076c-12.561,-8.776 -29.579,-13.097 -51.054,-13.097c-3.917,0 -11.886,0.27 -23.906,0.81c-12.021,0.54 -21.745,0.81 -29.174,0.81c-12.561,-0.135 -23.231,-0.675 -31.875,-1.755c-1.216,-0.135 -2.026,1.35 -2.431,4.456c-0.405,3.105 -0.135,4.861 0.945,5.266c7.564,2.025 13.236,4.996 17.153,8.776c3.917,3.781 5.808,9.992 5.808,18.498l0,123.275c0,8.236 -1.891,14.177 -5.808,17.823c-3.917,3.646 -9.589,5.941 -17.153,7.021c-0.675,0 -1.081,0.81 -1.081,2.43c0,1.62 0.27,3.241 0.81,4.861c0.54,1.62 1.216,2.43 1.891,2.43l83.874,0c0.675,0 1.216,-0.81 1.621,-2.43c0.405,-1.62 0.675,-3.241 0.675,-4.861c0,-1.62 -0.27,-2.43 -0.81,-2.43c-10.535,-1.215 -18.369,-3.511 -23.366,-6.751c-4.997,-3.241 -7.564,-9.316 -7.564,-18.093l0,-53.604c11.075,0.135 19.989,1.35 26.877,3.646c6.888,2.295 13.101,7.021 18.639,14.177l42.545,54.684c5.132,6.616 11.345,11.612 18.504,14.987c7.158,3.376 13.911,4.861 20.394,4.456c6.483,-0.405 12.831,-1.35 19.179,-2.97c0.945,-0.405 1.486,-1.755 1.621,-4.186c0.135,-2.43 -0.405,-3.646 -1.486,-3.646l0.27,-0.54Zm-138.304,-93.165l-7.969,0l0,-56.979c0,-7.966 1.621,-13.637 4.862,-17.013c3.242,-3.376 8.779,-5.131 16.748,-5.131c12.831,0 23.231,3.781 31.199,11.342c7.969,7.561 12.021,18.498 12.021,32.675c0,13.502 -4.187,22.684 -12.561,27.544c-8.374,4.861 -23.231,7.291 -44.436,7.291l0.135,0.27Z" style="fill:#003876;fill-rule:nonzero;"/><path d="M252.173,2511.951c11.21,-1.08 38.088,-1.62 80.632,-1.62c15.262,0 33.225,0.54 53.89,1.62c7.969,0 14.857,-4.861 20.665,-14.717c5.808,-9.857 8.644,-18.903 8.644,-27.139c0,-2.295 -1.351,-3.781 -4.052,-4.456c-2.701,-0.675 -4.457,-0.27 -5.403,1.35c-12.561,19.713 -34.306,29.57 -65.1,29.57c-11.21,0 -18.909,-1.62 -23.096,-4.861c-4.187,-3.241 -6.348,-8.776 -6.348,-16.743l0,-46.447c0,-3.376 0.675,-5.671 2.161,-6.886c1.486,-1.215 3.782,-1.755 6.888,-1.755l3.782,0c18.504,0 30.659,4.186 36.602,12.422c1.621,2.295 3.242,3.376 4.997,3.376c1.756,0 3.106,-1.215 4.187,-3.646l15.802,-34.836c1.081,-2.565 0.675,-4.186 -1.216,-4.861c-1.891,-0.675 -3.647,-0.27 -5.132,1.215c-9.184,8.236 -26.877,12.422 -53.08,12.422l-6.078,0c-3.106,0 -5.403,-0.54 -6.888,-1.755c-1.486,-1.215 -2.296,-3.511 -2.296,-6.886l0,-45.097c0,-7.156 1.891,-12.152 5.673,-14.987c3.782,-2.835 10.4,-4.321 19.989,-4.321c16.208,0 27.553,1.755 34.036,5.131c6.483,3.376 10.805,8.776 13.101,16.203c0.54,1.755 2.026,2.7 4.457,2.7c2.431,0 3.782,-0.945 4.187,-2.7l6.618,-26.329c0.945,-3.105 1.081,-5.671 0.405,-7.696c-0.675,-2.025 -2.566,-2.97 -5.673,-2.97c-5.132,0.135 -11.886,0.405 -20.394,0.675c-8.509,0.27 -16.343,0.54 -23.636,0.81c-7.293,0.27 -14.587,0.405 -22.015,0.405c-37.682,-0.135 -61.589,-0.675 -71.718,-1.755c-1.216,-0.135 -2.026,1.35 -2.431,4.456c-0.405,3.105 -0.135,4.726 0.945,4.861c7.428,1.755 13.101,4.456 17.153,8.101c4.052,3.646 6.078,9.452 6.078,17.418l0,122.87c0,4.996 -0.54,9.046 -1.756,12.152c-1.216,3.105 -3.512,5.671 -6.888,7.561c-3.377,1.89 -6.213,3.241 -8.509,3.916c-2.296,0.675 -6.213,1.755 -11.75,3.241c-1.081,0.405 -1.351,2.16 -0.81,5.401c0.54,3.241 1.351,4.726 2.566,4.591l0.81,0Z" style="fill:#003876;fill-rule:nonzero;"/><path d="M635.989,2376.524c0,-20.388 -7.158,-35.376 -21.475,-44.962c-14.317,-9.587 -33.225,-14.312 -56.591,-14.312c-4.187,0 -12.021,0.27 -23.501,0.81c-11.48,0.54 -20.935,0.81 -28.363,0.81c-12.561,-0.135 -23.231,-0.675 -31.875,-1.755c-1.216,-0.135 -2.026,1.35 -2.431,4.456c-0.405,3.105 -0.135,4.861 0.945,5.266c7.564,2.025 13.236,4.996 17.153,8.776c3.917,3.781 5.808,9.992 5.808,18.498l0,123.275c0,8.236 -1.891,14.177 -5.808,17.823c-3.917,3.646 -9.589,5.941 -17.153,7.021c-0.675,0 -1.081,0.81 -1.081,2.43c0,1.62 0.27,3.241 0.81,4.861c0.54,1.62 1.216,2.43 1.891,2.43l83.874,0c0.675,0 1.216,-0.81 1.621,-2.43c0.405,-1.62 0.675,-3.241 0.675,-4.861c0,-1.62 -0.27,-2.43 -0.81,-2.43c-10.535,-1.215 -18.369,-3.511 -23.366,-6.751c-4.997,-3.241 -7.564,-9.316 -7.564,-18.093l0,-39.831c31.47,4.726 57.267,1.755 77.256,-8.911c19.989,-10.667 29.984,-27.949 29.984,-51.848l0,-0.27Zm-85.089,-44.557c14.587,0 26.472,4.591 35.657,13.637c9.184,9.046 13.776,21.603 13.776,37.671c0,17.688 -5.943,29.705 -17.828,36.186c-11.886,6.481 -29.849,8.101 -53.755,4.726l0,-69.941c0,-8.371 1.621,-14.177 4.727,-17.418c3.106,-3.241 8.914,-4.861 17.423,-4.861Z" style="fill:#003876;fill-rule:nonzero;"/><path d="M772.37,2285.52c-1.216,1.755 -0.27,4.186 2.971,7.291c3.242,3.105 5.673,3.916 7.428,2.43l36.332,-27.409c2.026,-1.485 1.486,-4.321 -1.486,-8.506c-2.971,-4.186 -6.753,-7.561 -11.345,-10.127c-4.592,-2.565 -7.564,-2.7 -9.049,-0.405l-24.852,36.726Zm26.202,230.212c22.826,0 41.329,-6.751 55.511,-20.118c14.182,-13.367 21.205,-32.405 21.205,-57.114l0,-86.549c0,-8.776 2.026,-14.852 5.943,-18.228c3.917,-3.376 9.319,-5.536 16.208,-6.481c0.675,0 1.081,-0.81 1.081,-2.43c0,-1.62 -0.27,-3.241 -0.81,-4.861c-0.54,-1.62 -1.081,-2.43 -1.621,-2.43l-62.264,0c-0.675,0 -1.216,0.81 -1.621,2.43c-0.405,1.62 -0.675,3.241 -0.675,4.861c0,1.62 0.27,2.43 0.81,2.43c7.699,1.08 13.641,3.376 17.693,7.021c4.052,3.646 6.078,9.587 6.078,17.823l0,88.304c0,18.363 -5.132,32.405 -15.262,42.127c-10.13,9.722 -23.096,14.582 -38.898,14.582c-15.532,0 -28.093,-4.726 -37.547,-14.312c-9.454,-9.587 -14.182,-23.629 -14.182,-42.262l0,-88.304c0,-8.776 2.026,-14.852 5.943,-18.228c3.917,-3.376 9.319,-5.536 16.208,-6.481c0.675,0 1.081,-0.81 1.081,-2.43c0,-1.62 -0.27,-3.241 -0.81,-4.861c-0.54,-1.62 -1.216,-2.43 -1.891,-2.43l-75.5,0c-0.675,0 -1.351,0.81 -1.891,2.43c-0.54,1.62 -0.81,3.241 -0.81,4.861c0,1.62 0.405,2.43 1.081,2.43c7.428,0.945 12.966,3.241 16.748,6.886c3.782,3.646 5.673,9.587 5.673,17.823l0,86.819c0,13.502 2.431,25.384 7.293,35.646c4.862,10.262 11.345,18.228 19.449,24.034c8.104,5.806 16.883,10.127 26.202,12.962c9.319,2.835 19.179,4.321 29.579,4.321l0,-0.27Z" style="fill:#003876;fill-rule:nonzero;"/><path d="M1068.195,2406.094l0,-1.755c10.13,-2.025 18.504,-6.751 25.122,-14.177c6.618,-7.426 9.86,-16.608 9.725,-27.544c-0.135,-14.582 -6.348,-25.789 -18.639,-33.62c-12.291,-7.831 -27.823,-11.747 -46.597,-11.747c-3.106,0 -10.265,0.27 -21.475,0.81c-11.21,0.54 -20.935,0.81 -29.038,0.81c-13.236,-0.135 -24.311,-0.675 -33.36,-1.755c-1.216,-0.135 -2.026,1.35 -2.431,4.456c-0.405,3.105 -0.135,4.726 0.945,4.861c7.428,1.755 13.101,4.456 17.153,8.101c4.052,3.646 6.078,9.452 6.078,17.418l0,122.87c0,4.996 -0.54,9.046 -1.756,12.152c-1.216,3.105 -3.512,5.671 -6.888,7.561c-3.377,1.89 -6.213,3.241 -8.509,3.916c-2.296,0.675 -6.213,1.755 -11.75,3.241c-1.081,0.405 -1.351,2.16 -0.81,5.401c0.54,3.241 1.351,4.726 2.566,4.591c10.13,-1.08 24.581,-1.62 43.355,-1.62c7.428,0 16.478,0.27 27.283,0.81c10.805,0.54 18.098,0.81 22.015,0.81c23.231,0 41.869,-5.131 56.051,-15.392c14.182,-10.262 21.205,-23.899 21.205,-41.047c0,-14.717 -4.997,-26.599 -14.992,-35.646c-9.995,-9.046 -21.88,-13.637 -35.521,-13.637l0.27,0.135Zm-39.979,-74.532c12.021,0 21.745,3.241 29.174,9.722c7.428,6.481 11.21,16.068 11.21,28.625c-0.135,20.928 -10.67,31.325 -31.605,31.325l-28.498,0l0,-49.283c0,-7.696 1.486,-12.962 4.322,-15.933c2.836,-2.97 7.969,-4.456 15.397,-4.456Zm12.156,165.942c-11.615,0 -19.854,-1.755 -24.716,-5.401c-4.862,-3.646 -7.293,-9.452 -7.293,-17.418l0,-59.815l28.498,0c13.506,0 24.581,4.051 33.09,12.152c8.509,8.101 12.831,19.578 12.831,34.296c0,13.502 -3.782,22.954 -11.21,28.22c-7.428,5.266 -17.963,7.966 -31.47,7.966l0.27,0Z" style="fill:#003876;fill-rule:nonzero;"/><path d="M1175.537,2511.951c11.21,-1.08 38.088,-1.62 80.632,-1.62c15.262,0 33.225,0.54 53.89,1.62c7.969,0 14.857,-4.861 20.665,-14.717c5.808,-9.857 8.644,-18.903 8.644,-27.139c0,-2.295 -1.351,-3.781 -4.052,-4.456c-2.701,-0.675 -4.457,-0.27 -5.403,1.35c-12.561,19.713 -34.306,29.57 -65.1,29.57c-11.21,0 -18.909,-1.62 -23.096,-4.861c-4.187,-3.241 -6.348,-8.776 -6.348,-16.743l0,-122.87c0,-8.776 2.026,-14.852 6.078,-18.228c4.052,-3.376 9.589,-5.536 16.613,-6.481c0.54,0 0.81,-0.81 0.945,-2.43c0.135,-1.62 -0.135,-3.241 -0.675,-4.861c-0.54,-1.62 -1.081,-2.43 -1.621,-2.43l-76.31,0c-0.675,0 -1.216,0.81 -1.756,2.43c-0.54,1.62 -0.81,3.241 -0.81,4.861c0,1.62 0.405,2.43 1.081,2.43c4.727,0.675 8.509,1.62 11.48,2.835c2.971,1.215 5.673,3.646 8.104,7.291c2.431,3.646 3.647,8.506 3.647,14.582l0,122.87c0,4.996 -0.54,9.046 -1.756,12.152c-1.216,3.105 -3.512,5.671 -6.888,7.561c-3.377,1.89 -6.213,3.241 -8.509,3.916c-2.296,0.675 -6.213,1.755 -11.75,3.241c-1.081,0.405 -1.351,2.16 -0.81,5.401c0.54,3.241 1.351,4.726 2.566,4.591l0.54,0.135Z" style="fill:#003876;fill-rule:nonzero;"/><path d="M1389.244,2511.411l75.905,0c0.675,0 1.351,-0.81 1.891,-2.43c0.54,-1.62 0.81,-3.241 0.81,-4.861c0,-1.62 -0.405,-2.43 -1.081,-2.43c-7.158,-0.945 -12.831,-3.105 -16.883,-6.481c-4.052,-3.376 -6.078,-9.452 -6.078,-18.228l0,-125.03c0,-8.776 2.026,-14.852 6.078,-18.228c4.052,-3.376 9.725,-5.536 16.883,-6.481c0.675,0 1.081,-0.81 1.081,-2.43c0,-1.62 -0.27,-3.241 -0.81,-4.861c-0.54,-1.62 -1.216,-2.43 -1.891,-2.43l-75.905,0c-0.675,0 -1.351,0.81 -1.891,2.43c-0.54,1.62 -0.81,3.241 -0.81,4.861c0,1.62 0.405,2.43 1.081,2.43c7.564,1.08 13.236,3.376 17.153,7.021c3.917,3.646 5.808,9.587 5.808,17.823l0,125.03c0,8.236 -1.891,14.177 -5.808,17.823c-3.917,3.646 -9.589,5.941 -17.153,7.021c-0.675,0 -1.081,0.81 -1.081,2.43c0,1.62 0.27,3.241 0.81,4.861c0.54,1.62 1.216,2.43 1.891,2.43l0,-0.27Z" style="fill:#003876;fill-rule:nonzero;"/><path d="M1639.278,2515.867c5.538,0 15.127,-3.376 28.903,-10.262c13.776,-6.886 23.366,-14.177 28.633,-21.874c0.675,-1.215 0,-2.97 -2.026,-5.131c-2.026,-2.16 -3.512,-2.835 -4.592,-2.16c-6.213,4.051 -14.182,7.291 -23.906,9.587c-9.725,2.295 -16.613,3.511 -20.665,3.511c-9.995,0 -19.854,-1.755 -29.579,-5.266c-9.725,-3.511 -18.774,-8.641 -27.283,-15.392c-8.509,-6.751 -15.397,-15.933 -20.665,-27.679c-5.267,-11.747 -7.969,-25.114 -7.969,-40.101c0,-20.388 4.997,-36.456 14.992,-48.068c9.995,-11.612 24.581,-17.418 43.895,-17.418c8.779,0 17.153,1.215 24.987,3.781c7.834,2.565 13.911,5.131 18.098,7.831c4.187,2.7 8.104,4.861 11.75,6.616c3.647,1.755 6.618,2.025 8.779,0.675c2.161,-1.35 4.187,-4.861 5.943,-10.532l3.647,-10.802c1.081,-3.105 -0.81,-6.211 -5.808,-9.181c-4.997,-2.97 -12.021,-5.401 -21.205,-7.291c-9.184,-1.89 -19.044,-2.835 -29.579,-2.835c-18.504,0 -34.846,3.241 -49.163,9.587c-14.317,6.346 -25.527,14.717 -33.631,25.114c-8.104,10.397 -14.182,21.603 -18.098,33.485c-3.917,11.882 -5.943,24.169 -5.943,36.726c0,13.367 2.296,25.654 6.888,36.861c4.592,11.207 10.67,20.523 18.098,27.814c7.428,7.291 15.937,13.502 25.662,18.633c9.725,5.131 19.449,8.776 29.174,10.937c9.725,2.16 19.449,3.241 29.309,3.241l1.351,-0.405Z" style="fill:#003876;fill-rule:nonzero;"/><path d="M1952.051,2501.959c-5.943,-0.945 -10.805,-3.376 -14.722,-7.291c-3.917,-3.916 -8.239,-11.342 -12.966,-22.414l-67.396,-157.3c-0.405,-0.945 -3.917,-0.675 -10.4,0.675c-6.483,1.35 -9.725,2.565 -9.725,3.511c0,9.587 -4.727,24.979 -14.047,46.177l-46.867,107.207c-4.727,11.072 -9.049,18.498 -12.831,22.144c-3.782,3.646 -8.914,6.076 -15.262,7.156c-1.756,0.405 -2.431,2.025 -2.161,4.996c0.27,2.97 1.216,4.456 2.836,4.456l59.698,0c1.891,0 2.971,-1.485 3.242,-4.456c0.27,-2.97 -0.54,-4.591 -2.296,-4.996c-3.917,-0.54 -7.023,-1.215 -9.319,-2.025c-2.296,-0.81 -4.322,-2.16 -6.213,-4.186c-1.891,-2.025 -2.701,-4.996 -2.566,-8.776c0.135,-3.781 1.486,-8.506 3.917,-14.177l2.701,-6.886c1.351,-3.105 3.106,-5.131 5.403,-5.941c2.296,-0.81 5.673,-1.215 10.265,-1.215l56.456,0c4.592,0 8.104,0.405 10.4,1.215c2.296,0.81 4.052,2.835 5.267,5.941l2.971,6.886c2.431,5.806 3.782,10.532 4.187,14.312c0.405,3.781 -0.27,6.751 -2.026,8.776c-1.756,2.025 -3.647,3.511 -5.538,4.321c-1.891,0.81 -4.457,1.485 -7.564,2.025c-1.486,0.405 -2.161,2.025 -2.026,4.996c0.135,2.97 1.081,4.456 2.836,4.456l73.069,0c1.621,0 2.566,-1.485 2.836,-4.456c0.27,-2.97 -0.54,-4.591 -2.296,-4.996l0.135,-0.135Zm-84.279,-58.734l-52.269,0c-2.296,0 -4.187,-0.27 -5.538,-0.945c-1.351,-0.675 -1.621,-1.755 -0.945,-3.376l32.685,-77.367l32.415,77.367c0.54,1.35 0.405,2.295 -0.27,2.97c-0.675,0.675 -1.486,1.08 -2.566,1.215c-1.081,0.135 -2.296,0.27 -3.782,0.27l0.27,-0.135Z" style="fill:#003876;fill-rule:nonzero;"/><path d="M2088.604,2511.951c10.13,-1.08 24.581,-1.62 43.355,-1.62c7.428,0 16.748,0.27 28.093,0.81c11.345,0.54 18.909,0.81 22.826,0.81c21.61,0 40.384,-4.861 56.456,-14.582c16.072,-9.722 27.958,-22.144 35.657,-37.266c7.699,-15.122 11.48,-31.73 11.48,-49.823c0,-27.409 -9.049,-49.823 -27.148,-67.106c-18.098,-17.283 -43.49,-25.924 -76.04,-25.924c-4.052,0 -12.291,0.27 -24.716,0.81c-12.426,0.54 -22.555,0.81 -30.254,0.81c-14.047,-0.135 -25.527,-0.675 -34.576,-1.755c-1.216,-0.135 -2.026,1.35 -2.431,4.456c-0.405,3.105 -0.135,4.726 0.945,4.861c7.428,1.755 13.101,4.456 17.153,8.101c4.052,3.646 6.078,9.452 6.078,17.418l0,122.87c0,4.996 -0.54,9.046 -1.756,12.152c-1.216,3.105 -3.512,5.671 -6.888,7.561c-3.377,1.89 -6.213,3.241 -8.509,3.916c-2.296,0.675 -6.213,1.755 -11.75,3.241c-1.081,0.405 -1.351,2.16 -0.81,5.401c0.54,3.241 1.351,4.726 2.566,4.591l0.27,0.27Zm96.84,-14.852c-13.101,0 -22.555,-1.89 -28.363,-5.536c-5.808,-3.646 -8.779,-9.316 -8.779,-16.878l0,-122.87c0,-7.156 1.891,-12.287 5.808,-15.392c3.917,-3.105 10.67,-4.591 20.259,-4.591c24.176,0 43.22,8.911 57.267,26.734c14.047,17.823 21.07,40.371 21.07,67.646c0.135,47.393 -22.285,71.156 -67.261,71.156l0,-0.27Z" style="fill:#003876;fill-rule:nonzero;"/><path d="M2448.379,2515.867c29.714,0 53.89,-9.857 72.529,-29.705c18.639,-19.848 27.958,-44.152 27.958,-72.912c0,-28.76 -9.454,-52.523 -28.228,-71.426c-18.774,-18.903 -42.68,-28.355 -71.718,-28.355c-29.714,0 -53.89,9.857 -72.529,29.705c-18.639,19.848 -27.958,44.017 -27.958,72.507c0,28.76 9.454,52.658 28.363,71.697c18.909,19.038 42.68,28.49 71.448,28.49l0.135,0Zm10.67,-18.768c-20.394,0 -38.493,-9.316 -54.16,-27.814c-15.667,-18.498 -23.501,-41.452 -23.501,-68.861c0,-12.422 1.756,-23.224 5.267,-32.405c3.512,-9.181 8.104,-16.203 13.911,-21.198c5.808,-4.996 11.75,-8.641 17.963,-10.937c6.213,-2.295 12.561,-3.376 19.179,-3.376c20.53,0 38.628,9.316 54.295,27.814c15.667,18.498 23.501,41.452 23.501,68.726c0,12.287 -1.756,23.089 -5.267,32.405c-3.512,9.316 -8.239,16.473 -14.182,21.468c-5.943,4.996 -12.021,8.641 -18.233,10.937c-6.213,2.295 -12.696,3.511 -19.314,3.511l0.54,-0.27Z" style="fill:#003876;fill-rule:nonzero;"/><path d="M2853.399,2501.959c-6.888,-0.675 -12.291,-2.835 -16.208,-6.346c-3.917,-3.511 -6.078,-9.722 -6.618,-18.498l-8.914,-158.785c-0.135,-2.295 -2.161,-3.511 -6.078,-3.511c-3.917,0 -6.483,1.215 -7.699,3.646l-74.42,150.009l-80.227,-150.009c-1.486,-2.295 -4.052,-3.511 -7.699,-3.511c-3.647,0 -5.538,1.215 -5.673,3.646l-8.914,158.785c-0.54,8.776 -2.701,14.987 -6.618,18.498c-3.917,3.511 -9.319,5.671 -16.343,6.346c-0.675,0 -1.081,0.81 -1.081,2.43c0,1.62 0.27,3.241 0.81,4.861c0.54,1.62 1.216,2.43 1.891,2.43l57.267,0c0.54,0 1.081,-0.81 1.621,-2.43c0.54,-1.62 0.81,-3.241 0.81,-4.861c0,-1.62 -0.405,-2.43 -1.081,-2.43c-13.506,-1.62 -19.989,-9.857 -19.449,-24.844l4.187,-94.245l63.885,121.114c1.756,3.376 4.592,4.996 8.644,4.996c6.618,0 10.13,-1.62 10.67,-4.996c1.081,-6.346 4.727,-15.798 11.075,-28.49l44.841,-91.275l5.267,92.895c0.81,14.312 -5.673,22.549 -19.314,24.844c-0.675,0.405 -0.945,1.35 -0.945,2.7c0,1.35 0.27,2.835 0.81,4.456c0.54,1.62 1.081,2.43 1.621,2.43l72.123,0c0.675,0 1.216,-0.81 1.756,-2.43c0.54,-1.62 0.81,-3.241 0.81,-4.861c0,-1.62 -0.405,-2.43 -1.081,-2.43l0.27,-0.135Z" style="fill:#003876;fill-rule:nonzero;"/><path d="M2912.389,2511.411l75.905,0c0.675,0 1.351,-0.81 1.891,-2.43c0.54,-1.62 0.81,-3.241 0.81,-4.861c0,-1.62 -0.405,-2.43 -1.081,-2.43c-7.158,-0.945 -12.831,-3.105 -16.883,-6.481c-4.052,-3.376 -6.078,-9.452 -6.078,-18.228l0,-125.03c0,-8.776 2.026,-14.852 6.078,-18.228c4.052,-3.376 9.725,-5.536 16.883,-6.481c0.675,0 1.081,-0.81 1.081,-2.43c0,-1.62 -0.27,-3.241 -0.81,-4.861c-0.54,-1.62 -1.216,-2.43 -1.891,-2.43l-75.905,0c-0.675,0 -1.351,0.81 -1.891,2.43c-0.54,1.62 -0.81,3.241 -0.81,4.861c0,1.62 0.405,2.43 1.081,2.43c7.564,1.08 13.236,3.376 17.153,7.021c3.917,3.646 5.808,9.587 5.808,17.823l0,125.03c0,8.236 -1.891,14.177 -5.808,17.823c-3.917,3.646 -9.589,5.941 -17.153,7.021c-0.675,0 -1.081,0.81 -1.081,2.43c0,1.62 0.27,3.241 0.81,4.861c0.54,1.62 1.216,2.43 1.891,2.43l0,-0.27Z" style="fill:#003876;fill-rule:nonzero;"/><path d="M3226.853,2514.111c2.566,0 4.592,-0.405 6.078,-1.215c1.486,-0.81 2.026,-2.16 1.486,-3.916c-2.161,-8.236 -3.242,-24.439 -3.242,-48.743l0,-107.612c0,-4.591 0.54,-8.371 1.486,-11.342c0.945,-2.97 2.836,-5.401 5.538,-7.291c2.701,-1.89 4.862,-3.105 6.483,-3.781c1.621,-0.675 4.592,-1.62 9.049,-2.835c1.216,-0.405 1.486,-2.025 0.945,-4.996c-0.54,-2.97 -1.351,-4.456 -2.431,-4.456l-65.505,0c-1.351,0 -2.296,1.485 -2.701,4.456c-0.405,2.97 -0.135,4.591 0.945,4.996c5.132,1.215 8.644,2.16 10.535,2.835c1.891,0.675 4.457,1.89 7.699,3.781c3.242,1.89 5.403,4.321 6.618,7.291c1.216,2.97 1.756,6.751 1.756,11.342l0,103.967l-128.85,-136.237c-1.486,-1.755 -3.647,-2.565 -6.618,-2.565l-20.53,0c-1.756,0 -3.106,0.675 -4.052,2.025c-0.945,1.35 -1.486,2.7 -1.486,4.186c0,0.27 0.135,0.54 0.405,0.945c0.27,0.405 0.675,0.81 1.216,1.35c0.54,0.54 1.081,1.215 1.756,2.025c0.675,0.81 1.216,1.62 1.756,2.295c6.888,9.181 10.265,22.009 10.265,38.616l0,107.342c0,8.101 -2.026,14.042 -6.078,17.958c-2.431,2.16 -7.969,4.726 -16.613,7.696c-1.216,0.405 -1.621,2.025 -1.081,4.996c0.54,2.97 1.351,4.456 2.431,4.456l65.505,0c1.351,0 2.296,-1.485 2.701,-4.456c0.405,-2.97 0.135,-4.591 -0.945,-4.996c-4.997,-1.215 -8.779,-2.295 -11.21,-3.105c-2.431,-0.81 -4.997,-2.16 -7.834,-4.051c-2.836,-1.89 -4.862,-4.321 -6.078,-7.291c-1.216,-2.97 -1.891,-6.751 -1.891,-11.342l0,-105.047l131.686,137.722c3.106,3.376 6.483,5.131 10.13,5.131l0.675,-0.135Z" style="fill:#003876;fill-rule:nonzero;"/><path d="M3312.991,2511.411l75.905,0c0.675,0 1.351,-0.81 1.891,-2.43c0.54,-1.62 0.81,-3.241 0.81,-4.861c0,-1.62 -0.405,-2.43 -1.081,-2.43c-7.158,-0.945 -12.831,-3.105 -16.883,-6.481c-4.052,-3.376 -6.078,-9.452 -6.078,-18.228l0,-125.03c0,-8.776 2.026,-14.852 6.078,-18.228c4.052,-3.376 9.725,-5.536 16.883,-6.481c0.675,0 1.081,-0.81 1.081,-2.43c0,-1.62 -0.27,-3.241 -0.81,-4.861c-0.54,-1.62 -1.216,-2.43 -1.891,-2.43l-75.905,0c-0.675,0 -1.351,0.81 -1.891,2.43c-0.54,1.62 -0.81,3.241 -0.81,4.861c0,1.62 0.405,2.43 1.081,2.43c7.564,1.08 13.236,3.376 17.153,7.021c3.917,3.646 5.808,9.587 5.808,17.823l0,125.03c0,8.236 -1.891,14.177 -5.808,17.823c-3.917,3.646 -9.589,5.941 -17.153,7.021c-0.675,0 -1.081,0.81 -1.081,2.43c0,1.62 0.27,3.241 0.81,4.861c0.54,1.62 1.216,2.43 1.891,2.43l0,-0.27Z" style="fill:#003876;fill-rule:nonzero;"/><path d="M3560.258,2515.867c5.538,0 15.127,-3.376 28.903,-10.262c13.776,-6.886 23.366,-14.177 28.633,-21.874c0.675,-1.215 0,-2.97 -2.026,-5.131c-2.026,-2.16 -3.512,-2.835 -4.592,-2.16c-6.213,4.051 -14.182,7.291 -23.906,9.587c-9.725,2.295 -16.613,3.511 -20.665,3.511c-9.995,0 -19.854,-1.755 -29.579,-5.266c-9.725,-3.511 -18.774,-8.641 -27.283,-15.392c-8.509,-6.751 -15.397,-15.933 -20.665,-27.679c-5.267,-11.747 -7.969,-25.114 -7.969,-40.101c0,-20.388 4.997,-36.456 14.992,-48.068c9.995,-11.612 24.581,-17.418 43.895,-17.418c8.779,0 17.153,1.215 24.987,3.781c7.834,2.565 13.911,5.131 18.098,7.831c4.187,2.7 8.104,4.861 11.75,6.616c3.647,1.755 6.618,2.025 8.779,0.675c2.161,-1.35 4.187,-4.861 5.943,-10.532l3.647,-10.802c1.081,-3.105 -0.81,-6.211 -5.808,-9.181c-4.997,-2.97 -12.021,-5.401 -21.205,-7.291c-9.184,-1.89 -19.044,-2.835 -29.579,-2.835c-18.504,0 -34.846,3.241 -49.163,9.587c-14.317,6.346 -25.527,14.717 -33.631,25.114c-8.104,10.397 -14.182,21.603 -18.098,33.485c-3.917,11.882 -5.943,24.169 -5.943,36.726c0,13.367 2.296,25.654 6.888,36.861c4.592,11.207 10.67,20.523 18.098,27.814c7.428,7.291 15.937,13.502 25.662,18.633c9.725,5.131 19.449,8.776 29.174,10.937c9.725,2.16 19.449,3.241 29.309,3.241l1.351,-0.405Z" style="fill:#003876;fill-rule:nonzero;"/><path d="M3870.265,2501.959c-5.943,-0.945 -10.805,-3.376 -14.722,-7.291c-3.917,-3.916 -8.239,-11.342 -12.966,-22.414l-67.396,-157.3c-0.405,-0.945 -3.917,-0.675 -10.4,0.675c-6.483,1.35 -9.725,2.565 -9.725,3.511c0,9.587 -4.727,24.979 -14.047,46.177l-46.867,107.207c-4.727,11.072 -9.049,18.498 -12.831,22.144c-3.782,3.646 -8.914,6.076 -15.262,7.156c-1.756,0.405 -2.431,2.025 -2.161,4.996c0.27,2.97 1.216,4.456 2.836,4.456l59.698,0c1.891,0 2.971,-1.485 3.242,-4.456c0.27,-2.97 -0.54,-4.591 -2.296,-4.996c-3.917,-0.54 -7.023,-1.215 -9.319,-2.025c-2.296,-0.81 -4.322,-2.16 -6.213,-4.186c-1.891,-2.025 -2.701,-4.996 -2.566,-8.776c0.135,-3.781 1.486,-8.506 3.917,-14.177l2.701,-6.886c1.351,-3.105 3.106,-5.131 5.403,-5.941c2.296,-0.81 5.673,-1.215 10.265,-1.215l56.456,0c4.592,0 8.104,0.405 10.4,1.215c2.296,0.81 4.052,2.835 5.267,5.941l2.971,6.886c2.431,5.806 3.782,10.532 4.187,14.312c0.405,3.781 -0.27,6.751 -2.026,8.776c-1.756,2.025 -3.647,3.511 -5.538,4.321c-1.891,0.81 -4.457,1.485 -7.564,2.025c-1.486,0.405 -2.161,2.025 -2.026,4.996c0.135,2.97 1.081,4.456 2.836,4.456l73.069,0c1.621,0 2.566,-1.485 2.836,-4.456c0.27,-2.97 -0.54,-4.591 -2.296,-4.996l0.135,-0.135Zm-84.279,-58.734l-52.269,0c-2.296,0 -4.187,-0.27 -5.538,-0.945c-1.351,-0.675 -1.621,-1.755 -0.945,-3.376l32.685,-77.367l32.415,77.367c0.54,1.35 0.405,2.295 -0.27,2.97c-0.675,0.675 -1.486,1.08 -2.566,1.215c-1.081,0.135 -2.296,0.27 -3.782,0.27l0.27,-0.135Z" style="fill:#003876;fill-rule:nonzero;"/><path d="M4110.033,2514.111c2.566,0 4.592,-0.405 6.078,-1.215c1.486,-0.81 2.026,-2.16 1.486,-3.916c-2.161,-8.236 -3.242,-24.439 -3.242,-48.743l0,-107.612c0,-4.591 0.54,-8.371 1.486,-11.342c0.945,-2.97 2.836,-5.401 5.538,-7.291c2.701,-1.89 4.862,-3.105 6.483,-3.781c1.621,-0.675 4.592,-1.62 9.049,-2.835c1.216,-0.405 1.486,-2.025 0.945,-4.996c-0.54,-2.97 -1.351,-4.456 -2.431,-4.456l-65.505,0c-1.351,0 -2.296,1.485 -2.701,4.456c-0.405,2.97 -0.135,4.591 0.945,4.996c5.132,1.215 8.644,2.16 10.535,2.835c1.891,0.675 4.457,1.89 7.699,3.781c3.242,1.89 5.403,4.321 6.618,7.291c1.216,2.97 1.756,6.751 1.756,11.342l0,103.967l-128.85,-136.237c-1.486,-1.755 -3.647,-2.565 -6.618,-2.565l-20.53,0c-1.756,0 -3.106,0.675 -4.052,2.025c-0.945,1.35 -1.486,2.7 -1.486,4.186c0,0.27 0.135,0.54 0.405,0.945c0.27,0.405 0.675,0.81 1.216,1.35c0.54,0.54 1.081,1.215 1.756,2.025c0.675,0.81 1.216,1.62 1.756,2.295c6.888,9.181 10.265,22.009 10.265,38.616l0,107.342c0,8.101 -2.026,14.042 -6.078,17.958c-2.431,2.16 -7.969,4.726 -16.613,7.696c-1.216,0.405 -1.621,2.025 -1.081,4.996c0.54,2.97 1.351,4.456 2.431,4.456l65.505,0c1.351,0 2.296,-1.485 2.701,-4.456c0.405,-2.97 0.135,-4.591 -0.945,-4.996c-4.997,-1.215 -8.779,-2.295 -11.21,-3.105c-2.431,-0.81 -4.997,-2.16 -7.834,-4.051c-2.836,-1.89 -4.862,-4.321 -6.078,-7.291c-1.216,-2.97 -1.891,-6.751 -1.891,-11.342l0,-105.047l131.686,137.722c3.106,3.376 6.483,5.131 10.13,5.131l0.675,-0.135Z" style="fill:#003876;fill-rule:nonzero;"/><path d="M4385.194,2501.959c-5.943,-0.945 -10.805,-3.376 -14.722,-7.291c-3.917,-3.916 -8.239,-11.342 -12.966,-22.414l-67.396,-157.3c-0.405,-0.945 -3.917,-0.675 -10.4,0.675c-6.483,1.35 -9.725,2.565 -9.725,3.511c0,9.587 -4.727,24.979 -14.047,46.177l-46.867,107.207c-4.727,11.072 -9.049,18.498 -12.831,22.144c-3.782,3.646 -8.914,6.076 -15.262,7.156c-1.756,0.405 -2.431,2.025 -2.161,4.996c0.27,2.97 1.216,4.456 2.836,4.456l59.698,0c1.891,0 2.971,-1.485 3.242,-4.456c0.27,-2.97 -0.54,-4.591 -2.296,-4.996c-3.917,-0.54 -7.023,-1.215 -9.319,-2.025c-2.296,-0.81 -4.322,-2.16 -6.213,-4.186c-1.891,-2.025 -2.701,-4.996 -2.566,-8.776c0.135,-3.781 1.486,-8.506 3.917,-14.177l2.701,-6.886c1.351,-3.105 3.106,-5.131 5.403,-5.941c2.296,-0.81 5.673,-1.215 10.265,-1.215l56.456,0c4.592,0 8.104,0.405 10.4,1.215c2.296,0.81 4.052,2.835 5.267,5.941l2.971,6.886c2.431,5.806 3.782,10.532 4.187,14.312c0.405,3.781 -0.27,6.751 -2.026,8.776c-1.756,2.025 -3.647,3.511 -5.538,4.321c-1.891,0.81 -4.457,1.485 -7.564,2.025c-1.486,0.405 -2.161,2.025 -2.026,4.996c0.135,2.97 1.081,4.456 2.836,4.456l73.069,0c1.621,0 2.566,-1.485 2.836,-4.456c0.27,-2.97 -0.54,-4.591 -2.296,-4.996l0.135,-0.135Zm-84.279,-58.734l-52.269,0c-2.296,0 -4.187,-0.27 -5.538,-0.945c-1.351,-0.675 -1.621,-1.755 -0.945,-3.376l32.685,-77.367l32.415,77.367c0.54,1.35 0.405,2.295 -0.27,2.97c-0.675,0.675 -1.486,1.08 -2.566,1.215c-1.081,0.135 -2.296,0.27 -3.782,0.27l0.27,-0.135Z" style="fill:#003876;fill-rule:nonzero;"/><path d="M1251.357,2147.535l38.705,0l0,30.341c-10.503,8.819 -23.339,13.226 -38.51,13.226c-16.727,0 -30.408,-5.185 -41.039,-15.56c-10.633,-10.372 -15.949,-24.181 -15.949,-41.427c0,-16.727 5.218,-30.405 15.657,-41.039c10.436,-10.63 23.953,-15.949 40.552,-15.949c17.505,0 31.119,5.318 40.844,15.949l8.169,-9.141c-11.542,-13.095 -28.269,-19.644 -50.18,-19.644c-19.45,0 -35.854,6.744 -49.207,20.228c-13.356,13.487 -20.033,30.019 -20.033,49.596c0,21.005 6.643,37.896 19.936,50.666c13.289,12.773 30.244,19.158 50.861,19.158c9.725,0 19.383,-1.781 28.98,-5.349c9.594,-3.565 17.243,-8.394 22.95,-14.49l0,-49.402l-51.736,0l0,12.837Z" style="fill:#003876;fill-rule:nonzero;"/><path d="M1354.828,2134.115c0,20.1 6.643,36.76 19.936,49.985c13.289,13.226 29.594,19.839 48.916,19.839c19.319,0 35.593,-6.643 48.818,-19.936c13.226,-13.289 19.839,-29.919 19.839,-49.888c0,-20.097 -6.613,-36.76 -19.839,-49.985c-13.226,-13.226 -29.499,-19.839 -48.818,-19.839c-19.322,0 -35.626,6.71 -48.916,20.13c-13.293,13.42 -19.936,29.986 -19.936,49.694Zm14.198,0c0,-16.338 5.315,-29.919 15.949,-40.747c10.63,-10.825 23.534,-16.24 38.705,-16.24c15.04,0 27.877,5.415 38.51,16.24c10.63,10.828 15.949,24.409 15.949,40.747c0,16.338 -5.188,29.922 -15.56,40.747c-10.375,10.828 -23.339,16.24 -38.899,16.24c-15.043,0 -27.91,-5.446 -38.607,-16.338c-10.697,-10.892 -16.046,-24.44 -16.046,-40.65Z" style="fill:#003876;fill-rule:nonzero;"/><path d="M1545.823,2202.189l52.514,0c35.915,0 53.875,-12.77 53.875,-38.316c0,-9.074 -2.334,-16.465 -7.002,-22.172c-4.668,-5.704 -11.022,-9.141 -19.061,-10.308c6.74,-2.462 11.928,-6.482 15.56,-12.059c3.629,-5.574 5.446,-12.186 5.446,-19.839c0,-10.503 -3.632,-18.702 -10.892,-24.604c-7.263,-5.899 -19.711,-8.85 -37.343,-8.85l-53.097,0l0,136.147Zm55.042,-63.211c24.895,0 37.343,8.041 37.343,24.117c0,9.077 -3.179,15.724 -9.53,19.936c-6.355,4.215 -16.21,6.321 -29.563,6.321l-39.483,0l0,-50.374l41.233,0Zm-2.139,-60.099c12.575,0 21.492,1.915 26.743,5.738c5.251,3.826 7.877,9.694 7.877,17.602c0,7.521 -2.917,13.42 -8.752,17.699c-5.835,4.279 -13.551,6.418 -23.145,6.418l-41.816,0l0,-47.457l39.094,0Z" style="fill:#003876;fill-rule:nonzero;"/><rect x="1709.393" y="2066.042" width="13.809" height="136.147" style="fill:#003876;fill-rule:nonzero;"/><path d="M1786.219,2202.189l98.998,0l0,-12.837l-85.189,0l0,-49.985l77.798,0l0,-12.837l-77.798,0l0,-47.651l83.244,0l0,-12.837l-97.053,0l0,136.147Z" style="fill:#003876;fill-rule:nonzero;"/><path d="M1951.345,2202.189l0,-55.626l39.677,0l42.789,55.626l16.727,0l-45.317,-58.154c10.503,-1.814 19.027,-6.19 25.576,-13.128c6.546,-6.935 9.822,-15.332 9.822,-25.187c0,-26.451 -17.246,-39.677 -51.736,-39.677l-51.347,0l0,136.147l13.809,0Zm36.954,-123.31c25.412,0 38.121,8.947 38.121,26.84c0,8.43 -3.373,15.204 -10.114,20.325c-6.744,5.124 -15.69,7.683 -26.84,7.683l-38.121,0l0,-54.848l36.954,0Z" style="fill:#003876;fill-rule:nonzero;"/><path d="M2210.997,2202.189l0,-136.147l-13.226,0l0,111.64l-88.884,-111.64l-10.892,0l0,136.147l13.226,0l0,-111.251l88.884,111.251l10.892,0Z" style="fill:#003876;fill-rule:nonzero;"/><path d="M2266.622,2134.115c0,20.1 6.643,36.76 19.936,49.985c13.289,13.226 29.594,19.839 48.916,19.839c19.319,0 35.593,-6.643 48.818,-19.936c13.226,-13.289 19.839,-29.919 19.839,-49.888c0,-20.097 -6.613,-36.76 -19.839,-49.985c-13.226,-13.226 -29.499,-19.839 -48.818,-19.839c-19.322,0 -35.626,6.71 -48.916,20.13c-13.293,13.42 -19.936,29.986 -19.936,49.694Zm14.198,0c0,-16.338 5.315,-29.919 15.949,-40.747c10.63,-10.825 23.534,-16.24 38.705,-16.24c15.04,0 27.877,5.415 38.51,16.24c10.63,10.828 15.949,24.409 15.949,40.747c0,16.338 -5.188,29.922 -15.56,40.747c-10.375,10.828 -23.339,16.24 -38.899,16.24c-15.043,0 -27.91,-5.446 -38.607,-16.338c-10.697,-10.892 -16.046,-24.44 -16.046,-40.65Z" style="fill:#003876;fill-rule:nonzero;"/><path d="M2539.305,2202.189l39.872,0c24.895,0 43.761,-6.516 56.598,-19.547c12.837,-13.031 19.255,-29.855 19.255,-50.472c0,-9.205 -1.361,-17.666 -4.084,-25.382c-2.723,-7.713 -6.905,-14.684 -12.545,-20.908c-5.64,-6.224 -13.356,-11.086 -23.145,-14.587c-9.792,-3.501 -21.233,-5.251 -34.328,-5.251l-41.622,0l0,136.147Zm41.233,-123.31c20.875,0 36.143,4.832 45.804,14.49c9.658,9.661 14.49,22.595 14.49,38.802c0,17.246 -5.026,31.089 -15.073,41.525c-10.05,10.439 -25.318,15.657 -45.804,15.657l-26.84,0l0,-110.473l27.424,0Z" style="fill:#003876;fill-rule:nonzero;"/><path d="M2710.461,2202.189l98.998,0l0,-12.837l-85.189,0l0,-49.985l77.798,0l0,-12.837l-77.798,0l0,-47.651l83.244,0l0,-12.837l-97.053,0l0,136.147Z" style="fill:#003876;fill-rule:nonzero;"/><path d="M2941.521,2202.189l96.664,0l0,-12.837l-82.855,0l0,-123.31l-13.809,0l0,136.147Z" style="fill:#003876;fill-rule:nonzero;"/><path d="M3075.723,2202.189l14.004,0l15.949,-37.343l69.824,0l16.532,37.343l14.393,0l-59.71,-136.536l-11.281,0l-59.71,136.536Zm64.961,-118.253l29.758,68.462l-59.127,0l29.369,-68.462Z" style="fill:#003876;fill-rule:nonzero;"/><g id="Cupula"><path d="M2175.849,317.708c-6.229,0 -11.308,5.083 -11.308,11.333l0,195.667c0,6.25 5.079,11.333 11.308,11.333l36.646,0c6.229,0 11.279,-5.083 11.279,-11.333l0,-195.667c0,-6.25 -5.05,-11.333 -11.279,-11.333l-36.646,0Z" style="fill:#003876;fill-rule:nonzero;"/><path d="M2080.091,317.708c-6.229,0 -11.308,5.083 -11.308,11.333l0,195.667c0,6.25 5.079,11.333 11.308,11.333l36.617,0c6.258,0 11.308,-5.083 11.308,-11.333l0,-195.667c0,-6.25 -5.05,-11.333 -11.308,-11.333l-36.617,0Z" style="fill:#003876;fill-rule:nonzero;"/><path d="M1937.766,759.792c41.871,-65.542 89.087,-111.042 89.087,-111.042l1.179,-1.541c0,0 -0.371,0.208 -0.596,0.333c-0.008,0 0.075,-0.083 0.037,-0.042c-164.6,71.542 -305.925,211.875 -404.842,395.292c-4.858,8.125 -9.812,16.083 -14.517,24.541c-18.308,32.876 -33.571,66.417 -47.217,99.917c-48.567,119.542 -69.679,238.834 -78.529,327.5c-1.871,15.416 -3.575,30.958 -4.946,46.583c-0.058,0.792 -0.204,2.375 -0.204,2.375l1.191,0l-0.012,0.167l216.967,0.666l34.729,0.125l-0.554,-2.875c0.171,-7.625 0.691,-29.916 1.175,-43.583c-0.679,19.291 -1.271,-57.292 8.771,-154.292c24.213,-233.584 95.05,-422.542 198.279,-584.125Z" style="fill:#003876;fill-rule:nonzero;"/><path d="M2005.503,301.791l376.45,0c3.458,0 6.262,-2.833 6.262,-6.292l0,-14.417c0,-3.459 -2.804,-6.25 -6.262,-6.25l-376.45,0c-3.454,0 -6.258,2.791 -6.258,6.25l0,14.417c0,3.459 2.804,6.292 6.258,6.292Z" style="fill:#003876;fill-rule:nonzero;"/><path d="M2005.503,586l376.45,0c3.458,0 6.262,-2.833 6.262,-6.292l0,-14.417c0,-3.458 -2.804,-6.25 -6.262,-6.25l-376.45,0c-3.454,0 -6.258,2.792 -6.258,6.25l0,14.417c0,3.459 2.804,6.292 6.258,6.292Z" style="fill:#003876;fill-rule:nonzero;"/><path d="M2911.954,1540.834c-1.375,-15.625 -3.083,-31.125 -4.959,-46.542c-8.833,-88.707 -29.958,-207.958 -78.5,-327.416c-13.667,-33.5 -28.916,-67 -47.25,-99.917c-4.542,-8.125 -9.333,-15.792 -14,-23.626c-98.958,-183.833 -240.484,-324.458 -405.367,-396.083c-0.025,0 0.033,0.042 0.021,0.042c-0.192,-0.125 -0.554,-0.334 -0.554,-0.334l1.15,1.541c0,0 47.246,45.501 89.117,111.001c103.229,161.583 174.05,350.499 198.258,583.958c10.042,96.958 9.458,173.584 8.792,154.25c0.5,13.667 1,35.959 1.167,43.583l-0.542,2.876l34.584,-0.125l217.125,-0.626c0,0 -0.042,-0.167 -0.042,-0.208l1.208,0c0,0 -0.166,-1.584 -0.208,-2.375Z" style="fill:#003876;fill-rule:nonzero;"/><path d="M2552.562,649.583c12.342,9.084 26.475,19.958 42.1,32.792c35.958,29.624 66.208,60.292 93.459,89.083c89.375,94.376 138.958,183.876 187.625,279.542c27,53.083 44.417,102.375 59.875,146.334c2.917,8.333 27.5,76.124 43,153.666c18.167,90.792 27.375,192.583 27.375,192.583l139.334,0c0,0 -0.083,-0.917 -0.25,-2.25l5.417,2.083l0,-1.083c-15.292,-420.291 -279.708,-776.958 -649.809,-926.458c-0.471,-0.167 -1.417,-0.584 -1.417,-0.584c0,0 13.879,7.292 30.767,18.792c6.833,4.667 14.508,9.959 22.525,15.5Z" style="fill:#003876;fill-rule:nonzero;"/><path d="M2339.791,254.958c-0.646,-82.5 -64.304,-149.249 -143.183,-150.625l0,-24.459l39.571,0l0,-4.292c0.008,-0.042 0.117,-0.042 0.117,-0.124l0,-14.542c0,-0.751 -0.621,-1.334 -1.358,-1.334l-5.875,0c-0.742,0 -1.329,0.583 -1.329,1.334l0,14.333l-31.125,0l0,-56.25l0.829,0c0.946,0 1.713,-0.791 1.713,-1.709l0,-15.583c0,-0.958 -0.767,-1.708 -1.713,-1.708l-6.85,0c-0.946,0 -1.713,0.75 -1.713,1.708l0,15.583c0,0.918 0.766,1.709 1.713,1.709l0.971,0l0,56.25l-31.504,0l0,-14.333c0,-0.751 -0.621,-1.334 -1.359,-1.334l-5.875,0c-0.738,0 -1.329,0.583 -1.329,1.334l0,14.542c0,0.082 0.083,0.042 0.088,0.124l0,4.292l39.979,0l0,24.459c-79.017,1.458 -142.708,68.5 -143.063,151.25l0,0.666l291.296,0l0,-1.292Z" style="fill:#003876;fill-rule:nonzero;"/><path d="M2247.366,667.959c-1.329,-1.167 -4.017,-3.417 -4.017,-3.417l-0.054,879l322.45,1.125c0,0 0.042,-9.083 0.042,-13.667c0,-374.791 -129.117,-700.167 -318.421,-863.041Z" style="fill:#003876;fill-rule:nonzero;"/><path d="M2271.049,317.708c-6.229,0 -11.279,5.083 -11.279,11.333l0,195.667c0,6.25 5.05,11.333 11.279,11.333l36.642,0c6.233,0 11.279,-5.083 11.279,-11.333l0,-195.667c0,-6.25 -5.046,-11.333 -11.279,-11.333l-36.642,0Z" style="fill:#003876;fill-rule:nonzero;"/><path d="M2237.033,1785.958c6.229,0 11.279,-5.042 11.279,-11.25l0,-85.25c0,-6.25 -5.05,-11.292 -11.279,-11.292l-85.246,0c-6.233,0 -11.279,5.042 -11.279,11.292l0,85.25c0,6.208 5.046,11.25 11.279,11.25l85.246,0Z" style="fill:#003876;fill-rule:nonzero;"/><path d="M2654.662,1786c6.208,0 11.292,-5.042 11.292,-11.292l0,-85.166c0,-6.208 -5.083,-11.292 -11.292,-11.292l-85.208,0c-6.254,0 -11.304,5.083 -11.304,11.292l0,85.166c0,6.25 5.05,11.292 11.304,11.292l85.208,0Z" style="fill:#003876;fill-rule:nonzero;"/><path d="M2146.058,1544l-0.058,-879.25c0,0 -2.687,2.292 -4.017,3.459c-189.275,162.916 -318.4,488.375 -318.4,863.25c0,4.583 0.029,13.667 0.029,13.667l322.446,-1.125Z" style="fill:#003876;fill-rule:nonzero;"/><path d="M3200.079,1615.25l-4.708,0c-0.125,0 -0.209,-0.083 -0.292,-0.083l-184.666,0l0,-32.041c0,-5.25 -4.25,-9.458 -9.458,-9.458l-88.875,0c-5.25,0 -9.458,4.208 -9.458,9.458l0,32.041l-236.625,0l0,-32.041c0,-5.25 -4.208,-9.458 -9.417,-9.458l-88.875,0c-5.246,0 -9.467,4.208 -9.467,9.458l0,32.041l-309.983,0l0,-32.25c0,-5.208 -4.225,-9.458 -9.45,-9.458l-88.908,0c-5.225,0 -9.479,4.25 -9.479,9.458l0,32.25l-309.775,0l0,-32.25c0,-5.208 -4.254,-9.458 -9.45,-9.458l-88.908,0c-5.229,0 -9.479,4.25 -9.479,9.458l0,32.25l-236.667,0l0,-32.25c0,-5.208 -4.25,-9.458 -9.479,-9.458l-88.879,0c-5.225,0 -9.479,4.25 -9.479,9.458l0,32.25l-183.812,0c-0.1,0 -0.187,0.083 -0.292,0.083l-4.933,0c-3.454,0 -6.258,2.792 -6.258,6.25l0,16.959c0,3.459 2.804,6.292 6.258,6.292l2010.817,0c3.458,0 6.25,-2.833 6.25,-6.292l0,-16.959c0,-3.458 -2.792,-6.25 -6.25,-6.25Z" style="fill:#003876;fill-rule:nonzero;"/><path d="M2999.079,1786c6.208,0 11.25,-5.042 11.25,-11.292l0,-85.166c0,-6.208 -5.042,-11.292 -11.25,-11.292l-85.25,0c-6.208,0 -11.25,5.083 -11.25,11.292l0,85.166c0,6.25 5.042,11.292 11.25,11.292l85.25,0Z" style="fill:#003876;fill-rule:nonzero;"/><path d="M1819.42,1785.958c6.229,0 11.279,-5.042 11.279,-11.25l0,-85.25c0,-6.25 -5.05,-11.292 -11.279,-11.292l-85.25,0c-6.229,0 -11.279,5.042 -11.279,11.292l0,85.25c0,6.208 5.05,11.25 11.279,11.25l85.25,0Z" style="fill:#003876;fill-rule:nonzero;"/><path d="M3195.037,1811.333l-2000.754,0c-6.229,0 -11.279,5.083 -11.279,11.292l0,47.334c0,6.25 5.05,11.292 11.279,11.292l2000.754,0c6.25,0 11.292,-5.042 11.292,-11.292l0,-47.334c0,-6.208 -5.042,-11.292 -11.292,-11.292Z" style="fill:#003876;fill-rule:nonzero;"/><path d="M1244.037,1544.084l52.229,0l49.2,0.167l0.042,-0.167l37.871,0c0,0 9.212,-101.834 27.375,-192.667c15.5,-77.542 40.096,-145.376 43.021,-153.709c15.442,-43.917 32.867,-93.291 59.854,-146.333c48.692,-95.708 98.238,-185.25 187.592,-279.667c27.283,-28.791 57.517,-59.458 93.483,-89.083c15.354,-12.667 29.287,-23.375 41.504,-32.375c8.237,-5.709 16.129,-11.167 23.133,-15.917c16.858,-11.542 30.767,-18.833 30.767,-18.833c0,0 -0.946,0.375 -1.417,0.584c-370.104,149.583 -634.496,506.332 -649.792,926.708c0,0.375 -0.029,1.083 -0.029,1.083l5.187,0c-0.004,0.042 -0.021,0.209 -0.021,0.209Z" style="fill:#003876;fill-rule:nonzero;"/><path d="M1474.916,1785.958c6.229,0 11.279,-5.042 11.279,-11.25l0,-85.25c0,-6.25 -5.05,-11.292 -11.279,-11.292l-85.246,0c-6.233,0 -11.308,5.042 -11.308,11.292l0,85.25c0,6.208 5.075,11.25 11.308,11.25l85.246,0Z" style="fill:#003876;fill-rule:nonzero;"/></g></g><g id="Cupula1" serif:id="Cupula"></g></svg>