<?xml version="1.0" encoding="utf-8"?>
<!-- Generator: Adobe Illustrator 23.0.0, SVG Export Plug-In . SVG Version: 6.00 Build 0)  -->
<svg version="1.1" id="Capa_1" xmlns="http://www.w3.org/2000/svg" xmlns:xlink="http://www.w3.org/1999/xlink" x="0px" y="0px"
	 viewBox="0 0 535.1 55.1" style="enable-background:new 0 0 535.1 55.1;" xml:space="preserve">
<style type="text/css">
	.st0{enable-background:new    ;}
	.st1{fill:#0E355C;}
	.st2{fill:#060704;}
	.st3{clip-path:url(#SVGID_2_);}
	.st4{fill:none;}
	.st5{fill:#D7001E;}
	.st6{fill:#FFFFFF;}
	.st7{fill:#2D7EBC;}
	.st8{clip-path:url(#SVGID_4_);}
	.st9{fill-rule:evenodd;clip-rule:evenodd;fill:#18214B;}
</style>
<g id="Group_234" transform="translate(-319.893 -25.892)">
	<g class="st0">
		<path class="st1" d="M508.8,42.2c0,1.8-0.3,3.4-1,4.8s-1.6,2.4-2.8,3.2s-2.6,1.1-4.1,1.1c-1.5,0-2.9-0.4-4.1-1.1s-2.1-1.8-2.8-3.2
			c-0.7-1.4-1-2.9-1-4.7v-0.9c0-1.8,0.3-3.4,1-4.8c0.7-1.4,1.6-2.4,2.8-3.2c1.2-0.7,2.6-1.1,4.1-1.1s2.9,0.4,4.1,1.1
			c1.2,0.7,2.1,1.8,2.8,3.2c0.7,1.4,1,3,1,4.8V42.2z M505,41.3c0-1.9-0.3-3.4-1-4.4s-1.7-1.5-3-1.5c-1.3,0-2.3,0.5-3,1.5
			c-0.7,1-1,2.5-1.1,4.4v0.9c0,1.9,0.3,3.4,1,4.4s1.7,1.6,3,1.6c1.3,0,2.3-0.5,2.9-1.5c0.7-1,1-2.5,1-4.4V41.3z"/>
		<path class="st1" d="M512.4,51V40h-2v-2.7h2v-1.2c0-1.5,0.4-2.7,1.3-3.6c0.9-0.9,2.1-1.3,3.7-1.3c0.5,0,1.1,0.1,1.9,0.3l0,2.8
			c-0.3-0.1-0.7-0.1-1.1-0.1c-1.4,0-2.1,0.6-2.1,1.9v1.1h2.7V40H516v11H512.4z"/>
		<path class="st1" d="M520.7,33.7c0-0.5,0.2-1,0.6-1.4c0.4-0.4,0.9-0.5,1.5-0.5c0.6,0,1.1,0.2,1.5,0.5c0.4,0.4,0.6,0.8,0.6,1.4
			c0,0.6-0.2,1-0.6,1.4s-0.9,0.5-1.5,0.5s-1.1-0.2-1.5-0.5S520.7,34.3,520.7,33.7z M524.6,51h-3.7V37.3h3.7V51z"/>
		<path class="st1" d="M533.3,48.3c0.7,0,1.2-0.2,1.7-0.6s0.6-0.9,0.7-1.5h3.4c0,0.9-0.3,1.8-0.8,2.6c-0.5,0.8-1.2,1.4-2.1,1.8
			c-0.9,0.4-1.8,0.6-2.9,0.6c-2,0-3.5-0.6-4.6-1.9c-1.1-1.2-1.7-3-1.7-5.2V44c0-2.1,0.6-3.8,1.7-5.1s2.7-1.9,4.6-1.9
			c1.7,0,3.1,0.5,4.1,1.5c1,1,1.6,2.3,1.6,3.9h-3.4c0-0.7-0.2-1.3-0.7-1.7c-0.4-0.4-1-0.7-1.7-0.7c-0.9,0-1.5,0.3-1.9,0.9
			s-0.7,1.6-0.7,3v0.4c0,1.4,0.2,2.4,0.6,3.1C531.7,48,532.4,48.3,533.3,48.3z"/>
		<path class="st1" d="M541.1,33.7c0-0.5,0.2-1,0.6-1.4c0.4-0.4,0.9-0.5,1.5-0.5c0.6,0,1.1,0.2,1.5,0.5c0.4,0.4,0.6,0.8,0.6,1.4
			c0,0.6-0.2,1-0.6,1.4s-0.9,0.5-1.5,0.5s-1.1-0.2-1.5-0.5S541.1,34.3,541.1,33.7z M545,51h-3.7V37.3h3.7V51z"/>
		<path class="st1" d="M551.4,37.3l0.1,1.6c1-1.2,2.3-1.8,3.9-1.8c1.5,0,2.5,0.4,3.3,1.3s1.1,2.1,1.1,3.8V51h-3.7v-8.8
			c0-0.8-0.2-1.3-0.5-1.7c-0.3-0.4-0.9-0.5-1.7-0.5c-1,0-1.8,0.4-2.3,1.3V51h-3.7V37.3H551.4z"/>
		<path class="st1" d="M570.5,51c-0.2-0.3-0.3-0.7-0.4-1.2c-0.9,1-2,1.5-3.5,1.5c-1.3,0-2.5-0.4-3.3-1.2s-1.3-1.8-1.3-2.9
			c0-1.5,0.5-2.6,1.6-3.4s2.6-1.2,4.7-1.2h1.7v-0.8c0-0.6-0.2-1.1-0.5-1.5s-0.8-0.6-1.5-0.6c-0.6,0-1.1,0.1-1.5,0.4
			s-0.5,0.7-0.5,1.2h-3.7c0-0.8,0.2-1.5,0.7-2.2s1.2-1.2,2.1-1.6c0.9-0.4,1.9-0.6,3-0.6c1.7,0,3,0.4,4,1.3c1,0.9,1.5,2,1.5,3.6v6
			c0,1.3,0.2,2.3,0.5,3V51H570.5z M567.5,48.4c0.5,0,1-0.1,1.5-0.4c0.5-0.2,0.8-0.6,1-1v-2.4h-1.4c-1.8,0-2.8,0.6-2.9,1.9l0,0.2
			c0,0.5,0.2,0.8,0.5,1.1S567,48.4,567.5,48.4z"/>
		<path class="st1" d="M598.3,51h-3.8L587,38.8V51h-3.8V32.5h3.8l7.4,12.2V32.5h3.8V51z"/>
		<path class="st1" d="M609.3,51c-0.2-0.3-0.3-0.7-0.4-1.2c-0.9,1-2,1.5-3.5,1.5c-1.3,0-2.5-0.4-3.3-1.2c-0.9-0.8-1.3-1.8-1.3-2.9
			c0-1.5,0.5-2.6,1.6-3.4s2.6-1.2,4.7-1.2h1.7v-0.8c0-0.6-0.2-1.1-0.5-1.5c-0.3-0.4-0.8-0.6-1.5-0.6c-0.6,0-1.1,0.1-1.5,0.4
			c-0.4,0.3-0.5,0.7-0.5,1.2h-3.7c0-0.8,0.2-1.5,0.7-2.2c0.5-0.7,1.2-1.2,2.1-1.6c0.9-0.4,1.9-0.6,3-0.6c1.7,0,3,0.4,4,1.3
			c1,0.9,1.5,2,1.5,3.6v6c0,1.3,0.2,2.3,0.5,3V51H609.3z M606.3,48.4c0.5,0,1-0.1,1.5-0.4c0.5-0.2,0.8-0.6,1-1v-2.4h-1.4
			c-1.8,0-2.8,0.6-2.9,1.9l0,0.2c0,0.5,0.2,0.8,0.5,1.1C605.3,48.3,605.7,48.4,606.3,48.4z"/>
		<path class="st1" d="M621,48.3c0.7,0,1.2-0.2,1.7-0.6c0.4-0.4,0.6-0.9,0.7-1.5h3.4c0,0.9-0.3,1.8-0.8,2.6
			c-0.5,0.8-1.2,1.4-2.1,1.8c-0.9,0.4-1.8,0.6-2.9,0.6c-2,0-3.5-0.6-4.6-1.9c-1.1-1.2-1.7-3-1.7-5.2V44c0-2.1,0.6-3.8,1.7-5.1
			c1.1-1.3,2.7-1.9,4.6-1.9c1.7,0,3.1,0.5,4.1,1.5c1,1,1.6,2.3,1.6,3.9h-3.4c0-0.7-0.2-1.3-0.7-1.7c-0.4-0.4-1-0.7-1.7-0.7
			c-0.9,0-1.5,0.3-1.9,0.9c-0.4,0.6-0.7,1.6-0.7,3v0.4c0,1.4,0.2,2.4,0.6,3.1C619.5,48,620.1,48.3,621,48.3z"/>
		<path class="st1" d="M628.8,33.7c0-0.5,0.2-1,0.6-1.4c0.4-0.4,0.9-0.5,1.5-0.5c0.6,0,1.1,0.2,1.5,0.5c0.4,0.4,0.6,0.8,0.6,1.4
			c0,0.6-0.2,1-0.6,1.4c-0.4,0.4-0.9,0.5-1.5,0.5c-0.6,0-1.1-0.2-1.5-0.5C629,34.7,628.8,34.3,628.8,33.7z M632.7,51H629V37.3h3.7
			V51z"/>
		<path class="st1" d="M635.2,44c0-1.4,0.3-2.6,0.8-3.6c0.5-1.1,1.3-1.9,2.3-2.5c1-0.6,2.1-0.9,3.4-0.9c1.9,0,3.4,0.6,4.5,1.7
			c1.2,1.1,1.8,2.7,2,4.6l0,0.9c0,2.1-0.6,3.8-1.8,5.1c-1.2,1.3-2.8,1.9-4.7,1.9s-3.6-0.6-4.7-1.9s-1.8-3-1.8-5.2V44z M638.8,44.3
			c0,1.3,0.2,2.3,0.7,3c0.5,0.7,1.2,1,2.1,1c0.9,0,1.6-0.3,2.1-1c0.5-0.7,0.7-1.8,0.7-3.3c0-1.3-0.3-2.3-0.7-3
			c-0.5-0.7-1.2-1.1-2.1-1.1c-0.9,0-1.6,0.3-2.1,1C639.1,41.7,638.8,42.8,638.8,44.3z"/>
		<path class="st1" d="M653.8,37.3l0.1,1.6c1-1.2,2.3-1.8,3.9-1.8c1.5,0,2.5,0.4,3.3,1.3s1.1,2.1,1.1,3.8V51h-3.7v-8.8
			c0-0.8-0.2-1.3-0.5-1.7c-0.3-0.4-0.9-0.5-1.7-0.5c-1,0-1.8,0.4-2.3,1.3V51h-3.7V37.3H653.8z"/>
		<path class="st1" d="M673,51c-0.2-0.3-0.3-0.7-0.4-1.2c-0.9,1-2,1.5-3.5,1.5c-1.3,0-2.5-0.4-3.3-1.2c-0.9-0.8-1.3-1.8-1.3-2.9
			c0-1.5,0.5-2.6,1.6-3.4s2.6-1.2,4.7-1.2h1.7v-0.8c0-0.6-0.2-1.1-0.5-1.5c-0.3-0.4-0.8-0.6-1.5-0.6c-0.6,0-1.1,0.1-1.5,0.4
			c-0.4,0.3-0.5,0.7-0.5,1.2h-3.7c0-0.8,0.2-1.5,0.7-2.2c0.5-0.7,1.2-1.2,2.1-1.6c0.9-0.4,1.9-0.6,3-0.6c1.7,0,3,0.4,4,1.3
			c1,0.9,1.5,2,1.5,3.6v6c0,1.3,0.2,2.3,0.5,3V51H673z M669.9,48.4c0.5,0,1-0.1,1.5-0.4c0.5-0.2,0.8-0.6,1-1v-2.4h-1.4
			c-1.8,0-2.8,0.6-2.9,1.9l0,0.2c0,0.5,0.2,0.8,0.5,1.1C668.9,48.3,669.4,48.4,669.9,48.4z"/>
		<path class="st1" d="M682.8,51h-3.7V31.5h3.7V51z"/>
		<path class="st1" d="M691.7,44c0-2.1,0.5-3.8,1.4-5.1c1-1.3,2.3-1.9,3.9-1.9c1.3,0,2.4,0.5,3.3,1.5v-7h3.7V51h-3.3l-0.2-1.5
			c-0.9,1.1-2.1,1.7-3.5,1.7c-1.6,0-2.9-0.6-3.9-1.9C692.2,48.1,691.7,46.3,691.7,44z M695.4,44.3c0,1.3,0.2,2.3,0.7,3
			c0.4,0.7,1.1,1,2,1c1.1,0,1.9-0.5,2.4-1.4v-5.4c-0.5-1-1.2-1.4-2.4-1.4C696.3,40,695.4,41.4,695.4,44.3z"/>
		<path class="st1" d="M713.3,51.3c-2,0-3.7-0.6-4.9-1.9c-1.3-1.2-1.9-2.9-1.9-4.9v-0.4c0-1.4,0.3-2.6,0.8-3.7
			c0.5-1.1,1.3-1.9,2.3-2.5c1-0.6,2.1-0.9,3.3-0.9c1.9,0,3.4,0.6,4.4,1.8s1.6,2.9,1.6,5v1.5h-8.7c0.1,0.9,0.5,1.6,1.1,2.2
			s1.4,0.8,2.3,0.8c1.4,0,2.5-0.5,3.3-1.5l1.8,2c-0.6,0.8-1.3,1.4-2.2,1.8C715.5,51,714.4,51.3,713.3,51.3z M712.9,40
			c-0.7,0-1.3,0.2-1.8,0.7c-0.5,0.5-0.7,1.2-0.9,2.1h5.1v-0.3c0-0.8-0.2-1.4-0.7-1.9C714.3,40.2,713.7,40,712.9,40z"/>
		<path class="st1" d="M738.9,43h-7.3v5h8.6V51h-12.4V32.5h12.4v3.1h-8.6V40h7.3V43z"/>
		<path class="st1" d="M749.6,47.2c0-0.4-0.2-0.8-0.7-1.1c-0.4-0.3-1.2-0.5-2.1-0.7c-3.3-0.7-4.9-2.1-4.9-4.2c0-1.2,0.5-2.2,1.5-3.1
			c1-0.8,2.3-1.2,4-1.2c1.7,0,3.1,0.4,4.2,1.2c1,0.8,1.6,1.9,1.6,3.2h-3.7c0-0.5-0.2-1-0.5-1.3c-0.3-0.3-0.9-0.5-1.6-0.5
			c-0.6,0-1.1,0.1-1.4,0.4c-0.3,0.3-0.5,0.6-0.5,1.1c0,0.4,0.2,0.7,0.6,1c0.4,0.3,1,0.5,1.9,0.6c0.9,0.2,1.7,0.4,2.3,0.6
			c1.9,0.7,2.9,1.9,2.9,3.7c0,1.3-0.5,2.3-1.6,3c-1.1,0.8-2.5,1.2-4.2,1.2c-1.2,0-2.2-0.2-3.1-0.6c-0.9-0.4-1.6-1-2.1-1.7
			c-0.5-0.7-0.8-1.5-0.8-2.3h3.5c0,0.7,0.3,1.2,0.7,1.5c0.4,0.3,1,0.5,1.8,0.5c0.7,0,1.2-0.1,1.6-0.4
			C749.4,48,749.6,47.6,749.6,47.2z"/>
		<path class="st1" d="M759.9,33.9v3.4h2.3V40h-2.3v6.9c0,0.5,0.1,0.9,0.3,1.1c0.2,0.2,0.6,0.3,1.1,0.3c0.4,0,0.8,0,1.1-0.1v2.8
			c-0.7,0.2-1.5,0.3-2.2,0.3c-2.6,0-3.9-1.3-3.9-3.9V40h-2v-2.7h2v-3.4H759.9z"/>
		<path class="st1" d="M772.2,51c-0.2-0.3-0.3-0.7-0.4-1.2c-0.9,1-2,1.5-3.5,1.5c-1.3,0-2.5-0.4-3.3-1.2c-0.9-0.8-1.3-1.8-1.3-2.9
			c0-1.5,0.5-2.6,1.6-3.4s2.6-1.2,4.7-1.2h1.7v-0.8c0-0.6-0.2-1.1-0.5-1.5c-0.3-0.4-0.8-0.6-1.5-0.6c-0.6,0-1.1,0.1-1.5,0.4
			c-0.4,0.3-0.5,0.7-0.5,1.2H764c0-0.8,0.2-1.5,0.7-2.2c0.5-0.7,1.2-1.2,2.1-1.6c0.9-0.4,1.9-0.6,3-0.6c1.7,0,3,0.4,4,1.3
			c1,0.9,1.5,2,1.5,3.6v6c0,1.3,0.2,2.3,0.5,3V51H772.2z M769.2,48.4c0.5,0,1-0.1,1.5-0.4c0.5-0.2,0.8-0.6,1-1v-2.4h-1.4
			c-1.8,0-2.8,0.6-2.9,1.9l0,0.2c0,0.5,0.2,0.8,0.5,1.1C768.2,48.3,768.6,48.4,769.2,48.4z"/>
		<path class="st1" d="M777.6,44c0-2.1,0.5-3.8,1.4-5.1c1-1.3,2.3-1.9,3.9-1.9c1.3,0,2.4,0.5,3.3,1.5v-7h3.7V51h-3.3l-0.2-1.5
			c-0.9,1.1-2.1,1.7-3.5,1.7c-1.6,0-2.9-0.6-3.9-1.9C778.1,48.1,777.6,46.3,777.6,44z M781.3,44.3c0,1.3,0.2,2.3,0.7,3
			c0.4,0.7,1.1,1,2,1c1.1,0,1.9-0.5,2.4-1.4v-5.4c-0.5-1-1.2-1.4-2.4-1.4C782.2,40,781.3,41.4,781.3,44.3z"/>
		<path class="st1" d="M796.8,51h-3.7V37.3h3.7V51z M795.7,31.7h4l-3.5,3.9h-3L795.7,31.7z"/>
		<path class="st1" d="M807.4,47.2c0-0.4-0.2-0.8-0.7-1.1c-0.4-0.3-1.2-0.5-2.1-0.7c-3.3-0.7-4.9-2.1-4.9-4.2c0-1.2,0.5-2.2,1.5-3.1
			c1-0.8,2.3-1.2,4-1.2c1.7,0,3.1,0.4,4.2,1.2c1,0.8,1.6,1.9,1.6,3.2h-3.7c0-0.5-0.2-1-0.5-1.3c-0.3-0.3-0.9-0.5-1.6-0.5
			c-0.6,0-1.1,0.1-1.4,0.4s-0.5,0.6-0.5,1.1c0,0.4,0.2,0.7,0.6,1c0.4,0.3,1,0.5,1.9,0.6c0.9,0.2,1.7,0.4,2.3,0.6
			c1.9,0.7,2.9,1.9,2.9,3.7c0,1.3-0.5,2.3-1.6,3c-1.1,0.8-2.5,1.2-4.2,1.2c-1.2,0-2.2-0.2-3.1-0.6c-0.9-0.4-1.6-1-2.1-1.7
			c-0.5-0.7-0.8-1.5-0.8-2.3h3.5c0,0.7,0.3,1.2,0.7,1.5s1,0.5,1.8,0.5c0.7,0,1.2-0.1,1.6-0.4C807.2,48,807.4,47.6,807.4,47.2z"/>
		<path class="st1" d="M817.7,33.9v3.4h2.3V40h-2.3v6.9c0,0.5,0.1,0.9,0.3,1.1s0.6,0.3,1.1,0.3c0.4,0,0.8,0,1.1-0.1v2.8
			c-0.7,0.2-1.5,0.3-2.2,0.3c-2.6,0-3.9-1.3-3.9-3.9V40h-2v-2.7h2v-3.4H817.7z"/>
		<path class="st1" d="M822.1,33.7c0-0.5,0.2-1,0.6-1.4c0.4-0.4,0.9-0.5,1.5-0.5c0.6,0,1.1,0.2,1.5,0.5c0.4,0.4,0.6,0.8,0.6,1.4
			c0,0.6-0.2,1-0.6,1.4c-0.4,0.4-0.9,0.5-1.5,0.5s-1.1-0.2-1.5-0.5C822.3,34.7,822.1,34.3,822.1,33.7z M826,51h-3.7V37.3h3.7V51z"/>
		<path class="st1" d="M834.7,48.3c0.7,0,1.2-0.2,1.7-0.6s0.6-0.9,0.7-1.5h3.4c0,0.9-0.3,1.8-0.8,2.6c-0.5,0.8-1.2,1.4-2.1,1.8
			c-0.9,0.4-1.8,0.6-2.9,0.6c-2,0-3.5-0.6-4.6-1.9c-1.1-1.2-1.7-3-1.7-5.2V44c0-2.1,0.6-3.8,1.7-5.1s2.7-1.9,4.6-1.9
			c1.7,0,3.1,0.5,4.1,1.5c1,1,1.6,2.3,1.6,3.9h-3.4c0-0.7-0.2-1.3-0.7-1.7c-0.4-0.4-1-0.7-1.7-0.7c-0.9,0-1.5,0.3-1.9,0.9
			c-0.4,0.6-0.7,1.6-0.7,3v0.4c0,1.4,0.2,2.4,0.6,3.1C833.2,48,833.9,48.3,834.7,48.3z"/>
		<path class="st1" d="M850.6,51c-0.2-0.3-0.3-0.7-0.4-1.2c-0.9,1-2,1.5-3.5,1.5c-1.3,0-2.5-0.4-3.3-1.2c-0.9-0.8-1.3-1.8-1.3-2.9
			c0-1.5,0.5-2.6,1.6-3.4c1.1-0.8,2.6-1.2,4.7-1.2h1.7v-0.8c0-0.6-0.2-1.1-0.5-1.5c-0.3-0.4-0.8-0.6-1.5-0.6c-0.6,0-1.1,0.1-1.5,0.4
			c-0.4,0.3-0.5,0.7-0.5,1.2h-3.7c0-0.8,0.2-1.5,0.7-2.2s1.2-1.2,2.1-1.6c0.9-0.4,1.9-0.6,3-0.6c1.7,0,3,0.4,4,1.3
			c1,0.9,1.5,2,1.5,3.6v6c0,1.3,0.2,2.3,0.5,3V51H850.6z M847.5,48.4c0.5,0,1-0.1,1.5-0.4c0.5-0.2,0.8-0.6,1-1v-2.4h-1.4
			c-1.8,0-2.8,0.6-2.9,1.9l0,0.2c0,0.5,0.2,0.8,0.5,1.1S847,48.4,847.5,48.4z"/>
	</g>
	<g class="st0">
		<path class="st2" d="M499.7,71.7h-4.9v4h5.7V77h-7.2V65.6h7.1v1.2h-5.6v3.7h4.9V71.7z"/>
		<path class="st2" d="M503.8,77h-1.4V65h1.4V77z"/>
		<path class="st2" d="M517.2,72.9c0,1.3-0.3,2.3-0.9,3.1c-0.6,0.8-1.4,1.2-2.4,1.2c-1,0-1.8-0.3-2.4-1v4.1H510V68.5h1.3l0.1,0.9
			c0.6-0.7,1.4-1.1,2.5-1.1c1,0,1.8,0.4,2.4,1.1c0.6,0.8,0.9,1.8,0.9,3.2V72.9z M515.7,72.7c0-1-0.2-1.7-0.6-2.3s-1-0.8-1.7-0.8
			c-0.9,0-1.5,0.4-2,1.2v4c0.4,0.8,1.1,1.2,2,1.2c0.7,0,1.2-0.3,1.7-0.8C515.5,74.6,515.7,73.8,515.7,72.7z"/>
		<path class="st2" d="M518.6,72.7c0-0.8,0.2-1.6,0.5-2.2c0.3-0.7,0.8-1.2,1.4-1.5c0.6-0.4,1.2-0.5,2-0.5c1.2,0,2.1,0.4,2.8,1.2
			s1.1,1.9,1.1,3.2v0.1c0,0.8-0.2,1.6-0.5,2.2c-0.3,0.7-0.8,1.2-1.4,1.5s-1.3,0.5-2,0.5c-1.1,0-2.1-0.4-2.8-1.2s-1.1-1.9-1.1-3.2
			V72.7z M520.1,72.9c0,0.9,0.2,1.7,0.7,2.3c0.4,0.6,1,0.9,1.7,0.9c0.7,0,1.3-0.3,1.8-0.9c0.4-0.6,0.6-1.4,0.6-2.4
			c0-0.9-0.2-1.7-0.7-2.3c-0.4-0.6-1-0.9-1.8-0.9c-0.7,0-1.3,0.3-1.7,0.9S520.1,71.8,520.1,72.9z"/>
		<path class="st2" d="M532.2,69.8c-0.2,0-0.5-0.1-0.7-0.1c-0.9,0-1.6,0.4-1.9,1.2v6h-1.4v-8.5h1.4l0,1c0.5-0.8,1.1-1.1,2-1.1
			c0.3,0,0.5,0,0.6,0.1V69.8z"/>
		<path class="st2" d="M535.9,66.5v2h1.6v1.1h-1.6v5.2c0,0.3,0.1,0.6,0.2,0.8c0.1,0.2,0.4,0.3,0.7,0.3c0.2,0,0.4,0,0.7-0.1V77
			c-0.4,0.1-0.8,0.2-1.1,0.2c-0.6,0-1.1-0.2-1.5-0.6s-0.5-0.9-0.5-1.7v-5.2h-1.5v-1.1h1.5v-2H535.9z"/>
		<path class="st2" d="M544.4,77c-0.1-0.2-0.2-0.5-0.2-0.9c-0.7,0.7-1.5,1-2.4,1c-0.8,0-1.5-0.2-2.1-0.7c-0.5-0.5-0.8-1.1-0.8-1.8
			c0-0.9,0.3-1.6,1-2.1c0.7-0.5,1.6-0.7,2.8-0.7h1.4v-0.7c0-0.5-0.2-0.9-0.5-1.2c-0.3-0.3-0.7-0.4-1.3-0.4c-0.5,0-0.9,0.1-1.3,0.4
			c-0.3,0.3-0.5,0.6-0.5,0.9h-1.5c0-0.4,0.1-0.8,0.4-1.2c0.3-0.4,0.7-0.7,1.2-0.9c0.5-0.2,1.1-0.3,1.7-0.3c1,0,1.7,0.2,2.3,0.7
			c0.6,0.5,0.8,1.2,0.9,2V75c0,0.8,0.1,1.4,0.3,1.9V77H544.4z M542,75.9c0.5,0,0.9-0.1,1.3-0.4s0.7-0.5,0.9-0.9v-1.7H543
			c-1.8,0-2.7,0.5-2.7,1.6c0,0.5,0.2,0.8,0.5,1.1C541.1,75.8,541.5,75.9,542,75.9z"/>
		<path class="st2" d="M549.4,77H548V65h1.4V77z"/>
		<path class="st2" d="M555.4,72.7c0-1.3,0.3-2.3,0.9-3.1c0.6-0.8,1.4-1.2,2.4-1.2c1,0,1.8,0.3,2.4,1V65h1.4v12h-1.3l-0.1-0.9
			c-0.6,0.7-1.4,1.1-2.4,1.1c-1,0-1.8-0.4-2.4-1.2s-0.9-1.8-0.9-3.1V72.7z M556.8,72.9c0,1,0.2,1.7,0.6,2.3c0.4,0.5,0.9,0.8,1.6,0.8
			c0.9,0,1.6-0.4,2-1.2v-3.9c-0.4-0.8-1.1-1.2-2-1.2c-0.7,0-1.3,0.3-1.7,0.8C557,71,556.8,71.8,556.8,72.9z"/>
		<path class="st2" d="M568.2,77.2c-1.1,0-2.1-0.4-2.8-1.1s-1.1-1.8-1.1-3v-0.3c0-0.8,0.2-1.6,0.5-2.2s0.8-1.2,1.3-1.5
			c0.6-0.4,1.2-0.6,1.9-0.6c1.1,0,2,0.4,2.6,1.1s0.9,1.8,0.9,3.1v0.6h-5.7c0,0.8,0.3,1.5,0.7,2c0.5,0.5,1.1,0.8,1.8,0.8
			c0.5,0,0.9-0.1,1.3-0.3c0.4-0.2,0.7-0.5,0.9-0.8l0.9,0.7C570.7,76.6,569.7,77.2,568.2,77.2z M568.1,69.6c-0.6,0-1.1,0.2-1.5,0.6
			c-0.4,0.4-0.6,1-0.7,1.8h4.2v-0.1c0-0.7-0.2-1.3-0.6-1.7C569.1,69.8,568.7,69.6,568.1,69.6z"/>
		<path class="st2" d="M578.7,77h-1.4V65h1.4V77z"/>
		<path class="st2" d="M586.3,77c-0.1-0.2-0.2-0.5-0.2-0.9c-0.7,0.7-1.5,1-2.4,1c-0.8,0-1.5-0.2-2.1-0.7c-0.5-0.5-0.8-1.1-0.8-1.8
			c0-0.9,0.3-1.6,1-2.1c0.7-0.5,1.6-0.7,2.8-0.7h1.4v-0.7c0-0.5-0.2-0.9-0.5-1.2c-0.3-0.3-0.7-0.4-1.3-0.4c-0.5,0-0.9,0.1-1.3,0.4
			c-0.3,0.3-0.5,0.6-0.5,0.9H581c0-0.4,0.1-0.8,0.4-1.2c0.3-0.4,0.7-0.7,1.2-0.9c0.5-0.2,1.1-0.3,1.7-0.3c1,0,1.7,0.2,2.3,0.7
			c0.6,0.5,0.8,1.2,0.9,2V75c0,0.8,0.1,1.4,0.3,1.9V77H586.3z M583.9,75.9c0.5,0,0.9-0.1,1.3-0.4s0.7-0.5,0.9-0.9v-1.7h-1.1
			c-1.8,0-2.7,0.5-2.7,1.6c0,0.5,0.2,0.8,0.5,1.1C583,75.8,583.4,75.9,583.9,75.9z"/>
		<path class="st2" d="M594.7,74.8c0-0.4-0.1-0.7-0.4-0.9c-0.3-0.2-0.8-0.4-1.5-0.6c-0.7-0.2-1.3-0.3-1.7-0.6s-0.7-0.5-1-0.8
			c-0.2-0.3-0.3-0.7-0.3-1.1c0-0.7,0.3-1.3,0.9-1.8s1.3-0.7,2.2-0.7c1,0,1.7,0.2,2.3,0.7c0.6,0.5,0.9,1.1,0.9,1.9h-1.5
			c0-0.4-0.2-0.7-0.5-1s-0.8-0.4-1.3-0.4c-0.5,0-0.9,0.1-1.2,0.3s-0.4,0.5-0.4,0.9c0,0.3,0.1,0.6,0.4,0.8c0.3,0.2,0.8,0.3,1.5,0.5
			c0.7,0.2,1.3,0.4,1.8,0.6c0.4,0.2,0.8,0.5,1,0.8c0.2,0.3,0.3,0.7,0.3,1.2c0,0.8-0.3,1.4-0.9,1.8c-0.6,0.5-1.4,0.7-2.4,0.7
			c-0.7,0-1.3-0.1-1.8-0.4c-0.5-0.2-0.9-0.6-1.2-1c-0.3-0.4-0.4-0.9-0.4-1.4h1.4c0,0.5,0.2,0.9,0.6,1.2c0.4,0.3,0.8,0.4,1.4,0.4
			c0.5,0,1-0.1,1.3-0.3C594.5,75.4,594.7,75.1,594.7,74.8z"/>
		<path class="st2" d="M605.5,77.2c-1.1,0-2.1-0.4-2.8-1.1s-1.1-1.8-1.1-3v-0.3c0-0.8,0.2-1.6,0.5-2.2s0.8-1.2,1.3-1.5
			c0.6-0.4,1.2-0.6,1.9-0.6c1.1,0,2,0.4,2.6,1.1s0.9,1.8,0.9,3.1v0.6H603c0,0.8,0.3,1.5,0.7,2c0.5,0.5,1.1,0.8,1.8,0.8
			c0.5,0,0.9-0.1,1.3-0.3c0.4-0.2,0.7-0.5,0.9-0.8l0.9,0.7C608,76.6,606.9,77.2,605.5,77.2z M605.3,69.6c-0.6,0-1.1,0.2-1.5,0.6
			c-0.4,0.4-0.6,1-0.7,1.8h4.2v-0.1c0-0.7-0.2-1.3-0.6-1.7C606.4,69.8,605.9,69.6,605.3,69.6z"/>
		<path class="st2" d="M615.4,74.8c0-0.4-0.1-0.7-0.4-0.9c-0.3-0.2-0.8-0.4-1.5-0.6c-0.7-0.2-1.3-0.3-1.7-0.6s-0.7-0.5-1-0.8
			c-0.2-0.3-0.3-0.7-0.3-1.1c0-0.7,0.3-1.3,0.9-1.8s1.3-0.7,2.2-0.7c1,0,1.7,0.2,2.3,0.7c0.6,0.5,0.9,1.1,0.9,1.9h-1.5
			c0-0.4-0.2-0.7-0.5-1s-0.8-0.4-1.3-0.4c-0.5,0-0.9,0.1-1.2,0.3s-0.4,0.5-0.4,0.9c0,0.3,0.1,0.6,0.4,0.8c0.3,0.2,0.8,0.3,1.5,0.5
			c0.7,0.2,1.3,0.4,1.8,0.6c0.4,0.2,0.8,0.5,1,0.8c0.2,0.3,0.3,0.7,0.3,1.2c0,0.8-0.3,1.4-0.9,1.8c-0.6,0.5-1.4,0.7-2.4,0.7
			c-0.7,0-1.3-0.1-1.8-0.4c-0.5-0.2-0.9-0.6-1.2-1c-0.3-0.4-0.4-0.9-0.4-1.4h1.4c0,0.5,0.2,0.9,0.6,1.2c0.4,0.3,0.8,0.4,1.4,0.4
			c0.5,0,1-0.1,1.3-0.3C615.2,75.4,615.4,75.1,615.4,74.8z"/>
		<path class="st2" d="M620.7,66.5v2h1.6v1.1h-1.6v5.2c0,0.3,0.1,0.6,0.2,0.8c0.1,0.2,0.4,0.3,0.7,0.3c0.2,0,0.4,0,0.7-0.1V77
			c-0.4,0.1-0.8,0.2-1.1,0.2c-0.6,0-1.1-0.2-1.5-0.6s-0.5-0.9-0.5-1.7v-5.2h-1.5v-1.1h1.5v-2H620.7z"/>
		<path class="st2" d="M629.1,77c-0.1-0.2-0.2-0.5-0.2-0.9c-0.7,0.7-1.5,1-2.4,1c-0.8,0-1.5-0.2-2.1-0.7c-0.5-0.5-0.8-1.1-0.8-1.8
			c0-0.9,0.3-1.6,1-2.1c0.7-0.5,1.6-0.7,2.8-0.7h1.4v-0.7c0-0.5-0.2-0.9-0.5-1.2c-0.3-0.3-0.7-0.4-1.3-0.4c-0.5,0-0.9,0.1-1.3,0.4
			c-0.3,0.3-0.5,0.6-0.5,0.9h-1.5c0-0.4,0.1-0.8,0.4-1.2c0.3-0.4,0.7-0.7,1.2-0.9c0.5-0.2,1.1-0.3,1.7-0.3c1,0,1.7,0.2,2.3,0.7
			c0.6,0.5,0.8,1.2,0.9,2V75c0,0.8,0.1,1.4,0.3,1.9V77H629.1z M626.7,75.9c0.5,0,0.9-0.1,1.3-0.4s0.7-0.5,0.9-0.9v-1.7h-1.1
			c-1.8,0-2.7,0.5-2.7,1.6c0,0.5,0.2,0.8,0.5,1.1C625.9,75.8,626.3,75.9,626.7,75.9z"/>
		<path class="st2" d="M632.3,72.7c0-1.3,0.3-2.3,0.9-3.1c0.6-0.8,1.4-1.2,2.4-1.2c1,0,1.8,0.3,2.4,1V65h1.4v12h-1.3l-0.1-0.9
			c-0.6,0.7-1.4,1.1-2.4,1.1c-1,0-1.8-0.4-2.4-1.2s-0.9-1.8-0.9-3.1V72.7z M633.7,72.9c0,1,0.2,1.7,0.6,2.3c0.4,0.5,0.9,0.8,1.6,0.8
			c0.9,0,1.6-0.4,2-1.2v-3.9c-0.4-0.8-1.1-1.2-2-1.2c-0.7,0-1.3,0.3-1.7,0.8C633.9,71,633.7,71.8,633.7,72.9z"/>
		<path class="st2" d="M643.2,65h1.8l-2.1,2.3l-1.2,0L643.2,65z M643.2,77h-1.5v-8.5h1.5V77z"/>
		<path class="st2" d="M650.5,74.8c0-0.4-0.1-0.7-0.4-0.9c-0.3-0.2-0.8-0.4-1.5-0.6c-0.7-0.2-1.3-0.3-1.7-0.6s-0.7-0.5-1-0.8
			c-0.2-0.3-0.3-0.7-0.3-1.1c0-0.7,0.3-1.3,0.9-1.8s1.3-0.7,2.2-0.7c1,0,1.7,0.2,2.3,0.7c0.6,0.5,0.9,1.1,0.9,1.9h-1.5
			c0-0.4-0.2-0.7-0.5-1s-0.8-0.4-1.3-0.4c-0.5,0-0.9,0.1-1.2,0.3s-0.4,0.5-0.4,0.9c0,0.3,0.1,0.6,0.4,0.8c0.3,0.2,0.8,0.3,1.5,0.5
			c0.7,0.2,1.3,0.4,1.8,0.6c0.4,0.2,0.8,0.5,1,0.8c0.2,0.3,0.3,0.7,0.3,1.2c0,0.8-0.3,1.4-0.9,1.8c-0.6,0.5-1.4,0.7-2.4,0.7
			c-0.7,0-1.3-0.1-1.8-0.4c-0.5-0.2-0.9-0.6-1.2-1c-0.3-0.4-0.4-0.9-0.4-1.4h1.4c0,0.5,0.2,0.9,0.6,1.2c0.4,0.3,0.8,0.4,1.4,0.4
			c0.5,0,1-0.1,1.3-0.3C650.4,75.4,650.5,75.1,650.5,74.8z"/>
		<path class="st2" d="M655.8,66.5v2h1.6v1.1h-1.6v5.2c0,0.3,0.1,0.6,0.2,0.8c0.1,0.2,0.4,0.3,0.7,0.3c0.2,0,0.4,0,0.7-0.1V77
			c-0.4,0.1-0.8,0.2-1.1,0.2c-0.6,0-1.1-0.2-1.5-0.6s-0.5-0.9-0.5-1.7v-5.2h-1.5v-1.1h1.5v-2H655.8z"/>
		<path class="st2" d="M659.1,66.3c0-0.2,0.1-0.4,0.2-0.6c0.1-0.2,0.4-0.2,0.6-0.2s0.5,0.1,0.6,0.2c0.1,0.2,0.2,0.4,0.2,0.6
			s-0.1,0.4-0.2,0.6c-0.1,0.2-0.4,0.2-0.6,0.2s-0.5-0.1-0.6-0.2C659.2,66.7,659.1,66.5,659.1,66.3z M660.6,77h-1.4v-8.5h1.4V77z"/>
		<path class="st2" d="M666.4,76c0.5,0,1-0.2,1.4-0.5c0.4-0.3,0.6-0.7,0.6-1.2h1.4c0,0.5-0.2,0.9-0.5,1.4c-0.3,0.4-0.7,0.8-1.2,1
			c-0.5,0.3-1.1,0.4-1.6,0.4c-1.2,0-2.1-0.4-2.7-1.2s-1-1.8-1-3.2v-0.2c0-0.8,0.2-1.6,0.5-2.2c0.3-0.6,0.7-1.1,1.3-1.5
			c0.6-0.4,1.2-0.5,2-0.5c0.9,0,1.7,0.3,2.4,0.9c0.6,0.6,1,1.3,1,2.2h-1.4c0-0.5-0.2-1-0.6-1.3c-0.4-0.4-0.8-0.5-1.4-0.5
			c-0.7,0-1.3,0.3-1.7,0.8c-0.4,0.5-0.6,1.3-0.6,2.3v0.3c0,1,0.2,1.7,0.6,2.3C665,75.7,665.6,76,666.4,76z"/>
		<path class="st2" d="M676.6,77c-0.1-0.2-0.2-0.5-0.2-0.9c-0.7,0.7-1.5,1-2.4,1c-0.8,0-1.5-0.2-2.1-0.7c-0.5-0.5-0.8-1.1-0.8-1.8
			c0-0.9,0.3-1.6,1-2.1c0.7-0.5,1.6-0.7,2.8-0.7h1.4v-0.7c0-0.5-0.2-0.9-0.5-1.2c-0.3-0.3-0.7-0.4-1.3-0.4c-0.5,0-0.9,0.1-1.3,0.4
			c-0.3,0.3-0.5,0.6-0.5,0.9h-1.5c0-0.4,0.1-0.8,0.4-1.2c0.3-0.4,0.7-0.7,1.2-0.9c0.5-0.2,1.1-0.3,1.7-0.3c1,0,1.7,0.2,2.3,0.7
			c0.6,0.5,0.8,1.2,0.9,2V75c0,0.8,0.1,1.4,0.3,1.9V77H676.6z M674.2,75.9c0.5,0,0.9-0.1,1.3-0.4s0.7-0.5,0.9-0.9v-1.7h-1.1
			c-1.8,0-2.7,0.5-2.7,1.6c0,0.5,0.2,0.8,0.5,1.1C673.3,75.8,673.7,75.9,674.2,75.9z"/>
		<path class="st2" d="M685,74.8c0-0.4-0.1-0.7-0.4-0.9c-0.3-0.2-0.8-0.4-1.5-0.6c-0.7-0.2-1.3-0.3-1.7-0.6s-0.7-0.5-1-0.8
			c-0.2-0.3-0.3-0.7-0.3-1.1c0-0.7,0.3-1.3,0.9-1.8s1.3-0.7,2.2-0.7c1,0,1.7,0.2,2.3,0.7c0.6,0.5,0.9,1.1,0.9,1.9h-1.5
			c0-0.4-0.2-0.7-0.5-1s-0.8-0.4-1.3-0.4c-0.5,0-0.9,0.1-1.2,0.3s-0.4,0.5-0.4,0.9c0,0.3,0.1,0.6,0.4,0.8c0.3,0.2,0.8,0.3,1.5,0.5
			c0.7,0.2,1.3,0.4,1.8,0.6c0.4,0.2,0.8,0.5,1,0.8c0.2,0.3,0.3,0.7,0.3,1.2c0,0.8-0.3,1.4-0.9,1.8c-0.6,0.5-1.4,0.7-2.4,0.7
			c-0.7,0-1.3-0.1-1.8-0.4c-0.5-0.2-0.9-0.6-1.2-1c-0.3-0.4-0.4-0.9-0.4-1.4h1.4c0,0.5,0.2,0.9,0.6,1.2c0.4,0.3,0.8,0.4,1.4,0.4
			c0.5,0,1-0.1,1.3-0.3C684.8,75.4,685,75.1,685,74.8z"/>
		<path class="st2" d="M691.9,72.7c0-1.3,0.3-2.3,0.9-3.1c0.6-0.8,1.4-1.2,2.4-1.2c1,0,1.8,0.3,2.4,1V65h1.4v12h-1.3l-0.1-0.9
			c-0.6,0.7-1.4,1.1-2.4,1.1c-1,0-1.8-0.4-2.4-1.2s-0.9-1.8-0.9-3.1V72.7z M693.3,72.9c0,1,0.2,1.7,0.6,2.3c0.4,0.5,0.9,0.8,1.6,0.8
			c0.9,0,1.6-0.4,2-1.2v-3.9c-0.4-0.8-1.1-1.2-2-1.2c-0.7,0-1.3,0.3-1.7,0.8C693.5,71,693.3,71.8,693.3,72.9z"/>
		<path class="st2" d="M700.9,72.7c0-0.8,0.2-1.6,0.5-2.2c0.3-0.7,0.8-1.2,1.4-1.5c0.6-0.4,1.2-0.5,2-0.5c1.2,0,2.1,0.4,2.8,1.2
			s1.1,1.9,1.1,3.2v0.1c0,0.8-0.2,1.6-0.5,2.2c-0.3,0.7-0.8,1.2-1.4,1.5s-1.3,0.5-2,0.5c-1.1,0-2.1-0.4-2.8-1.2s-1.1-1.9-1.1-3.2
			V72.7z M702.3,72.9c0,0.9,0.2,1.7,0.7,2.3c0.4,0.6,1,0.9,1.7,0.9c0.7,0,1.3-0.3,1.8-0.9c0.4-0.6,0.6-1.4,0.6-2.4
			c0-0.9-0.2-1.7-0.7-2.3c-0.4-0.6-1-0.9-1.8-0.9c-0.7,0-1.3,0.3-1.7,0.9S702.3,71.8,702.3,72.9z"/>
		<path class="st2" d="M711.8,68.5l0,0.9c0.6-0.7,1.5-1.1,2.5-1.1c1.2,0,2,0.5,2.4,1.4c0.3-0.4,0.6-0.7,1.1-1c0.5-0.3,1-0.4,1.6-0.4
			c1.9,0,2.8,1,2.8,2.9V77h-1.4v-5.6c0-0.6-0.1-1.1-0.4-1.4c-0.3-0.3-0.7-0.4-1.4-0.4c-0.5,0-1,0.2-1.3,0.5
			c-0.4,0.3-0.6,0.8-0.6,1.3V77h-1.5v-5.5c0-1.2-0.6-1.8-1.8-1.8c-0.9,0-1.6,0.4-1.9,1.2V77h-1.4v-8.5H711.8z"/>
		<path class="st2" d="M724.4,66.3c0-0.2,0.1-0.4,0.2-0.6c0.1-0.2,0.4-0.2,0.6-0.2s0.5,0.1,0.6,0.2c0.1,0.2,0.2,0.4,0.2,0.6
			s-0.1,0.4-0.2,0.6c-0.1,0.2-0.4,0.2-0.6,0.2s-0.5-0.1-0.6-0.2C724.5,66.7,724.4,66.5,724.4,66.3z M726,77h-1.4v-8.5h1.4V77z"/>
		<path class="st2" d="M729.7,68.5l0,1.1c0.6-0.8,1.5-1.2,2.5-1.2c1.8,0,2.7,1,2.7,3V77h-1.4v-5.6c0-0.6-0.1-1.1-0.4-1.4
			s-0.7-0.4-1.3-0.4c-0.5,0-0.9,0.1-1.2,0.4c-0.4,0.3-0.6,0.6-0.8,1v6h-1.4v-8.5H729.7z"/>
		<path class="st2" d="M737.1,66.3c0-0.2,0.1-0.4,0.2-0.6c0.1-0.2,0.4-0.2,0.6-0.2s0.5,0.1,0.6,0.2c0.1,0.2,0.2,0.4,0.2,0.6
			s-0.1,0.4-0.2,0.6c-0.1,0.2-0.4,0.2-0.6,0.2s-0.5-0.1-0.6-0.2C737.2,66.7,737.1,66.5,737.1,66.3z M738.7,77h-1.4v-8.5h1.4V77z"/>
		<path class="st2" d="M744.4,76c0.5,0,1-0.2,1.4-0.5c0.4-0.3,0.6-0.7,0.6-1.2h1.4c0,0.5-0.2,0.9-0.5,1.4c-0.3,0.4-0.7,0.8-1.2,1
			c-0.5,0.3-1.1,0.4-1.6,0.4c-1.2,0-2.1-0.4-2.7-1.2s-1-1.8-1-3.2v-0.2c0-0.8,0.2-1.6,0.5-2.2c0.3-0.6,0.7-1.1,1.3-1.5
			c0.6-0.4,1.2-0.5,2-0.5c0.9,0,1.7,0.3,2.4,0.9c0.6,0.6,1,1.3,1,2.2h-1.4c0-0.5-0.2-1-0.6-1.3c-0.4-0.4-0.8-0.5-1.4-0.5
			c-0.7,0-1.3,0.3-1.7,0.8c-0.4,0.5-0.6,1.3-0.6,2.3v0.3c0,1,0.2,1.7,0.6,2.3C743.1,75.7,743.7,76,744.4,76z"/>
		<path class="st2" d="M754.6,77c-0.1-0.2-0.2-0.5-0.2-0.9c-0.7,0.7-1.5,1-2.4,1c-0.8,0-1.5-0.2-2.1-0.7c-0.5-0.5-0.8-1.1-0.8-1.8
			c0-0.9,0.3-1.6,1-2.1c0.7-0.5,1.6-0.7,2.8-0.7h1.4v-0.7c0-0.5-0.2-0.9-0.5-1.2c-0.3-0.3-0.7-0.4-1.3-0.4c-0.5,0-0.9,0.1-1.3,0.4
			c-0.3,0.3-0.5,0.6-0.5,0.9h-1.5c0-0.4,0.1-0.8,0.4-1.2c0.3-0.4,0.7-0.7,1.2-0.9c0.5-0.2,1.1-0.3,1.7-0.3c1,0,1.7,0.2,2.3,0.7
			c0.6,0.5,0.8,1.2,0.9,2V75c0,0.8,0.1,1.4,0.3,1.9V77H754.6z M752.2,75.9c0.5,0,0.9-0.1,1.3-0.4s0.7-0.5,0.9-0.9v-1.7h-1.1
			c-1.8,0-2.7,0.5-2.7,1.6c0,0.5,0.2,0.8,0.5,1.1C751.3,75.8,751.7,75.9,752.2,75.9z"/>
		<path class="st2" d="M759.5,68.5l0,1.1c0.6-0.8,1.5-1.2,2.5-1.2c1.8,0,2.7,1,2.7,3V77h-1.4v-5.6c0-0.6-0.1-1.1-0.4-1.4
			s-0.7-0.4-1.3-0.4c-0.5,0-0.9,0.1-1.2,0.4c-0.4,0.3-0.6,0.6-0.8,1v6h-1.4v-8.5H759.5z"/>
		<path class="st2" d="M772.1,77c-0.1-0.2-0.2-0.5-0.2-0.9c-0.7,0.7-1.5,1-2.4,1c-0.8,0-1.5-0.2-2.1-0.7c-0.5-0.5-0.8-1.1-0.8-1.8
			c0-0.9,0.3-1.6,1-2.1c0.7-0.5,1.6-0.7,2.8-0.7h1.4v-0.7c0-0.5-0.2-0.9-0.5-1.2c-0.3-0.3-0.7-0.4-1.3-0.4c-0.5,0-0.9,0.1-1.3,0.4
			c-0.3,0.3-0.5,0.6-0.5,0.9h-1.5c0-0.4,0.1-0.8,0.4-1.2c0.3-0.4,0.7-0.7,1.2-0.9c0.5-0.2,1.1-0.3,1.7-0.3c1,0,1.7,0.2,2.3,0.7
			c0.6,0.5,0.8,1.2,0.9,2V75c0,0.8,0.1,1.4,0.3,1.9V77H772.1z M769.7,75.9c0.5,0,0.9-0.1,1.3-0.4s0.7-0.5,0.9-0.9v-1.7h-1.1
			c-1.8,0-2.7,0.5-2.7,1.6c0,0.5,0.2,0.8,0.5,1.1C768.9,75.8,769.3,75.9,769.7,75.9z"/>
		<path class="st2" d="M780.5,74.8c0-0.4-0.1-0.7-0.4-0.9c-0.3-0.2-0.8-0.4-1.5-0.6c-0.7-0.2-1.3-0.3-1.7-0.6s-0.7-0.5-1-0.8
			c-0.2-0.3-0.3-0.7-0.3-1.1c0-0.7,0.3-1.3,0.9-1.8s1.3-0.7,2.2-0.7c1,0,1.7,0.2,2.3,0.7c0.6,0.5,0.9,1.1,0.9,1.9h-1.5
			c0-0.4-0.2-0.7-0.5-1s-0.8-0.4-1.3-0.4c-0.5,0-0.9,0.1-1.2,0.3s-0.4,0.5-0.4,0.9c0,0.3,0.1,0.6,0.4,0.8c0.3,0.2,0.8,0.3,1.5,0.5
			c0.7,0.2,1.3,0.4,1.8,0.6c0.4,0.2,0.8,0.5,1,0.8c0.2,0.3,0.3,0.7,0.3,1.2c0,0.8-0.3,1.4-0.9,1.8c-0.6,0.5-1.4,0.7-2.4,0.7
			c-0.7,0-1.3-0.1-1.8-0.4c-0.5-0.2-0.9-0.6-1.2-1c-0.3-0.4-0.4-0.9-0.4-1.4h1.4c0,0.5,0.2,0.9,0.6,1.2c0.4,0.3,0.8,0.4,1.4,0.4
			c0.5,0,1-0.1,1.3-0.3C780.4,75.4,780.5,75.1,780.5,74.8z"/>
	</g>
	<g id="Group_792" transform="translate(304.979 6.253)">
		<g id="Rectangle_196">
			<rect x="15" y="19.7" width="57.7" height="53.8"/>
		</g>
		<g id="Group_788" transform="translate(15.021 19.747)">
			<g>
				<defs>
					<rect id="SVGID_1_" x="0" y="0" width="57.7" height="53.8"/>
				</defs>
				<clipPath id="SVGID_2_">
					<use xlink:href="#SVGID_1_"  style="overflow:visible;"/>
				</clipPath>
				<g id="Group_787" class="st3">
					<g id="Group_786" transform="translate(-2.227 20.154)">
						<g id="Path_239">
							<path d="M28.8,0.3l8.5,9.4L8.5,41.6L0,32.2L28.8,0.3z"/>
						</g>
						<g id="Line_32">
							<line class="st4" x1="29.1" y1="0" x2="0.2" y2="31.9"/>
						</g>
						<g id="Line_33">
							<line class="st4" x1="31.9" y1="3.1" x2="3.1" y2="35"/>
						</g>
						<g id="Line_34">
							<line class="st4" x1="34.8" y1="6.3" x2="5.9" y2="38.1"/>
						</g>
						<g id="Line_35">
							<line class="st4" x1="37.6" y1="9.4" x2="8.8" y2="41.3"/>
						</g>
						<g id="Path_240">
							<path class="st5" d="M34.6,6.7l2.7,3L8.5,41.6l-2.7-3L34.6,6.7z"/>
							<path class="st5" d="M8.5,41.7l-2.8-3.1l0.1-0.1L34.6,6.6l2.8,3.1l-0.1,0.1L8.5,41.7z M5.9,38.6l2.6,2.9L37.2,9.7l-2.6-2.9
								L5.9,38.6z"/>
						</g>
						<g id="Path_241">
							<path class="st6" d="M31.7,3.5l2.9,3.2L5.8,38.6l-2.9-3.2L31.7,3.5z"/>
						</g>
						<g id="Path_242">
							<path class="st7" d="M28.8,0.3l2.9,3.2L2.9,35.4L0,32.2L28.8,0.3z"/>
						</g>
					</g>
				</g>
			</g>
		</g>
		<g id="Rectangle_198">
			<path d="M72.9,73.7h-58V19.6h58V73.7z M15.1,73.5h57.5V19.9H15.1V73.5z"/>
		</g>
		<g id="Path_243">
			<path class="st6" d="M19,46.8c0.1-13.7,11.3-24.7,24.9-24.6s24.7,11.3,24.6,24.9c-0.1,13.6-11.2,24.6-24.8,24.6
				C30,71.7,18.9,60.5,19,46.8C19,46.8,19,46.8,19,46.8z"/>
		</g>
		<g id="Path_244">
			<path d="M30.6,46.8c0.1-7.3,6-13.1,13.2-13c7.3,0.1,13.1,6,13,13.2c-0.1,7.2-5.9,13-13.1,13C36.5,60,30.6,54.1,30.6,46.8z"/>
		</g>
		<g id="Group_791" transform="translate(30.601 33.595)">
			<g>
				<defs>
					<path id="SVGID_3_" d="M0,13.2C0.1,6,6,0.1,13.2,0.2c7.3,0.1,13.1,6,13,13.2c-0.1,7.2-5.9,13-13.1,13C5.9,26.4,0,20.5,0,13.2z"
						/>
				</defs>
				<clipPath id="SVGID_4_">
					<use xlink:href="#SVGID_3_"  style="overflow:visible;"/>
				</clipPath>
				<g id="Group_790" class="st8">
					<g id="Group_789" transform="translate(-10.32 -2.002)">
						<g id="Path_245">
							<path d="M28.8,0.3l8.5,9.4L8.5,41.6L0,32.2L28.8,0.3z"/>
						</g>
						<g id="Line_36">
							<line class="st4" x1="29.1" y1="0" x2="0.2" y2="31.9"/>
						</g>
						<g id="Line_37">
							<line class="st4" x1="31.9" y1="3.1" x2="3.1" y2="35"/>
						</g>
						<g id="Line_38">
							<line class="st4" x1="34.8" y1="6.3" x2="5.9" y2="38.1"/>
						</g>
						<g id="Line_39">
							<line class="st4" x1="37.6" y1="9.4" x2="8.8" y2="41.3"/>
						</g>
						<g id="Path_246">
							<path class="st5" d="M34.6,6.7l2.7,3L8.5,41.6l-2.7-3L34.6,6.7z"/>
							<path class="st5" d="M8.5,41.7L8.5,41.7l-2.8-3.1l0.1-0.1L34.6,6.6l2.8,3.1l-0.1,0.1L8.5,41.7z M5.9,38.6l2.6,2.9L37.2,9.7
								l-2.6-2.9L5.9,38.6z"/>
						</g>
						<g id="Path_247">
							<path class="st6" d="M31.7,3.5l2.9,3.2L5.8,38.6l-2.9-3.2L31.7,3.5z"/>
						</g>
						<g id="Path_248">
							<path class="st7" d="M28.8,0.3l2.9,3.2L2.9,35.4L0,32.2L28.8,0.3z"/>
						</g>
					</g>
				</g>
			</g>
		</g>
		<g id="Path_250">
			<path class="st9" d="M169,55.3h-28.6c0.1,2.1,0.7,4.1,1.9,5.9c1.2,1.8,3.2,2.8,5.4,2.8c1.4,0,2.8-0.4,4-1.2
				c1-0.7,1.8-1.6,2.5-2.7l14,1.5c-2.2,4.3-4.7,7.4-7.8,9.3s-7.4,2.8-13.1,2.8c-4.9,0-8.8-0.8-11.6-2.4c-3-1.8-5.5-4.5-7-7.6
				c-1.9-3.8-2.9-8-2.8-12.3c0-6.7,1.9-12.1,5.6-16.3s8.9-6.2,15.4-6.2c5.3,0,9.5,0.9,12.6,2.8c3.1,1.9,5.6,4.7,7,8.1
				c1.6,3.5,2.4,8.1,2.4,13.8L169,55.3z M154.6,47.5c-0.3-3.2-1-5.5-2.2-6.9c-1.2-1.4-2.9-2.1-4.8-2.1c-2.2,0-4.3,1.2-5.4,3.1
				c-1,1.8-1.6,3.8-1.7,5.8L154.6,47.5z"/>
		</g>
		<g id="Path_251">
			<path class="st9" d="M80.4,30H94v7.1c1.6-2.5,3.7-4.6,6.1-6.3c2.3-1.3,4.9-2,7.6-1.9c3.6-0.2,7.1,1.4,9.4,4.1
				c2.3,2.8,3.4,7,3.4,12.8v27.8h-14.6V49.7c0-2.7-0.4-4.7-1.3-5.8c-0.9-1.1-2.3-1.8-3.7-1.7c-1.7,0-3.3,0.9-4.3,2.3
				C95.5,46,95,48.8,95,52.7v21H80.4V30z"/>
		</g>
	</g>
</g>
</svg>
